SplineFontDB: 1.0
FontName: FreeSans
FullName: Free Sans
FamilyName: FreeSans
Weight: Medium
Copyright: Copyright 2002 Free Software Foundation.
Version: $Revision: 1.10 $
ItalicAngle: 0
UnderlinePosition: -151
UnderlineWidth: 50
Ascent: 800
Descent: 200
NeedsXUIDChange: 1
FSType: 0
PfmFamily: 33
TTFWeight: 400
TTFWidth: 5
Panose: 2 11 5 4 2 2 2 2 2 4
LineGap: 90
VLineGap: 0

LangName: 1033 "" "" "" "" "" "" "" "" "" "" "" "" "" "The use of this font is granted subject to GNU General Public License." "http://www.gnu.org/copyleft/gpl.html" "" "" "" "" "The quick brown fox jumps over the lazy dog." 
LangName: 1060 "" "" "navadno" "" "" "" "" "" "" "" "" "" "" "Dovoljena je uporaba v skladu z licenco GNU General Public License." "http://www.gnu.org/copyleft/gpl.html" "" "" "" "" "+AWAA-erif bo za vajo spet kuhal doma+AQ0A-e +AX4A-gance." 
Encoding: unicode
DisplaySize: -48
AntiAlias: 1
BeginPrivate: 8
UniqueID 7 5020902
BlueValues 31 [-23 0 524 544 729 749 686 709]
BlueScale 8 0.039625
StdHW 4 [78]
StdVW 4 [85]
StemSnapH 194 [69 74 78 83] 
systemdict /internaldict known
{1183615869 systemdict /internaldict get exec
/StemSnapLength 2 copy known { get 4 lt } { pop pop true } ifelse }
{ true } ifelse { pop [78 83] } if
StemSnapV 191 [78 85 94] 
systemdict /internaldict known
{1183615869 systemdict /internaldict get exec
/StemSnapLength 2 copy known { get 3 lt } { pop pop true } ifelse }
{ true } ifelse { pop [85 94] } if
ForceBold 5 false
EndPrivate
BeginChars: 65536 1793
StartChar: exclam
Encoding: 33 33
Width: 278
Flags: W
HStem: 0 104<124 208> 709 20<125 208 208 208>
VStem: 124 84<0 104> 125 83<391 729>
Fore
208 729 m 5
 208 391 l 5
 186 168 l 5
 147 168 l 5
 125 391 l 5
 125 729 l 5
 208 729 l 5
208 104 m 5
 208 0 l 5
 124 0 l 5
 124 104 l 5
 208 104 l 5
EndSplineSet
EndChar
StartChar: quotedbl
Encoding: 34 34
Width: 355
Flags: MW
VStem: 52 93<598 709> 212 93<598 709>
Fore
52 709 m 1
 145 709 l 1
 145 598 l 1
 118 464 l 1
 79 464 l 1
 52 598 l 1
 52 709 l 1
212 709 m 1
 305 709 l 1
 305 598 l 1
 278 464 l 1
 239 464 l 1
 212 598 l 1
 212 709 l 1
EndSplineSet
EndChar
StartChar: numbersign
Encoding: 35 35
Width: 556
Flags: MW
HStem: -20 20 191 68<14 115 204 316 405 510> 433 68<51 159 248 360 449 542>
Fore
485 697 m 1
 449 501 l 1
 542 501 l 1
 542 433 l 1
 436 433 l 1
 405 259 l 1
 510 259 l 1
 510 191 l 1
 393 191 l 1
 354 -20 l 1
 278 -20 l 1
 316 191 l 1
 192 191 l 1
 153 -20 l 1
 77 -20 l 1
 115 191 l 1
 14 191 l 1
 14 259 l 1
 128 259 l 1
 159 433 l 1
 51 433 l 1
 51 501 l 1
 172 501 l 1
 208 697 l 1
 284 697 l 1
 248 501 l 1
 373 501 l 1
 408 697 l 1
 485 697 l 1
360 433 m 1
 236 433 l 1
 204 259 l 1
 329 259 l 1
 360 433 l 1
EndSplineSet
EndChar
StartChar: dollar
Encoding: 36 36
Width: 556
Flags: MW
VStem: 46 81<495.5 559> 243 59<-126 -23 46 309 405 645 645 645 716 770> 436 82<163.5 216>
Fore
243 770 m 1
 302 770 l 1
 302 716 l 1
 423 707 496 633 496 519 c 1
 417 519 l 1
 416 592 369 643 302 646 c 1
 302 397 l 1
 394 369 407 364 433 349 c 0
 491 316 518 266 518 195 c 0
 518 117 484 48 426 12 c 0
 393 -8 356 -19 302 -23 c 1
 302 -126 l 1
 243 -126 l 1
 243 -23 l 1
 102 -14 26 69 33 208 c 1
 112 208 l 1
 118 143 122 126 137 103 c 1
 160 72 198 52 243 46 c 1
 243 318 l 1
 170 340 143 351 117 370 c 0
 70 404 46 453 46 516 c 0
 46 630 115 700 243 716 c 1
 243 770 l 1
243 405 m 1
 243 645 l 1
 169 635 127 592 127 526 c 0
 127 465 164 426 243 405 c 1
302 309 m 1
 302 46 l 1
 345 51 370 60 394 83 c 0
 421 109 436 144 436 183 c 0
 436 249 404 279 302 309 c 1
EndSplineSet
EndChar
StartChar: percent
Encoding: 37 37
Width: 889
Flags: W
HStem: -20 20 -19 70<661 716.5> 252 70<660.5 716.5> 343 70<172 227.5> 615 70<171.5 227.5>
VStem: 29 69<486.5 542> 301 69<485.5 541.5> 518 69<124 179.5> 790 69<123 178.5>
Fore
199 685 m 0
 295 685 370 609 370 512 c 0
 370 420 293 343 200 343 c 0
 106 343 29 420 29 514 c 0
 29 608 106 685 199 685 c 0
199 615 m 0
 144 615 98 570 98 514 c 0
 98 459 144 413 200 413 c 0
 255 413 301 458 301 513 c 0
 301 570 256 615 199 615 c 0
609 709 m 1
 675 709 l 1
 280 -20 l 1
 214 -20 l 1
 609 709 l 1
688 322 m 0
 784 322 859 246 859 150 c 0
 859 58 781 -19 689 -19 c 0
 595 -19 518 58 518 152 c 0
 518 245 595 322 688 322 c 0
688 252 m 0
 633 252 587 207 587 152 c 0
 587 96 633 51 689 51 c 0
 744 51 790 96 790 150 c 0
 790 207 745 252 688 252 c 0
EndSplineSet
EndChar
StartChar: ampersand
Encoding: 38 38
Width: 667
Flags: W
HStem: -23 78<231 281.5> 639 70<275 326>
VStem: 52 84<148 211> 133 82<535.5 579> 388 79<531.5 578.5>
Fore
493 334 m 1
 573 334 l 1
 573 274 552 208 515 151 c 1
 637 0 l 1
 528 0 l 1
 466 78 l 1
 428 41 410 26 389 13 c 0
 353 -10 306 -23 257 -23 c 0
 134 -23 52 56 52 176 c 0
 52 267 90 317 214 389 c 1
 152 467 133 505 133 552 c 0
 133 640 209 709 304 709 c 0
 399 709 467 644 467 552 c 0
 467 480 433 437 329 378 c 1
 462 215 l 1
 482 250 494 298 493 334 c 1
285 431 m 1
 363 480 388 509 388 554 c 0
 388 603 351 639 301 639 c 0
 249 639 215 605 215 553 c 0
 215 518 224 501 285 431 c 1
418 137 m 1
 258 337 l 1
 167 279 136 239 136 183 c 0
 136 113 195 55 267 55 c 0
 319 55 362 78 418 137 c 1
EndSplineSet
EndChar
StartChar: quotesingle
Encoding: 39 39
Width: 191
Flags: MW
VStem: 48 94<598 709>
Fore
48 709 m 1
 142 709 l 1
 142 598 l 1
 115 464 l 1
 75 464 l 1
 48 598 l 1
 48 709 l 1
EndSplineSet
EndChar
StartChar: parenleft
Encoding: 40 40
Width: 333
Flags: MW
HStem: 709 20<236 291 291 291>
VStem: 73 81<180 337.5>
Fore
236 729 m 1
 291 729 l 1
 203 587 154 418 154 259 c 0
 154 99 203 -69 291 -212 c 1
 236 -212 l 1
 136 -81 73 101 73 259 c 0
 73 416 136 598 236 729 c 1
EndSplineSet
EndChar
StartChar: parenright
Encoding: 41 41
Width: 333
Flags: MW
HStem: 709 20<38 93 93 93>
VStem: 175 81<179.5 337>
Fore
93 -212 m 1
 38 -212 l 1
 126 -70 175 99 175 258 c 0
 175 418 126 586 38 729 c 1
 93 729 l 1
 193 598 256 416 256 258 c 0
 256 101 193 -81 93 -212 c 1
EndSplineSet
EndChar
StartChar: asterisk
Encoding: 42 42
Width: 389
Flags: MW
HStem: 514 20<192 192> 709 20<160 223 223 223>
Fore
160 729 m 1
 223 729 l 1
 218 617 l 1
 324 655 l 1
 343 596 l 1
 235 566 l 1
 305 477 l 1
 254 441 l 1
 192 534 l 1
 129 441 l 1
 79 477 l 1
 148 566 l 1
 40 596 l 1
 59 655 l 1
 165 617 l 1
 160 729 l 1
EndSplineSet
EndChar
StartChar: plus
Encoding: 43 43
Width: 584
Flags: MW
HStem: -10 20 197 70<50 257 327 534>
VStem: 257 70<-10 197 267 474>
Fore
534 267 m 1
 534 197 l 1
 327 197 l 1
 327 -10 l 1
 257 -10 l 1
 257 197 l 1
 50 197 l 1
 50 267 l 1
 257 267 l 1
 257 474 l 1
 327 474 l 1
 327 267 l 1
 534 267 l 1
EndSplineSet
EndChar
StartChar: comma
Encoding: 44 44
Width: 278
Flags: MW
HStem: 0 104<87 147>
Fore
87 104 m 1
 192 104 l 1
 192 -16 l 2
 192 -102 157 -147 87 -147 c 1
 87 -109 l 1
 134 -107 147 -87 147 -18 c 2
 147 0 l 1
 87 0 l 1
 87 104 l 1
EndSplineSet
EndChar
StartChar: hyphen
Encoding: 45 45
Width: 333
Flags: MW
HStem: 240 72<46 284>
VStem: 46 238<240 312>
Fore
284 312 m 5
 284 240 l 5
 46 240 l 5
 46 312 l 5
 284 312 l 5
EndSplineSet
EndChar
StartChar: period
Encoding: 46 46
Width: 278
Flags: MW
HStem: 0 104<87 191>
VStem: 87 104<0 104>
Fore
191 104 m 1
 191 0 l 1
 87 0 l 1
 87 104 l 1
 191 104 l 1
EndSplineSet
EndChar
StartChar: slash
Encoding: 47 47
Width: 278
Flags: MW
HStem: -20 20 709 20<229 284 284 284>
Fore
229 729 m 1
 284 729 l 1
 47 -20 l 1
 -8 -20 l 1
 229 729 l 1
EndSplineSet
EndChar
StartChar: zero
Encoding: 48 48
Width: 556
Flags: MW
HStem: -23 73<226.5 322> 631 78<242 308.5>
VStem: 43 90<245 408.5> 417 90<244.5 406>
Fore
275 709 m 0
 342 709 401 681 438 631 c 0
 485 567 507 475 507 337 c 0
 507 104 425 -23 275 -23 c 0
 123 -23 43 104 43 343 c 0
 43 474 66 569 112 631 c 0
 149 680 209 709 275 709 c 0
275 631 m 0
 180 631 133 536 133 342 c 0
 133 148 180 50 273 50 c 0
 371 50 417 144 417 345 c 0
 417 535 370 631 275 631 c 0
EndSplineSet
EndChar
StartChar: one
Encoding: 49 49
Width: 556
Flags: MW
HStem: 0 20
VStem: 259 88<0 505 505 505>
Fore
259 505 m 1
 102 505 l 1
 102 568 l 1
 238 585 258 600 289 709 c 1
 347 709 l 1
 347 0 l 1
 259 0 l 1
 259 505 l 1
EndSplineSet
EndChar
StartChar: two
Encoding: 50 50
Width: 556
Flags: MW
HStem: 0 87<133 506> 632 77<254.5 317.5>
VStem: 421 90<471 530.5>
Fore
506 87 m 1
 506 0 l 1
 34 0 l 1
 42 156 85 223 233 307 c 2
 325 359 l 2
 388 395 421 443 421 499 c 0
 421 575 361 632 281 632 c 0
 228 632 182 606 159 563 c 0
 147 540 141 511 138 463 c 1
 50 463 l 1
 52 535 63 579 88 617 c 0
 127 677 194 709 284 709 c 0
 351 709 403 691 445 653 c 0
 487 615 511 560 511 501 c 0
 511 414 460 341 361 287 c 2
 261 233 l 1
 174 182 142 145 133 87 c 1
 506 87 l 1
EndSplineSet
EndChar
StartChar: three
Encoding: 51 51
Width: 556
Flags: W
HStem: -23 78<221 315> 632 77<242.5 309>
VStem: 395 90<486 548.5> 416 90<152.5 239.5>
Fore
221 325 m 1
 221 400 l 1
 283 401 314 405 338 415 c 0
 377 431 395 461 395 511 c 0
 395 586 348 632 270 632 c 0
 215 632 171 608 151 569 c 0
 140 547 136 523 135 480 c 1
 47 480 l 1
 50 631 126 709 269 709 c 0
 404 709 485 636 485 514 c 0
 485 443 452 393 386 367 c 1
 471 338 506 288 506 198 c 0
 506 64 412 -23 266 -23 c 0
 169 -23 99 12 63 80 c 0
 46 112 36 149 32 206 c 1
 120 206 l 1
 126 103 173 55 269 55 c 0
 361 55 416 108 416 197 c 0
 416 282 366 326 269 326 c 2
 232 325 l 1
 221 325 l 1
EndSplineSet
EndChar
StartChar: four
Encoding: 52 52
Width: 556
Flags: MW
HStem: 0 20 170 79<105 327 415 520>
VStem: 327 88<0 170 249 559 559 559>
Fore
327 170 m 1
 28 170 l 1
 28 263 l 1
 350 709 l 1
 415 709 l 1
 415 249 l 1
 520 249 l 1
 520 170 l 1
 415 170 l 1
 415 0 l 1
 327 0 l 1
 327 170 l 1
327 249 m 1
 327 559 l 1
 105 249 l 1
 327 249 l 1
EndSplineSet
EndChar
StartChar: five
Encoding: 53 53
Width: 556
Flags: MW
HStem: -23 78<230 316> 389 78<259 315.5> 622 87<181 476 181 181>
VStem: 423 90<168 271.5>
Fore
476 709 m 1
 476 622 l 1
 181 622 l 1
 153 424 l 1
 194 454 234 467 284 467 c 0
 420 467 513 371 513 231 c 0
 513 81 413 -23 270 -23 c 0
 190 -23 118 8 78 62 c 1
 57 88 47 116 35 174 c 1
 123 174 l 1
 144 94 191 55 268 55 c 0
 364 55 423 117 423 219 c 0
 423 324 363 389 268 389 c 0
 213 389 179 372 138 323 c 1
 57 323 l 1
 110 709 l 1
 476 709 l 1
EndSplineSet
EndChar
StartChar: six
Encoding: 54 54
Width: 556
Flags: MW
HStem: -23 78<242 322.5> 363 78<261 327.5> 631 78<258 322>
VStem: 43 95 423 90<164.5 256.5>
Fore
498 524 m 1
 410 524 l 1
 396 592 353 631 291 631 c 0
 190 631 134 535 133 362 c 1
 171 414 226 441 296 441 c 0
 423 441 513 348 513 216 c 0
 513 77 416 -23 281 -23 c 0
 203 -23 141 8 103 65 c 0
 61 128 43 204 43 323 c 0
 43 452 63 539 107 608 c 0
 149 671 219 709 297 709 c 0
 405 709 481 640 498 524 c 1
285 363 m 0
 198 363 138 302 138 214 c 0
 138 123 200 55 282 55 c 0
 363 55 423 120 423 209 c 0
 423 304 370 363 285 363 c 0
EndSplineSet
EndChar
StartChar: seven
Encoding: 55 55
Width: 556
Flags: MW
HStem: 0 20 622 87<46 429>
Fore
520 709 m 1
 520 635 l 1
 360 422 271 227 232 0 c 1
 138 0 l 1
 191 233 260 381 429 622 c 1
 46 622 l 1
 46 709 l 1
 520 709 l 1
EndSplineSet
EndChar
StartChar: eight
Encoding: 56 56
Width: 556
Flags: W
HStem: -23 78<230 318> 334 74<238 312> 631 78<238 312.5>
VStem: 37 90<153.5 236> 62 90<487 553> 398 90<486.5 552.5> 423 90<153 235.5>
Fore
391 373 m 1
 473 334 513 275 513 196 c 0
 513 67 415 -23 275 -23 c 0
 135 -23 37 67 37 197 c 0
 37 275 77 334 158 373 c 1
 86 418 62 454 62 520 c 0
 62 631 150 709 275 709 c 0
 401 709 488 631 488 520 c 0
 488 453 464 417 391 373 c 1
275 631 m 0
 201 631 152 587 152 519 c 0
 152 452 201 408 275 408 c 0
 349 408 398 452 398 518 c 0
 398 587 350 631 275 631 c 0
275 334 m 0
 187 334 127 278 127 195 c 0
 127 112 187 55 273 55 c 0
 363 55 423 111 423 195 c 0
 423 278 363 334 275 334 c 0
EndSplineSet
EndChar
StartChar: nine
Encoding: 57 57
Width: 556
Flags: MW
HStem: -23 78<229 293> 245 78<223.5 289.5> 632 77<228.5 309>
VStem: 38 90<429.5 522> 413 96
Fore
53 162 m 1
 141 162 l 1
 155 94 198 55 260 55 c 0
 361 55 417 151 418 324 c 1
 372 269 323 245 256 245 c 0
 128 245 38 338 38 470 c 0
 38 609 135 709 270 709 c 0
 348 709 410 678 449 621 c 0
 491 558 509 482 509 363 c 0
 509 234 489 147 444 78 c 0
 403 15 332 -23 254 -23 c 0
 146 -23 70 46 53 162 c 1
269 632 m 0
 188 632 128 567 128 477 c 0
 128 382 181 323 266 323 c 0
 352 323 413 385 413 472 c 0
 413 564 351 632 269 632 c 0
EndSplineSet
EndChar
StartChar: colon
Encoding: 58 58
Width: 278
Flags: MW
HStem: 0 104<110 214> 420 104<110 214>
VStem: 110 104<0 104 420 524>
Fore
214 104 m 1
 214 0 l 1
 110 0 l 1
 110 104 l 1
 214 104 l 1
214 524 m 1
 214 420 l 1
 110 420 l 1
 110 524 l 1
 214 524 l 1
EndSplineSet
EndChar
StartChar: semicolon
Encoding: 59 59
Width: 278
Flags: MW
HStem: 0 104<110 170> 420 104<111 215>
VStem: 111 104<420 524>
Fore
215 524 m 1
 215 420 l 1
 111 420 l 1
 111 524 l 1
 215 524 l 1
110 104 m 1
 215 104 l 1
 215 -16 l 2
 215 -102 180 -147 110 -147 c 1
 110 -109 l 1
 157 -107 170 -87 170 -18 c 2
 170 0 l 1
 110 0 l 1
 110 104 l 1
EndSplineSet
EndChar
StartChar: less
Encoding: 60 60
Width: 584
Flags: MW
HStem: -9 20
Fore
45 198 m 1
 45 267 l 1
 534 474 l 1
 534 395 l 1
 140 234 l 1
 534 70 l 1
 534 -9 l 1
 45 198 l 1
EndSplineSet
EndChar
StartChar: equal
Encoding: 61 61
Width: 584
Flags: MW
HStem: 111 70<50 534> 283 70<50 534>
Fore
534 353 m 1
 534 283 l 1
 50 283 l 1
 50 353 l 1
 534 353 l 1
534 181 m 1
 534 111 l 1
 50 111 l 1
 50 181 l 1
 534 181 l 1
EndSplineSet
EndChar
StartChar: greater
Encoding: 62 62
Width: 584
Flags: MW
HStem: -9 20
Fore
539 267 m 1
 539 198 l 1
 50 -9 l 1
 50 70 l 1
 444 231 l 1
 50 395 l 1
 50 474 l 1
 539 267 l 1
EndSplineSet
EndChar
StartChar: question
Encoding: 63 63
Width: 556
Flags: MW
HStem: 0 104<240 330> 663 78<264.5 329.5>
VStem: 240 90<0 104 199 246> 419 90<526 583>
Fore
330 199 m 5
 240 199 l 5
 240 254 l 6
 240 290 247 313 268 341 c 4
 285 364 285 364 344 417 c 4
 397 464 419 503 419 549 c 4
 419 617 368 663 291 663 c 4
 238 663 198 642 179 605 c 4
 167 581 162 553 162 507 c 5
 77 507 l 5
 77 661 152 741 296 741 c 4
 426 741 509 666 509 549 c 4
 509 483 484 438 409 370 c 4
 341 307 330 290 330 246 c 6
 330 199 l 5
330 104 m 5
 330 0 l 5
 240 0 l 5
 240 104 l 5
 330 104 l 5
EndSplineSet
EndChar
StartChar: at
Encoding: 64 64
Width: 1015
Flags: W
HStem: -142 77<388 521> 57 70<682.5 716> 62 64<425.5 453.5> 458 64<473 543> 664 77<465.5 607.5>
VStem: 34 85<177.5 323.5> 264 90<211 300> 864 87<330 440.5>
Fore
665 501 m 1
 748 501 l 1
 658 221 l 1
 650 198 646 180 646 171 c 0
 646 147 669 127 696 127 c 0
 781 127 864 240 864 357 c 0
 864 524 703 664 512 664 c 0
 301 664 119 483 119 273 c 0
 119 82 282 -65 494 -65 c 0
 548 -65 605 -56 687 -33 c 1
 715 -100 l 1
 643 -127 563 -142 489 -142 c 0
 236 -142 34 36 34 258 c 0
 34 389 94 523 192 612 c 0
 280 692 406 741 525 741 c 0
 758 741 951 572 951 369 c 0
 951 291 920 210 865 146 c 0
 814 86 753 57 679 57 c 0
 616 57 578 83 569 134 c 1
 523 84 480 62 427 62 c 0
 334 62 264 141 264 245 c 0
 264 390 387 522 521 522 c 0
 576 522 618 492 643 435 c 1
 665 501 l 1
515 458 m 0
 431 458 354 356 354 244 c 0
 354 178 398 126 453 126 c 0
 490 126 527 150 555 191 c 0
 580 228 607 312 609 362 c 0
 612 416 571 458 515 458 c 0
EndSplineSet
EndChar
StartChar: A
Encoding: 65 65
Width: 667
Flags: MW
HStem: 0 20 219 78<216 448> 709 20<277 397 397 397>
Fore
474 219 m 1
 193 219 l 1
 116 0 l 1
 17 0 l 1
 277 729 l 1
 397 729 l 1
 653 0 l 1
 549 0 l 1
 474 219 l 1
448 297 m 1
 336 629 l 1
 216 297 l 1
 448 297 l 1
EndSplineSet
EndChar
StartChar: B
Encoding: 66 66
Width: 667
Flags: W
HStem: 0 82<172 399 399 408> 333 82<172 352 352 378> 647 82<172 352 172 172>
VStem: 79 93<82 333 415 647> 498 93<511.5 551> 530 93<189.5 225>
Fore
79 0 m 1
 79 729 l 1
 375 729 l 2
 445 729 495 713 533 678 c 0
 571 644 591 597 591 544 c 0
 591 470 556 416 490 385 c 1
 583 349 623 296 623 208 c 0
 623 151 603 99 567 61 c 0
 528 19 477 0 408 0 c 2
 79 0 l 1
172 415 m 1
 352 415 l 2
 404 415 433 422 458 441 c 0
 484 461 498 492 498 531 c 0
 498 571 484 601 458 621 c 0
 433 640 404 647 352 647 c 2
 172 647 l 1
 172 415 l 1
172 82 m 1
 399 82 l 2
 444 82 474 93 496 117 c 0
 518 140 530 172 530 207 c 0
 530 243 518 275 496 298 c 0
 474 322 444 333 399 333 c 2
 172 333 l 1
 172 82 l 1
EndSplineSet
EndChar
StartChar: C
Encoding: 67 67
Width: 722
Flags: MW
HStem: -23 82<329.5 417> 659 82<332 399.5>
VStem: 48 93<296 415>
Fore
662 503 m 1
 567 503 l 1
 556 557 541 588 514 613 c 0
 484 641 429 659 370 659 c 0
 229 659 141 544 141 357 c 0
 141 175 233 59 378 59 c 0
 456 59 518 93 548 153 c 0
 563 182 573 216 581 266 c 1
 677 266 l 1
 655 73 555 -23 377 -23 c 0
 282 -23 210 4 154 62 c 0
 85 133 48 236 48 356 c 0
 48 474 84 578 150 650 c 0
 204 710 283 741 381 741 c 0
 541 741 633 663 662 503 c 1
EndSplineSet
EndChar
StartChar: D
Encoding: 68 68
Width: 722
Flags: MW
HStem: 0 82<182 354 354 370> 647 82<182 354 182 182>
VStem: 89 93<82 647> 574 93<272 457>
Fore
89 0 m 1
 89 729 l 1
 370 729 l 2
 555 729 667 591 667 365 c 0
 667 138 554 0 370 0 c 2
 89 0 l 1
182 82 m 1
 354 82 l 2
 498 82 574 180 574 364 c 0
 574 550 498 647 354 647 c 2
 182 647 l 1
 182 82 l 1
EndSplineSet
EndChar
StartChar: E
Encoding: 69 69
Width: 667
Flags: MW
HStem: 0 82<183 613> 332 82<183 580> 647 82<183 595 183 183>
VStem: 90 93<82 332 414 647>
Fore
183 332 m 1
 183 82 l 1
 613 82 l 1
 613 0 l 1
 90 0 l 1
 90 729 l 1
 595 729 l 1
 595 647 l 1
 183 647 l 1
 183 414 l 1
 580 414 l 1
 580 332 l 1
 183 332 l 1
EndSplineSet
EndChar
StartChar: F
Encoding: 70 70
Width: 611
Flags: MW
HStem: 0 20 332 82<183 531> 647 82<183 579 183 183>
VStem: 90 93<0 332 414 647>
Fore
183 332 m 1
 183 0 l 1
 90 0 l 1
 90 729 l 1
 579 729 l 1
 579 647 l 1
 183 647 l 1
 183 414 l 1
 531 414 l 1
 531 332 l 1
 183 332 l 1
EndSplineSet
EndChar
StartChar: G
Encoding: 71 71
Width: 778
Flags: MW
HStem: -23 82<361 427.5> 303 82<405 627> 659 82<349.5 448.5>
VStem: 44 93<317 422.5> 627 82<93 93 283 303 303 303>
Fore
709 385 m 1
 709 -4 l 1
 650 -4 l 1
 627 93 l 1
 556 14 477 -23 378 -23 c 0
 181 -23 44 133 44 357 c 0
 44 488 92 601 176 671 c 0
 233 718 305 741 394 741 c 0
 561 741 673 656 699 508 c 1
 604 508 l 1
 584 602 504 659 393 659 c 0
 239 659 137 541 137 362 c 0
 137 272 166 185 214 133 c 0
 257 86 324 59 398 59 c 0
 531 59 627 153 627 283 c 2
 627 303 l 1
 405 303 l 5
 405 385 l 1
 709 385 l 1
EndSplineSet
EndChar
StartChar: H
Encoding: 72 72
Width: 722
Flags: W
HStem: 0 20 332 82<177 551 177 177> 709 20<83 176 176 176 551 644 644 644>
VStem: 83 93<414 729> 83 94<0 332> 551 93<0 332 332 332 414 729>
Fore
551 332 m 1
 177 332 l 1
 177 0 l 1
 83 0 l 1
 83 729 l 1
 176 729 l 1
 176 414 l 1
 551 414 l 1
 551 729 l 1
 644 729 l 1
 644 0 l 1
 551 0 l 1
 551 332 l 1
EndSplineSet
EndChar
StartChar: I
Encoding: 73 73
Width: 278
Flags: MW
HStem: 0 20 709 20<100 194 194 194>
VStem: 100 94<0 729>
Fore
194 729 m 1
 194 0 l 1
 100 0 l 1
 100 729 l 5
 194 729 l 1
EndSplineSet
EndChar
StartChar: J
Encoding: 74 74
Width: 500
Flags: MW
HStem: -23 78<186 239.5> 709 20<333 426 426 426>
VStem: 17 95<170 187 187 234> 333 93<216 729>
Fore
333 729 m 1
 426 729 l 1
 426 182 l 2
 426 56 347 -23 220 -23 c 0
 95 -23 17 52 17 170 c 2
 17 234 l 1
 112 234 l 1
 112 187 l 2
 112 102 151 55 221 55 c 0
 258 55 292 72 310 100 c 0
 327 125 333 158 333 216 c 2
 333 729 l 1
EndSplineSet
EndChar
StartChar: K
Encoding: 75 75
Width: 667
Flags: MW
HStem: 0 20 709 20<79 172 172 172 535 655 655 655>
VStem: 79 93<0 255 360 729>
Fore
172 255 m 1
 172 0 l 1
 79 0 l 1
 79 729 l 1
 172 729 l 1
 172 360 l 1
 535 729 l 1
 655 729 l 1
 358 432 l 1
 658 0 l 1
 548 0 l 1
 291 374 l 1
 172 255 l 1
EndSplineSet
EndChar
StartChar: L
Encoding: 76 76
Width: 556
Flags: MW
HStem: 0 82<173 533> 709 20<80 173 173 173>
VStem: 80 93<82 729>
Fore
173 729 m 1
 173 82 l 1
 533 82 l 1
 533 0 l 1
 80 0 l 1
 80 729 l 1
 173 729 l 1
EndSplineSet
EndChar
StartChar: M
Encoding: 77 77
Width: 833
Flags: MW
HStem: 0 20 709 20<75 204 204 204 632 761 761 761>
VStem: 75 88<0 611> 673 88<0 611 611 611>
Fore
468 0 m 1
 370 0 l 1
 163 611 l 1
 163 0 l 1
 75 0 l 1
 75 729 l 1
 204 729 l 1
 420 94 l 1
 632 729 l 1
 761 729 l 1
 761 0 l 1
 673 0 l 1
 673 611 l 1
 468 0 l 1
EndSplineSet
EndChar
StartChar: N
Encoding: 78 78
Width: 722
Flags: MW
HStem: 0 20 709 20<76 177 177 177 558 646 646 646>
VStem: 76 88<0 591> 558 88<133 729>
Fore
646 729 m 1
 646 0 l 1
 541 0 l 1
 164 591 l 1
 164 0 l 1
 76 0 l 1
 76 729 l 1
 177 729 l 1
 558 133 l 1
 558 729 l 1
 646 729 l 1
EndSplineSet
EndChar
StartChar: O
Encoding: 79 79
Width: 778
Flags: MW
HStem: -23 82<312.5 434> 659 82<312 468>
VStem: 38 93<269 449> 649 93<293.5 447>
Fore
389 741 m 0
 603 741 742 588 742 353 c 0
 742 234 695 121 616 54 c 0
 557 4 478 -23 390 -23 c 0
 180 -23 38 131 38 359 c 0
 38 587 180 741 389 741 c 0
389 659 m 0
 235 659 131 539 131 359 c 0
 131 179 235 59 390 59 c 0
 544 59 649 179 649 355 c 0
 649 539 547 659 389 659 c 0
EndSplineSet
EndChar
StartChar: P
Encoding: 80 80
Width: 667
Flags: MW
HStem: 0 20 309 82<184 378 378 413> 647 82<184 378 184 184>
VStem: 91 93<0 309 391 647> 520 97<481.5 559>
Fore
184 309 m 1
 184 0 l 1
 91 0 l 1
 91 729 l 1
 392 729 l 2
 536 729 617 652 617 515 c 0
 617 448 598 401 554 361 c 0
 515 326 470 309 413 309 c 2
 184 309 l 1
184 391 m 1
 378 391 l 2
 467 391 520 439 520 519 c 0
 520 599 467 647 378 647 c 2
 184 647 l 1
 184 391 l 1
EndSplineSet
EndChar
StartChar: Q
Encoding: 81 81
Width: 778
Flags: MW
HStem: -23 82<311.5 411> 659 82<312.5 467.5>
VStem: 38 93<269 449> 649 93<313 449.5>
Fore
733 -1 m 1
 686 -59 l 1
 581 28 l 1
 522 -7 462 -23 390 -23 c 0
 180 -23 38 131 38 359 c 0
 38 587 180 741 390 741 c 0
 600 741 742 587 742 361 c 0
 742 246 708 152 639 76 c 1
 733 -1 l 1
481 205 m 1
 570 132 l 1
 624 193 649 266 649 360 c 0
 649 539 545 659 390 659 c 0
 235 659 131 539 131 359 c 0
 131 179 234 59 389 59 c 0
 433 59 466 67 509 87 c 1
 435 149 l 1
 481 205 l 1
EndSplineSet
EndChar
StartChar: R
Encoding: 82 82
Width: 722
Flags: MW
HStem: 0 20 314 82<186 411 411 426> 647 82<186 411 186 186>
VStem: 93 93<0 314 396 647> 554 97<492.5 543>
Fore
186 314 m 1
 186 0 l 1
 93 0 l 1
 93 729 l 1
 429 729 l 2
 572 729 651 660 651 534 c 0
 651 451 618 400 536 360 c 1
 615 326 634 290 635 170 c 0
 637 73 644 47 679 23 c 1
 679 0 l 1
 566 0 l 1
 553 30 545 74 545 119 c 1
 546 184 l 1
 546 274 509 314 426 314 c 2
 186 314 l 1
186 396 m 1
 411 396 l 2
 510 396 554 435 554 521 c 0
 554 565 541 598 516 619 c 0
 493 639 463 647 411 647 c 2
 186 647 l 1
 186 396 l 1
EndSplineSet
EndChar
StartChar: S
Encoding: 83 83
Width: 667
Flags: MW
HStem: -23 82<302.5 371.5> 663 78<277 384>
VStem: 70 93<512 577> 528 93<171.5 219.5>
Fore
596 515 m 1
 508 515 l 1
 507 610 442 663 326 663 c 0
 228 663 163 614 163 540 c 0
 163 484 195 456 283 432 c 2
 466 383 l 2
 565 356 621 290 621 200 c 0
 621 137 590 72 541 33 c 0
 494 -3 423 -23 336 -23 c 0
 225 -23 141 13 91 81 c 0
 62 121 49 165 48 232 c 1
 136 232 l 1
 135 187 147 152 174 120 c 0
 209 78 263 59 342 59 c 0
 401 59 447 70 476 90 c 0
 507 112 528 152 528 191 c 0
 528 248 486 285 394 309 c 2
 213 357 l 2
 117 382 70 438 70 527 c 0
 70 659 169 741 329 741 c 0
 497 741 595 658 596 515 c 1
EndSplineSet
EndChar
StartChar: T
Encoding: 84 84
Width: 611
Flags: MW
HStem: 0 20 647 82<21 261 354 593 354 354>
VStem: 261 93<0 647>
Fore
354 647 m 1
 354 0 l 1
 261 0 l 1
 261 647 l 1
 21 647 l 1
 21 729 l 1
 593 729 l 1
 593 647 l 1
 354 647 l 1
EndSplineSet
EndChar
StartChar: U
Encoding: 85 85
Width: 722
Flags: MW
HStem: -23 82<337 422.5> 709 20<85 178 178 178 552 645 645 645>
VStem: 85 93<217 729> 552 93<217 729>
Fore
552 729 m 1
 645 729 l 1
 645 217 l 2
 645 71 535 -23 364 -23 c 0
 191 -23 85 69 85 217 c 2
 85 729 l 1
 178 729 l 1
 178 217 l 2
 178 162 195 125 231 97 c 1
 266 72 310 59 364 59 c 0
 481 59 552 119 552 217 c 2
 552 729 l 1
EndSplineSet
EndChar
StartChar: V
Encoding: 86 86
Width: 667
Flags: MW
HStem: 0 20 709 20<30 130 130 130 546 645 645 645>
Fore
392 0 m 5
 292 0 l 5
 30 729 l 5
 130 729 l 5
 344 112 l 5
 546 729 l 5
 645 729 l 5
 392 0 l 5
EndSplineSet
EndChar
StartChar: W
Encoding: 87 87
Width: 944
Flags: MW
HStem: 0 20 709 20<22 126 126 126 425 525 525 525 825 929 929 929>
Fore
744 0 m 1
 642 0 l 1
 474 599 l 1
 311 0 l 1
 209 0 l 1
 22 729 l 1
 126 729 l 1
 263 137 l 1
 425 729 l 1
 525 729 l 1
 691 137 l 1
 825 729 l 1
 929 729 l 1
 744 0 l 1
EndSplineSet
EndChar
StartChar: X
Encoding: 88 88
Width: 667
Flags: MW
HStem: 0 20 709 20<38 151 151 151 526 637 637 637>
Fore
391 374 m 1
 649 0 l 1
 534 0 l 1
 335 304 l 1
 135 0 l 1
 22 0 l 1
 280 374 l 1
 38 729 l 1
 151 729 l 1
 338 443 l 1
 526 729 l 1
 637 729 l 1
 391 374 l 1
EndSplineSet
EndChar
StartChar: Y
Encoding: 89 89
Width: 667
Flags: MW
HStem: 0 20 709 20<13 128 128 128 550 661 661 661>
VStem: 294 93<0 286>
Fore
387 286 m 1
 387 0 l 1
 294 0 l 1
 294 286 l 1
 13 729 l 1
 128 729 l 1
 342 374 l 1
 550 729 l 1
 661 729 l 1
 387 286 l 1
EndSplineSet
EndChar
StartChar: Z
Encoding: 90 90
Width: 611
Flags: MW
HStem: 0 82<145 583> 647 82<56 466>
Fore
581 729 m 1
 581 645 l 1
 145 82 l 1
 583 82 l 1
 583 0 l 1
 28 0 l 1
 28 82 l 1
 466 647 l 1
 56 647 l 1
 56 729 l 1
 581 729 l 1
EndSplineSet
EndChar
StartChar: bracketleft
Encoding: 91 91
Width: 278
Flags: MW
HStem: -212 72<147 250> 657 72<147 250 147 147>
VStem: 64 83<-140 657>
Fore
250 729 m 1
 250 657 l 1
 147 657 l 1
 147 -140 l 1
 250 -140 l 1
 250 -212 l 1
 64 -212 l 1
 64 729 l 1
 250 729 l 1
EndSplineSet
EndChar
StartChar: backslash
Encoding: 92 92
Width: 278
Flags: MW
HStem: -20 20 709 20<-8 47 47 47>
Fore
47 729 m 1
 284 -20 l 1
 229 -20 l 1
 -8 729 l 1
 47 729 l 1
EndSplineSet
EndChar
StartChar: bracketright
Encoding: 93 93
Width: 278
Flags: MW
HStem: -212 72<23 126> 657 72<23 126>
VStem: 126 83<-140 657 657 657>
Fore
23 -212 m 1
 23 -140 l 1
 126 -140 l 1
 126 657 l 1
 23 657 l 1
 23 729 l 1
 209 729 l 1
 209 -212 l 1
 23 -212 l 1
EndSplineSet
EndChar
StartChar: asciicircum
Encoding: 94 94
Width: 469
Flags: W
Fore
197 709 m 1
 270 709 l 1
 425 329 l 1
 356 329 l 1
 234 629 l 1
 113 329 l 1
 44 329 l 1
 197 709 l 1
EndSplineSet
EndChar
StartChar: underscore
Encoding: 95 95
Width: 556
Flags: MW
HStem: -176 50<-22 578>
Fore
578 -126 m 1
 578 -176 l 1
 -22 -176 l 1
 -22 -126 l 1
 578 -126 l 1
EndSplineSet
EndChar
StartChar: grave
Encoding: 96 96
Width: 333
Flags: MW
HStem: 720 20<22 135 135 135>
Fore
135 740 m 1
 231 592 l 1
 171 592 l 1
 22 740 l 1
 135 740 l 1
EndSplineSet
EndChar
StartChar: a
Encoding: 97 97
Width: 556
Flags: MW
HStem: -23 73<199.5 247> 462 77<237 309.5>
VStem: 42 87<107.5 161.5> 389 83<165 259 259 259 362 384 384 396>
Fore
535 49 m 1
 535 -14 l 1
 508 -21 495 -23 478 -23 c 0
 424 -23 398 1 392 54 c 1
 333 0 280 -23 214 -23 c 0
 108 -23 42 37 42 132 c 0
 42 200 73 247 134 272 c 0
 166 285 184 289 302 304 c 0
 368 312 389 327 389 362 c 2
 389 384 l 2
 389 434 347 462 272 462 c 0
 194 462 156 433 149 369 c 1
 65 369 l 1
 67 421 77 451 101 478 c 0
 136 517 199 539 275 539 c 0
 404 539 472 489 472 396 c 2
 472 88 l 2
 472 62 488 47 517 47 c 0
 522 47 526 47 535 49 c 1
389 165 m 2
 389 259 l 1
 361 246 343 242 255 230 c 0
 166 217 129 189 129 134 c 0
 129 81 167 50 232 50 c 0
 281 50 322 66 356 97 c 0
 381 120 389 137 389 165 c 2
EndSplineSet
EndChar
StartChar: b
Encoding: 98 98
Width: 556
Flags: MW
HStem: -23 78<258.5 328.5> 461 78<263 329.5> 709 20<54 137 137 137>
VStem: 54 83<196.5 319.5 453 729> 436 87<195.5 317.5>
Fore
54 729 m 1
 137 729 l 1
 137 453 l 1
 176 512 227 539 299 539 c 0
 437 539 523 434 523 264 c 0
 523 90 433 -23 295 -23 c 0
 222 -23 169 6 129 67 c 1
 129 0 l 1
 54 0 l 1
 54 729 l 1
283 461 m 0
 195 461 137 381 137 258 c 0
 137 135 195 55 283 55 c 0
 374 55 436 136 436 255 c 0
 436 380 376 461 283 461 c 0
EndSplineSet
EndChar
StartChar: c
Encoding: 99 99
Width: 500
Flags: MW
HStem: -23 77<219 300.5> 462 77<217.5 298>
VStem: 31 87<191 318.5>
Fore
471 348 m 1
 387 348 l 1
 377 421 333 462 263 462 c 0
 172 462 118 384 118 253 c 0
 118 129 173 54 265 54 c 0
 336 54 379 96 393 180 c 1
 477 180 l 1
 467 52 388 -23 263 -23 c 0
 121 -23 31 84 31 253 c 0
 31 427 123 539 264 539 c 0
 337 539 400 510 436 461 c 0
 456 432 467 399 471 348 c 1
EndSplineSet
EndChar
StartChar: d
Encoding: 100 100
Width: 556
Flags: MW
HStem: -23 78<220 290> 461 78<219.5 286> 709 20<412 495 495 495>
VStem: 26 87<197 319> 412 83<195.5 318.5 458 729>
Fore
495 729 m 1
 495 0 l 1
 421 0 l 1
 421 69 l 1
 376 4 326 -23 254 -23 c 0
 113 -23 26 86 26 263 c 0
 26 430 115 539 251 539 c 0
 321 539 377 511 412 458 c 1
 412 729 l 1
 495 729 l 1
265 461 m 0
 174 461 113 380 113 258 c 0
 113 136 174 55 266 55 c 0
 354 55 412 135 412 256 c 0
 412 381 355 461 265 461 c 0
EndSplineSet
EndChar
StartChar: e
Encoding: 101 101
Width: 556
Flags: HMW
HStem: -23 77<254.5 314.5> 234 68<129 423> 462 77<237 320>
Fore
513 234 m 1
 127 234 l 1
 128 182 135 152 155 122 c 0
 183 78 228 54 281 54 c 0
 348 54 395 90 418 159 c 1
 502 159 l 1
 481 45 398 -23 278 -23 c 0
 131 -23 40 83 40 255 c 0
 40 427 134 539 280 539 c 0
 378 539 458 487 492 401 c 0
 507 362 513 314 513 234 c 1
129 302 m 1
 423 302 l 1
 424 304 424 306 424 308 c 0
 424 394 361 462 279 462 c 0
 195 462 136 399 129 302 c 1
EndSplineSet
EndChar
StartChar: f
Encoding: 102 102
Width: 278
Flags: MW
HStem: 0 20 456 68<18 88 171 258> 659 73<210 219.5>
VStem: 88 83<0 456 524 606>
Fore
258 524 m 1
 258 456 l 1
 171 456 l 1
 171 0 l 1
 88 0 l 1
 88 456 l 1
 18 456 l 1
 18 524 l 1
 88 524 l 5
 88 613 l 6
 88 688 134 732 211 732 c 4
 228 732 239 731 258 727 c 5
 258 658 l 5
 239 659 236 659 229 659 c 4
 191 659 171 641 171 606 c 6
 171 524 l 5
 258 524 l 1
EndSplineSet
EndChar
StartChar: g
Encoding: 103 103
Width: 556
Flags: MW
HStem: -218 70<239 283.5> -23 77<217.5 278> 462 77<216.5 285.5>
VStem: 29 87<210 321> 412 77<448 524>
Fore
412 524 m 1
 489 524 l 1
 489 86 l 2
 489 -37 474 -103 434 -151 c 0
 400 -193 333 -218 255 -218 c 0
 132 -218 55 -159 46 -60 c 1
 131 -60 l 1
 136 -91 144 -105 163 -120 c 0
 186 -138 220 -148 258 -148 c 0
 309 -148 352 -130 374 -99 c 0
 395 -70 404 -27 404 44 c 2
 404 71 l 1
 357 5 311 -23 245 -23 c 0
 190 -23 134 3 95 47 c 0
 52 97 29 167 29 253 c 0
 29 423 119 539 252 539 c 0
 319 539 370 510 412 448 c 1
 412 524 l 1
261 462 m 0
 172 462 116 384 116 258 c 0
 116 131 171 54 262 54 c 0
 350 54 404 130 404 255 c 0
 404 386 351 462 261 462 c 0
EndSplineSet
EndChar
StartChar: h
Encoding: 104 104
Width: 556
Flags: MW
HStem: 0 20 466 73<284 308.5> 709 20<70 153 153 153>
VStem: 70 83<0 289 452 729> 403 83<0 363 363 381.5>
Fore
70 729 m 1
 153 729 l 1
 153 452 l 1
 202 516 247 539 321 539 c 0
 423 539 486 484 486 396 c 2
 486 0 l 1
 403 0 l 1
 403 363 l 2
 403 400 393 425 369 442 c 0
 349 457 322 466 295 466 c 0
 209 466 153 396 153 289 c 2
 153 0 l 1
 70 0 l 1
 70 729 l 1
EndSplineSet
EndChar
StartChar: i
Encoding: 105 105
Width: 222
Flags: W
HStem: 0 20 624 105<66 150>
VStem: 66 84<624 729> 67 83<0 524>
Fore
150 524 m 1
 150 0 l 1
 67 0 l 1
 67 524 l 1
 150 524 l 1
150 729 m 1
 150 624 l 1
 66 624 l 1
 66 729 l 5
 150 729 l 1
EndSplineSet
EndChar
StartChar: j
Encoding: 106 106
Width: 222
Flags: MW
HStem: -218 73<3.5 27.5> 624 105<70 153>
VStem: 70 83<-76 524 624 729>
Fore
70 524 m 5
 153 524 l 5
 153 -109 l 6
 153 -180 104 -218 10 -218 c 4
 -3 -218 -8 -217 -18 -215 c 5
 -18 -144 l 5
 -1 -145 -1 -145 2 -145 c 4
 53 -145 70 -128 70 -76 c 6
 70 524 l 5
153 729 m 1
 153 624 l 1
 70 624 l 1
 70 729 l 1
 153 729 l 1
EndSplineSet
EndChar
StartChar: k
Encoding: 107 107
Width: 500
Flags: MW
HStem: 0 20 709 20<58 141 141 141>
VStem: 58 83<0 204 302 729>
Fore
141 729 m 1
 141 302 l 1
 363 524 l 1
 470 524 l 1
 288 343 l 1
 502 0 l 1
 399 0 l 1
 222 284 l 1
 141 204 l 1
 141 0 l 1
 58 0 l 1
 58 729 l 1
 141 729 l 1
EndSplineSet
EndChar
StartChar: l
Encoding: 108 108
Width: 222
Flags: MW
HStem: 0 20 709 20<68 152 152 152>
VStem: 68 84<0 729>
Fore
152 729 m 5
 152 0 l 1
 68 0 l 1
 68 729 l 1
 152 729 l 5
EndSplineSet
EndChar
StartChar: m
Encoding: 109 109
Width: 833
Flags: W
HStem: 0 20 466 73<273 308 575 611.5> 504 20<70 147 147 147>
VStem: 70 84<0 329> 70 77<450 524> 374 84<0 329> 678 84<0 361 361 393>
Fore
70 524 m 1
 147 524 l 5
 147 450 l 1
 192 513 238 539 308 539 c 0
 376 539 418 515 449 459 c 1
 498 518 540 539 610 539 c 0
 708 539 762 487 762 393 c 2
 762 0 l 1
 678 0 l 1
 678 361 l 2
 678 427 642 466 581 466 c 0
 513 466 458 405 458 329 c 2
 458 0 l 1
 374 0 l 1
 374 361 l 2
 374 428 339 466 277 466 c 0
 209 466 154 405 154 329 c 2
 154 0 l 1
 70 0 l 1
 70 524 l 1
EndSplineSet
EndChar
StartChar: n
Encoding: 110 110
Width: 556
Flags: W
HStem: 0 20 466 73<282 329> 504 20<70 147 147 147>
VStem: 70 84<0 289> 70 77<436 524> 404 83<0 363 363 394.5>
Fore
70 524 m 1
 147 524 l 1
 147 436 l 1
 193 509 243 539 321 539 c 0
 422 539 487 483 487 396 c 2
 487 0 l 1
 404 0 l 1
 404 363 l 2
 404 426 362 466 296 466 c 0
 210 466 154 396 154 289 c 2
 154 0 l 1
 70 0 l 1
 70 524 l 1
EndSplineSet
EndChar
StartChar: o
Encoding: 111 111
Width: 556
Flags: MW
HStem: -23 77<226.5 319> 462 77<226.5 320>
VStem: 36 87<194.5 321> 423 87<193.5 320>
Fore
272 539 m 0
 423 539 510 435 510 254 c 0
 510 82 420 -23 273 -23 c 0
 124 -23 36 82 36 258 c 0
 36 434 125 539 272 539 c 0
273 462 m 0
 180 462 123 384 123 258 c 0
 123 131 180 54 273 54 c 0
 365 54 423 132 423 255 c 0
 423 385 367 462 273 462 c 0
EndSplineSet
EndChar
StartChar: p
Encoding: 112 112
Width: 556
Flags: W
HStem: -218 20 -23 78<265 329.5> 461 78<262.5 330>
VStem: 54 84<-218 55 196.5 319.5> 54 77<445 524> 54 84 436 87<195.5 317.5>
Fore
54 -218 m 1
 54 524 l 1
 131 524 l 1
 131 445 l 1
 170 507 227 539 298 539 c 0
 437 539 523 429 523 253 c 0
 523 86 434 -23 299 -23 c 0
 231 -23 182 1 138 55 c 1
 138 -218 l 1
 54 -218 l 1
284 461 m 0
 196 461 138 381 138 258 c 0
 138 135 196 55 284 55 c 0
 375 55 436 136 436 255 c 0
 436 380 376 461 284 461 c 0
EndSplineSet
EndChar
StartChar: q
Encoding: 113 113
Width: 556
Flags: MW
HStem: -218 20 -23 78<220 286.5> 461 78<220 288.5>
VStem: 26 87<197 318.5> 412 83<-218 60 60 60 195 318>
Fore
495 -218 m 1
 412 -218 l 1
 412 60 l 1
 373 3 323 -23 250 -23 c 0
 112 -23 26 82 26 252 c 0
 26 426 116 539 254 539 c 0
 323 539 382 509 421 454 c 1
 421 524 l 1
 495 524 l 1
 495 -218 l 1
266 461 m 0
 174 461 113 379 113 258 c 0
 113 136 174 55 266 55 c 0
 354 55 412 135 412 255 c 0
 412 381 355 461 266 461 c 0
EndSplineSet
EndChar
StartChar: r
Encoding: 114 114
Width: 333
Flags: W
HStem: 0 20 504 20<69 146 146 146> 519 20<262 294.5>
VStem: 69 84<0 272> 69 77<429 524>
Fore
69 524 m 1
 146 524 l 1
 146 429 l 1
 194 507 235 539 289 539 c 0
 300 539 307 538 321 536 c 1
 321 451 l 1
 263 450 238 444 212 425 c 0
 172 396 153 347 153 272 c 2
 153 0 l 1
 69 0 l 1
 69 524 l 1
EndSplineSet
EndChar
StartChar: s
Encoding: 115 115
Width: 500
Flags: MW
HStem: -23 77<227.5 286.5> 462 77<211 278.5>
VStem: 47 87<364.5 407> 372 87<111.5 155>
Fore
438 378 m 5
 350 378 l 5
 348 433 312 462 245 462 c 4
 177 462 134 431 134 383 c 4
 134 346 163 324 231 308 c 6
 311 289 l 6
 415 264 459 221 459 143 c 4
 459 42 375 -23 243 -23 c 4
 106 -23 38 35 34 156 c 5
 122 156 l 5
 127 119 133 104 146 89 c 4
 167 67 205 54 250 54 c 4
 323 54 372 87 372 136 c 4
 372 174 349 195 291 209 c 6
 213 228 l 6
 89 258 47 297 47 379 c 4
 47 476 126 539 248 539 c 4
 369 539 437 481 438 378 c 5
EndSplineSet
EndChar
StartChar: t
Encoding: 116 116
Width: 278
Flags: MW
HStem: -23 73 456 68<14 85 168 254>
VStem: 85 83<78.5 97 97 456 524 668>
Fore
254 524 m 1
 254 456 l 1
 168 456 l 1
 168 97 l 2
 168 60 178 50 214 50 c 0
 230 50 243 51 254 54 c 1
 254 -16 l 1
 226 -21 206 -23 186 -23 c 0
 121 -23 85 7 85 60 c 2
 85 456 l 1
 14 456 l 1
 14 524 l 1
 85 524 l 1
 85 668 l 1
 168 668 l 1
 168 524 l 1
 254 524 l 1
EndSplineSet
EndChar
StartChar: u
Encoding: 117 117
Width: 556
Flags: W
HStem: -23 73<223 270.5> 504 20<65 148 148 148 399 482 482 482>
VStem: 65 83<121.5 153 153 524> 399 83<227 524> 407 75<0 73 73 73>
Fore
482 0 m 1
 407 0 l 1
 407 73 l 1
 358 4 309 -23 232 -23 c 0
 130 -23 65 33 65 120 c 2
 65 524 l 1
 148 524 l 1
 148 153 l 2
 148 90 190 50 256 50 c 0
 343 50 399 120 399 227 c 2
 399 524 l 1
 482 524 l 1
 482 0 l 1
EndSplineSet
EndChar
StartChar: v
Encoding: 118 118
Width: 500
Flags: MW
HStem: 0 20 504 20<10 104 104 104 392 486 486 486>
Fore
285 0 m 1
 194 0 l 1
 10 524 l 1
 104 524 l 1
 244 99 l 1
 392 524 l 1
 486 524 l 1
 285 0 l 1
EndSplineSet
EndChar
StartChar: w
Encoding: 119 119
Width: 722
Flags: MW
HStem: 0 20 504 20<6 98 98 98 305 407 407 407 614 708 708 708>
Fore
554 0 m 1
 459 0 l 1
 353 411 l 1
 252 0 l 1
 158 0 l 1
 6 524 l 1
 98 524 l 1
 205 116 l 1
 305 524 l 1
 407 524 l 1
 510 116 l 1
 614 524 l 1
 708 524 l 1
 554 0 l 1
EndSplineSet
EndChar
StartChar: x
Encoding: 120 120
Width: 500
Flags: MW
HStem: 0 20 504 20<27 122 122 122 374 468 468 468>
Fore
292 271 m 1
 473 0 l 1
 376 0 l 1
 245 201 l 1
 112 0 l 1
 17 0 l 1
 202 267 l 1
 27 524 l 1
 122 524 l 1
 248 334 l 1
 374 524 l 5
 468 524 l 1
 292 271 l 1
EndSplineSet
EndChar
StartChar: y
Encoding: 121 121
Width: 500
Flags: MW
HStem: -218 82<99 115.5> 504 20<20 109 109 109 388 478 478 478>
Fore
388 524 m 1
 478 524 l 1
 245 -110 l 1
 229 -152 214 -174 188 -193 c 0
 166 -209 137 -218 110 -218 c 4
 88 -218 71 -214 54 -205 c 1
 54 -130 l 1
 72 -134 86 -136 98 -136 c 0
 133 -136 152 -122 165 -85 c 1
 197 -2 l 1
 20 524 l 1
 109 524 l 1
 243 116 l 1
 388 524 l 1
EndSplineSet
EndChar
StartChar: z
Encoding: 122 122
Width: 500
Flags: MW
HStem: 0 73<132 457> 451 73<52 344>
Fore
443 524 m 1
 443 450 l 1
 132 73 l 1
 457 73 l 1
 457 0 l 1
 31 0 l 1
 31 75 l 1
 344 451 l 1
 52 451 l 1
 52 524 l 1
 443 524 l 1
EndSplineSet
EndChar
StartChar: braceleft
Encoding: 123 123
Width: 334
Flags: MW
HStem: -212 65<261 276> 664 65<236.5 261 261 276>
VStem: 121 77<-81 -80 -80 86 86 101 431 597>
Fore
276 729 m 1
 276 664 l 1
 261 664 l 2
 212 664 198 649 198 597 c 2
 198 416 l 2
 198 324 177 283 116 259 c 1
 172 233 198 184 198 101 c 2
 198 -80 l 2
 198 -132 212 -147 261 -147 c 2
 276 -147 l 1
 276 -212 l 1
 230 -212 l 2
 161 -212 121 -164 121 -81 c 2
 121 86 l 2
 121 178 102 212 43 224 c 1
 43 293 l 1
 102 305 121 338 121 431 c 2
 121 598 l 2
 121 681 161 729 230 729 c 2
 276 729 l 1
EndSplineSet
EndChar
StartChar: bar
Encoding: 124 124
Width: 260
Flags: MW
HStem: 709 20<100 160 160 160>
VStem: 100 60<-212 729>
Fore
100 729 m 1
 160 729 l 1
 160 -212 l 1
 100 -212 l 1
 100 729 l 1
EndSplineSet
EndChar
StartChar: braceright
Encoding: 125 125
Width: 334
Flags: MW
HStem: -212 65<29 45 45 70> 664 65<29 45>
VStem: 109 77<-80 86 416 431 431 597 597 598>
Fore
29 -212 m 1
 29 -147 l 1
 45 -147 l 2
 95 -147 109 -132 109 -80 c 2
 109 101 l 2
 109 184 135 233 191 258 c 1
 135 284 109 334 109 416 c 2
 109 597 l 2
 109 649 95 664 45 664 c 2
 29 664 l 1
 29 729 l 1
 76 729 l 2
 146 729 186 681 186 598 c 2
 186 431 l 2
 186 339 205 305 262 293 c 1
 262 224 l 1
 205 212 186 178 186 86 c 2
 186 -81 l 2
 186 -164 146 -212 76 -212 c 2
 29 -212 l 1
EndSplineSet
EndChar
StartChar: asciitilde
Encoding: 126 126
Width: 584
Flags: MW
HStem: 268 68<397 422.5> 371 67<172 186>
Fore
455 411 m 1
 508 411 l 1
 508 395 l 2
 508 318 467 268 403 268 c 0
 378 268 348 278 322 294 c 2
 224 357 l 2
 214 363 191 371 181 371 c 0
 163 371 146 358 136 336 c 0
 132 326 130 316 128 293 c 1
 75 293 l 1
 80 387 118 438 183 438 c 0
 201 438 220 432 237 422 c 2
 354 353 l 2
 374 341 390 336 404 336 c 0
 441 336 456 358 455 411 c 1
EndSplineSet
EndChar
StartChar: exclamdown
Encoding: 161 161
Width: 333
Flags: W
HStem: 420 104<121 205>
VStem: 121 84<420 524> 122 83<-205 133>
Fore
122 -205 m 1
 122 133 l 1
 144 356 l 1
 183 356 l 1
 205 133 l 1
 205 -205 l 1
 122 -205 l 1
121 420 m 1
 121 524 l 1
 205 524 l 1
 205 420 l 1
 121 420 l 1
EndSplineSet
EndChar
StartChar: cent
Encoding: 162 162
Width: 556
Flags: MW
VStem: 52 87<196.5 313.5> 270 42<-120 -23 55 461 461 461 539 628>
Fore
312 462 m 1
 312 53 l 1
 376 60 414 101 426 180 c 1
 510 180 l 1
 503 60 428 -17 312 -23 c 1
 312 -120 l 1
 270 -120 l 1
 270 -22 l 1
 135 -10 52 94 52 253 c 0
 52 416 135 524 270 538 c 1
 270 628 l 1
 312 628 l 1
 312 539 l 1
 429 531 498 462 504 348 c 1
 420 348 l 1
 413 415 373 457 312 462 c 1
270 55 m 1
 270 461 l 1
 184 445 139 374 139 253 c 0
 139 140 187 68 270 55 c 1
EndSplineSet
EndChar
StartChar: sterling
Encoding: 163 163
Width: 556
Flags: W
HStem: -23 92<401 423> -14 20 23 77 321 55<26 107 230 366 230 230> 651 78<245.5 331.5>
VStem: 54 93<504.5 561.5> 160 85<224 255.5>
Fore
366 376 m 1
 366 321 l 1
 230 321 l 1
 240 292 245 269 245 250 c 0
 245 198 217 152 127 61 c 1
 166 87 206 100 249 100 c 0
 275 100 293 97 331 85 c 0
 372 73 392 69 410 69 c 0
 436 69 464 79 493 99 c 1
 535 33 l 1
 495 -6 456 -23 404 -23 c 0
 367 -23 341 -17 258 12 c 0
 237 19 213 23 192 23 c 0
 157 23 121 11 83 -14 c 1
 35 52 l 1
 127 131 160 182 160 243 c 0
 160 268 151 296 136 321 c 1
 26 321 l 1
 26 376 l 1
 107 376 l 1
 61 452 54 471 54 515 c 0
 54 636 158 729 292 729 c 0
 377 729 448 692 484 630 c 0
 503 597 511 558 512 497 c 1
 424 497 l 1
 421 600 375 651 288 651 c 0
 203 651 147 600 147 523 c 0
 147 486 153 469 190 404 c 1
 193 401 200 388 206 376 c 1
 366 376 l 1
EndSplineSet
EndChar
StartChar: currency
Encoding: 164 164
Width: 556
Flags: MW
HStem: 159 77<257.5 293.5> 445 77<257 293.5>
VStem: 89 79<323 359> 381 79<324 357>
Fore
485 190 m 1
 427 136 l 1
 374 189 l 1
 347 169 313 159 274 159 c 0
 241 159 206 168 180 184 c 1
 129 133 l 1
 73 190 l 1
 121 239 l 1
 101 266 89 305 89 341 c 0
 89 377 101 415 121 443 c 1
 67 498 l 1
 123 551 l 1
 178 496 l 1
 207 513 239 522 275 522 c 0
 312 522 347 512 373 494 c 1
 432 547 l 1
 489 489 l 1
 434 434 l 1
 450 409 460 373 460 341 c 0
 460 307 450 275 431 244 c 1
 485 190 l 1
274 445 m 0
 216 445 168 398 168 340 c 0
 168 283 216 236 275 236 c 0
 332 236 381 283 381 339 c 0
 381 398 334 445 274 445 c 0
EndSplineSet
EndChar
StartChar: yen
Encoding: 165 165
Width: 556
Flags: MW
HStem: 0 20 175 51<65 237 325 495> 303 51<65 216 344 495>
VStem: 237 88<0 175 226 303>
Fore
495 354 m 1
 495 303 l 1
 325 303 l 1
 325 226 l 1
 495 226 l 1
 495 175 l 1
 325 175 l 1
 325 0 l 1
 237 0 l 1
 237 175 l 1
 65 175 l 1
 65 226 l 1
 237 226 l 1
 237 303 l 1
 65 303 l 1
 65 354 l 1
 216 354 l 1
 11 709 l 1
 96 709 l 1
 281 387 l 1
 460 709 l 1
 545 709 l 1
 344 354 l 1
 495 354 l 1
EndSplineSet
EndChar
StartChar: brokenbar
Encoding: 166 166
Width: 260
Flags: MW
HStem: 709 20<100 160 160 160>
VStem: 100 60<-212 189 328 729>
Fore
100 729 m 1
 160 729 l 1
 160 328 l 1
 100 328 l 1
 100 729 l 1
100 189 m 1
 160 189 l 1
 160 -212 l 1
 100 -212 l 1
 100 189 l 1
EndSplineSet
EndChar
StartChar: section
Encoding: 167 167
Width: 556
Flags: W
HStem: -213 77<246 292.5> 652 77<257.5 312.5>
VStem: 43 79<308 345> 104 90<552.5 591.5> 360 90<-75.5 -32.5> 380 84<524 532 532 533 533 550 550 552> 427 79<191 228.5>
Fore
464 524 m 1
 380 524 l 1
 380 533 l 1
 380 550 l 2
 380 612 342 652 283 652 c 0
 232 652 194 616 194 567 c 0
 194 538 209 518 251 490 c 2
 397 396 l 2
 478 344 506 301 506 229 c 0
 506 153 469 100 397 73 c 1
 437 28 450 -2 450 -45 c 0
 450 -141 370 -213 263 -213 c 0
 179 -213 112 -170 88 -100 c 0
 79 -73 77 -61 77 -14 c 1
 162 -14 l 1
 162 -53 166 -73 180 -92 c 0
 199 -121 228 -136 264 -136 c 0
 321 -136 360 -101 360 -50 c 0
 360 -15 344 11 305 38 c 2
 135 155 l 2
 70 200 43 247 43 312 c 0
 43 378 74 423 148 462 c 1
 117 498 104 526 104 564 c 0
 104 656 185 729 289 729 c 0
 393 729 464 658 464 552 c 2
 464 532 l 1
 464 524 l 1
188 229 m 2
 354 106 l 1
 401 131 427 168 427 208 c 0
 427 249 403 286 354 320 c 2
 193 429 l 1
 141 395 122 368 122 328 c 0
 122 288 135 268 188 229 c 2
EndSplineSet
EndChar
StartChar: dieresis
Encoding: 168 168
Width: 333
Flags: MW
HStem: 612 103<30 134 192 296>
VStem: 30 104<612 715> 192 104<612 715>
Fore
134 715 m 1
 134 612 l 1
 30 612 l 1
 30 715 l 1
 134 715 l 1
296 715 m 1
 296 612 l 1
 192 612 l 1
 192 715 l 1
 296 715 l 1
EndSplineSet
EndChar
StartChar: copyright
Encoding: 169 169
Width: 737
Flags: MW
HStem: -22 62<280.5 454> 126 62<359 403> 530 62<337 401.5> 680 62<282.5 455.5>
VStem: -13 68<273 448> 181 69<332.5 410.5> 683 68<271.5 448.5>
Fore
544 437 m 1
 473 437 l 1
 456 503 428 530 375 530 c 0
 299 530 250 463 250 358 c 0
 250 307 263 263 286 234 c 0
 307 206 343 188 375 188 c 0
 431 188 468 231 481 312 c 1
 552 312 l 1
 540 252 530 224 511 196 c 0
 478 149 432 126 375 126 c 0
 260 126 181 221 181 357 c 0
 181 497 260 592 378 592 c 0
 467 592 520 543 544 437 c 1
369 742 m 0
 580 742 751 571 751 361 c 0
 751 147 580 -22 364 -22 c 0
 159 -22 -13 152 -13 360 c 0
 -13 571 158 742 369 742 c 0
369 680 m 0
 196 680 55 536 55 360 c 0
 55 186 196 40 365 40 c 0
 543 40 683 182 683 361 c 0
 683 536 542 680 369 680 c 0
EndSplineSet
EndChar
StartChar: ordfeminine
Encoding: 170 170
Width: 370
Flags: W
HStem: 303 51<43 320> 399 47 399 52<134 160.5> 399 47 399 52 690 52<153.5 197.5>
VStem: 37 58<483 514> 243 57<517 568 568 568 633 646 646 648>
Fore
320 354 m 1
 320 303 l 1
 43 303 l 1
 43 354 l 1
 320 354 l 1
333 449 m 1
 333 405 l 1
 320 400 313 399 301 399 c 0
 268 399 252 411 246 442 c 1
 213 413 180 399 141 399 c 0
 77 399 37 436 37 495 c 0
 37 537 57 566 94 582 c 0
 111 589 152 597 194 600 c 0
 232 603 243 611 243 633 c 2
 243 646 l 2
 243 674 219 690 176 690 c 0
 131 690 115 677 108 634 c 1
 49 634 l 1
 51 705 96 742 178 742 c 0
 259 742 300 711 300 648 c 2
 300 469 l 2
 300 454 308 446 323 446 c 0
 326 446 329 447 333 449 c 1
243 517 m 2
 243 568 l 1
 229 562 216 560 167 552 c 0
 115 545 95 530 95 498 c 0
 95 468 116 451 152 451 c 0
 201 451 243 482 243 517 c 2
EndSplineSet
EndChar
StartChar: guillemotleft
Encoding: 171 171
Width: 556
Flags: W
Fore
98 227 m 1
 98 316 l 1
 250 438 l 1
 250 355 l 1
 144 272 l 1
 250 189 l 1
 250 106 l 1
 98 227 l 1
303 227 m 1
 303 316 l 1
 455 438 l 1
 455 355 l 1
 349 272 l 1
 455 189 l 1
 455 106 l 1
 303 227 l 1
EndSplineSet
EndChar
StartChar: logicalnot
Encoding: 172 172
Width: 584
Flags: MW
HStem: 305 70<40 474>
VStem: 474 70<86 305 305 305>
Fore
40 375 m 1
 544 375 l 1
 544 86 l 1
 474 86 l 1
 474 305 l 1
 40 305 l 1
 40 375 l 1
EndSplineSet
EndChar
StartChar: softhyphen
Encoding: 173 173
Width: 333
Flags: W
HStem: 240 72<47 283>
VStem: 46 238<241 311>
Fore
284 312 m 1
 284 240 l 1
 46 240 l 1
 46 312 l 1
 284 312 l 1
EndSplineSet
MinimumDistance: x0,-1 
EndChar
StartChar: registered
Encoding: 174 174
Width: 737
Flags: MW
HStem: -22 62<280.5 454> 325 63<272 401 401 406> 522 63<272 401 272 272> 680 62<282.5 455.5>
VStem: -13 68<273 448> 202 70<140 325 388 522> 476 73<436 478.5> 683 68<271.5 448.5>
Fore
272 325 m 1
 272 140 l 1
 202 140 l 1
 202 585 l 1
 408 585 l 2
 503 585 549 544 549 459 c 0
 549 413 536 390 495 360 c 1
 532 336 539 319 540 248 c 0
 541 190 545 178 563 165 c 1
 563 140 l 1
 484 140 l 1
 475 161 469 189 469 217 c 1
 470 257 l 1
 470 305 451 325 406 325 c 2
 272 325 l 1
272 388 m 1
 401 388 l 2
 453 388 476 409 476 455 c 0
 476 502 454 522 401 522 c 2
 272 522 l 1
 272 388 l 1
369 742 m 0
 580 742 751 571 751 361 c 0
 751 147 580 -22 364 -22 c 0
 159 -22 -13 152 -13 360 c 0
 -13 571 158 742 369 742 c 0
369 680 m 0
 196 680 55 536 55 360 c 0
 55 186 196 40 365 40 c 0
 543 40 683 182 683 361 c 0
 683 536 542 680 369 680 c 0
EndSplineSet
EndChar
StartChar: macron
Encoding: 175 175
Width: 333
Flags: MW
HStem: 631 70<28 302>
Fore
302 701 m 1
 302 631 l 1
 28 631 l 1
 28 701 l 1
 302 701 l 1
EndSplineSet
EndChar
StartChar: degree
Encoding: 176 176
Width: 606
Flags: MW
HStem: 383 57<276 328> 629 57<277 329>
VStem: 151 57<509 560.5> 397 57<508.5 561>
Fore
303 686 m 0
 386 686 454 618 454 535 c 0
 454 450 386 383 301 383 c 0
 219 383 151 452 151 535 c 0
 151 618 219 686 303 686 c 0
303 629 m 0
 251 629 208 586 208 535 c 0
 208 483 251 440 301 440 c 0
 355 440 397 482 397 535 c 0
 397 587 355 629 303 629 c 0
EndSplineSet
EndChar
StartChar: plusminus
Encoding: 177 177
Width: 584
Flags: MW
HStem: -11 70<50 534> 346 70<50 257 327 534>
VStem: 257 70<139 346 416 623>
Fore
534 416 m 1
 534 346 l 1
 327 346 l 1
 327 139 l 1
 257 139 l 1
 257 346 l 1
 50 346 l 1
 50 416 l 1
 257 416 l 1
 257 623 l 1
 327 623 l 1
 327 416 l 1
 534 416 l 1
534 59 m 1
 534 -11 l 1
 50 -11 l 1
 50 59 l 1
 534 59 l 1
EndSplineSet
EndChar
StartChar: twosuperior
Encoding: 178 178
Width: 351
Flags: MW
HStem: 284 58<94 323> 656 53<162 202>
VStem: 263 63<565.5 602.5>
Fore
323 342 m 1
 323 284 l 1
 19 284 l 1
 24 381 50 420 146 471 c 2
 204 502 l 2
 243 523 263 550 263 581 c 0
 263 624 226 656 178 656 c 0
 146 656 118 641 104 617 c 0
 96 604 93 588 91 557 c 1
 29 557 l 1
 32 660 81 709 180 709 c 0
 266 709 326 657 326 583 c 0
 326 530 293 485 230 454 c 2
 167 422 l 2
 124 399 106 380 94 342 c 1
 323 342 l 1
EndSplineSet
EndChar
StartChar: threesuperior
Encoding: 179 179
Width: 351
Flags: W
HStem: 270 53<139 197> 656 53<152.5 192.5>
VStem: 245 63<569.5 609> 259 63<378.5 422>
Fore
135 476 m 1
 135 527 l 1
 221 527 245 541 245 588 c 0
 245 630 216 656 169 656 c 0
 136 656 109 643 97 621 c 0
 90 608 88 595 88 567 c 1
 25 567 l 1
 27 661 76 709 169 709 c 0
 255 709 308 663 308 589 c 0
 308 550 288 521 251 504 c 1
 299 488 322 455 322 404 c 0
 322 323 261 270 167 270 c 0
 71 270 16 322 16 412 c 1
 78 412 l 1
 81 350 109 323 169 323 c 0
 225 323 259 353 259 404 c 0
 259 440 236 468 201 474 c 0
 186 476 170 476 135 476 c 1
EndSplineSet
EndChar
StartChar: acute
Encoding: 180 180
Width: 333
Flags: MW
HStem: 720 20<188 301 301 301>
Fore
188 740 m 1
 301 740 l 1
 152 592 l 1
 92 592 l 1
 188 740 l 1
EndSplineSet
EndChar
StartChar: mu
Encoding: 181 181
Width: 556
Flags: MW
HStem: -220 20 -23 73<222.5 272> 504 20<65 148 148 148 398 481 481 481>
VStem: 65 83<-220 3 121.5 153 153 524> 398 83<227 524>
Fore
544 49 m 1
 544 -14 l 1
 518 -21 505 -23 487 -23 c 0
 430 -23 403 3 401 60 c 1
 362 5 306 -23 238 -23 c 0
 202 -23 173 -15 148 3 c 1
 148 -220 l 1
 65 -220 l 1
 65 524 l 1
 148 524 l 1
 148 153 l 2
 148 90 190 50 255 50 c 0
 342 50 398 120 398 227 c 2
 398 524 l 1
 481 524 l 1
 481 88 l 2
 481 61 497 47 526 47 c 0
 530 47 534 47 544 49 c 1
EndSplineSet
EndChar
StartChar: paragraph
Encoding: 182 182
Width: 537
Flags: MW
HStem: 665 64<319 401 319 319 465 522 465 465>
VStem: 255 64<-177 259 259 259> 401 64<-177 665>
Fore
522 729 m 1
 522 665 l 1
 465 665 l 1
 465 -177 l 1
 401 -177 l 1
 401 665 l 1
 319 665 l 1
 319 -177 l 1
 255 -177 l 1
 255 259 l 1
 200 262 165 274 130 303 c 0
 78 346 48 415 48 489 c 0
 48 624 146 729 272 729 c 2
 522 729 l 1
EndSplineSet
EndChar
StartChar: periodcentered
Encoding: 183 183
Width: 278
Flags: MW
HStem: 302 125<87 211>
VStem: 87 124<302 427>
Fore
211 427 m 1
 211 302 l 1
 87 302 l 1
 87 427 l 1
 211 427 l 1
EndSplineSet
EndChar
StartChar: cedilla
Encoding: 184 184
Width: 333
Flags: MW
HStem: -214 41<145 173.5> -91 91<165 180.5>
VStem: 212 75<-141 -116.5>
Fore
165 0 m 1
 203 0 l 1
 180 -56 l 1
 193 -54 200 -54 208 -54 c 0
 258 -54 287 -78 287 -121 c 0
 287 -178 240 -214 164 -214 c 0
 125 -214 101 -207 39 -180 c 1
 60 -140 l 1
 69 -144 l 2
 115 -167 132 -173 158 -173 c 0
 189 -173 212 -154 212 -128 c 0
 212 -105 195 -91 166 -91 c 0
 154 -91 147 -93 135 -99 c 1
 123 -92 l 1
 165 0 l 1
EndSplineSet
EndChar
StartChar: onesuperior
Encoding: 185 185
Width: 351
Flags: MW
VStem: 160 62<284 580 580 580>
Fore
160 580 m 1
 61 580 l 1
 61 626 l 1
 76 627 l 2
 148 634 162 645 179 709 c 1
 222 709 l 1
 222 284 l 1
 160 284 l 1
 160 580 l 1
EndSplineSet
EndChar
StartChar: ordmasculine
Encoding: 186 186
Width: 365
Flags: W
HStem: 303 51<51 314> 399 52<156 208> 690 52<156 208.5>
VStem: 40 58<533.5 608> 51 263<303 354> 266 58<532.5 607>
Fore
314 354 m 1
 314 303 l 1
 51 303 l 1
 51 354 l 1
 314 354 l 1
182 742 m 0
 273 742 324 680 324 568 c 0
 324 462 271 399 182 399 c 0
 92 399 40 462 40 571 c 0
 40 679 92 742 182 742 c 0
182 690 m 0
 130 690 98 645 98 571 c 0
 98 496 130 451 182 451 c 0
 234 451 266 496 266 569 c 0
 266 645 235 690 182 690 c 0
EndSplineSet
EndChar
StartChar: guillemotright
Encoding: 187 187
Width: 556
Flags: W
Fore
252 317 m 1
 252 228 l 1
 98 106 l 1
 98 189 l 1
 206 272 l 1
 98 355 l 1
 98 438 l 1
 252 317 l 1
451 317 m 1
 451 228 l 1
 297 106 l 1
 297 189 l 1
 405 272 l 1
 297 355 l 1
 297 438 l 1
 451 317 l 1
EndSplineSet
EndChar
StartChar: onequarter
Encoding: 188 188
Width: 869
Flags: MW
HStem: -20 20 100 53<591 720 782 849>
VStem: 160 62<284 580 580 580> 720 62<0 100 153 323 323 323>
Fore
160 580 m 1
 61 580 l 1
 61 626 l 1
 76 627 l 2
 148 634 162 645 179 709 c 1
 222 709 l 1
 222 284 l 1
 160 284 l 1
 160 580 l 1
643 709 m 1
 701 709 l 1
 249 -20 l 1
 191 -20 l 1
 643 709 l 1
720 100 m 1
 532 100 l 1
 532 159 l 1
 736 425 l 1
 782 425 l 1
 782 153 l 1
 849 153 l 1
 849 100 l 1
 782 100 l 1
 782 0 l 1
 720 0 l 1
 720 100 l 1
720 153 m 1
 720 323 l 1
 591 153 l 1
 720 153 l 1
EndSplineSet
EndChar
StartChar: onehalf
Encoding: 189 189
Width: 869
Flags: MW
HStem: -20 20 0 58<612 841> 372 53<680 720>
VStem: 160 62<284 580 580 580> 781 63<281.5 318.5>
Fore
160 580 m 1
 61 580 l 1
 61 626 l 1
 76 627 l 2
 148 634 162 645 179 709 c 1
 222 709 l 1
 222 284 l 1
 160 284 l 1
 160 580 l 1
619 709 m 1
 677 709 l 1
 225 -20 l 1
 167 -20 l 1
 619 709 l 1
841 58 m 1
 841 0 l 1
 537 0 l 1
 542 97 568 136 664 187 c 2
 722 218 l 2
 761 239 781 266 781 297 c 0
 781 340 744 372 696 372 c 0
 664 372 636 357 622 333 c 0
 614 320 611 304 609 273 c 1
 547 273 l 1
 550 376 599 425 698 425 c 0
 784 425 844 373 844 299 c 0
 844 246 811 201 748 170 c 2
 685 138 l 2
 642 115 624 96 612 58 c 1
 841 58 l 1
EndSplineSet
EndChar
StartChar: threequarters
Encoding: 190 190
Width: 869
Flags: W
HStem: -20 20 100 53<591 720 782 849> 270 53<139 197> 656 53<152.5 192.5>
VStem: 245 63<569.5 609> 259 63<378.5 422> 720 62<0 100 153 323 323 323>
Fore
135 476 m 1
 135 527 l 1
 221 527 245 541 245 588 c 0
 245 630 216 656 169 656 c 0
 136 656 109 643 97 621 c 0
 90 608 88 595 88 567 c 1
 25 567 l 1
 27 661 76 709 169 709 c 0
 255 709 308 663 308 589 c 0
 308 550 288 521 251 504 c 1
 299 488 322 455 322 404 c 0
 322 323 261 270 167 270 c 0
 71 270 16 322 16 412 c 1
 78 412 l 1
 81 350 109 323 169 323 c 0
 225 323 259 353 259 404 c 0
 259 440 236 468 201 474 c 0
 186 476 170 476 135 476 c 1
653 709 m 1
 711 709 l 1
 259 -20 l 1
 201 -20 l 1
 653 709 l 1
720 100 m 1
 532 100 l 1
 532 159 l 1
 736 425 l 1
 782 425 l 1
 782 153 l 1
 849 153 l 1
 849 100 l 1
 782 100 l 1
 782 0 l 1
 720 0 l 1
 720 100 l 1
720 153 m 1
 720 323 l 1
 591 153 l 1
 720 153 l 1
EndSplineSet
EndChar
StartChar: questiondown
Encoding: 191 191
Width: 611
Flags: MW
HStem: -217 78<275.5 340.5> 420 104<275 365>
VStem: 95 90<-59 -2> 275 90<278 325 420 524>
Fore
275 325 m 1
 365 325 l 1
 365 270 l 2
 365 234 358 211 337 183 c 0
 319 160 319 160 260 107 c 0
 207 60 185 21 185 -25 c 0
 185 -93 237 -139 314 -139 c 0
 367 -139 407 -118 426 -81 c 0
 438 -57 443 -29 443 17 c 1
 528 17 l 1
 528 -137 453 -217 309 -217 c 0
 178 -217 95 -142 95 -25 c 0
 95 42 120 86 195 154 c 0
 265 217 275 233 275 278 c 2
 275 325 l 1
275 420 m 1
 275 524 l 1
 365 524 l 1
 365 420 l 1
 275 420 l 1
EndSplineSet
EndChar
StartChar: Agrave
Encoding: 192 192
Width: 667
Flags: MW
HStem: 0 20 219 78<216 448> 709 20<277 397 397 397>
Fore
474 219 m 1
 193 219 l 1
 116 0 l 1
 17 0 l 1
 277 729 l 1
 397 729 l 1
 653 0 l 1
 549 0 l 1
 474 219 l 1
448 297 m 1
 336 629 l 1
 216 297 l 1
 448 297 l 1
304 939 m 1
 400 791 l 1
 340 791 l 1
 191 939 l 1
 304 939 l 1
EndSplineSet
EndChar
StartChar: Aacute
Encoding: 193 193
Width: 667
Flags: MW
HStem: 0 20 219 78<216 448> 709 20<277 397 397 397>
Fore
474 219 m 1
 193 219 l 1
 116 0 l 1
 17 0 l 1
 277 729 l 1
 397 729 l 1
 653 0 l 1
 549 0 l 1
 474 219 l 1
448 297 m 1
 336 629 l 1
 216 297 l 1
 448 297 l 1
370 939 m 1
 483 939 l 1
 334 791 l 1
 274 791 l 1
 370 939 l 1
EndSplineSet
EndChar
StartChar: Acircumflex
Encoding: 194 194
Width: 667
Flags: MW
HStem: 0 20 219 78<216 448> 709 20<277 397 397 397>
Fore
474 219 m 1
 193 219 l 1
 116 0 l 1
 17 0 l 1
 277 729 l 1
 397 729 l 1
 653 0 l 1
 549 0 l 1
 474 219 l 1
448 297 m 1
 336 629 l 1
 216 297 l 1
 448 297 l 1
288 940 m 1
 383 940 l 1
 479 790 l 1
 416 790 l 1
 335 886 l 1
 256 790 l 1
 192 790 l 1
 288 940 l 1
EndSplineSet
EndChar
StartChar: Atilde
Encoding: 195 195
Width: 667
Flags: W
HStem: 0 20 219 78<216 448> 709 20<277 397 397 397> 812 67<393.5 406> 850 66<261.5 274.5>
Fore
474 219 m 1
 193 219 l 1
 116 0 l 1
 17 0 l 1
 277 729 l 1
 397 729 l 1
 653 0 l 1
 549 0 l 1
 474 219 l 1
448 297 m 1
 336 629 l 1
 216 297 l 1
 448 297 l 1
434 916 m 1
 492 916 l 1
 482 847 452 812 403 812 c 0
 384 812 372 816 318 837 c 0
 294 846 280 850 269 850 c 0
 254 850 242 836 236 813 c 1
 178 813 l 1
 189 879 220 916 264 916 c 0
 285 916 292 914 334 897 c 0
 358 886 385 879 397 879 c 0
 415 879 426 891 434 916 c 1
EndSplineSet
EndChar
StartChar: Adieresis
Encoding: 196 196
Width: 667
Flags: W
HStem: 0 20 219 78<216 448> 709 20<277 397 397 397> 811 103<202 306 364 468>
VStem: 17 104 179 104
Fore
474 219 m 1
 193 219 l 1
 116 0 l 1
 17 0 l 1
 277 729 l 1
 397 729 l 1
 653 0 l 1
 549 0 l 1
 474 219 l 1
448 297 m 1
 336 629 l 1
 216 297 l 1
 448 297 l 1
306 914 m 1
 306 811 l 1
 202 811 l 1
 202 914 l 1
 306 914 l 1
468 914 m 1
 468 811 l 1
 364 811 l 1
 364 914 l 1
 468 914 l 1
EndSplineSet
EndChar
StartChar: Aring
Encoding: 197 197
Width: 667
Flags: W
HStem: 0 20 219 78<216 448> 709 20<277 397 397 397> 778 44<323 347> 909 44<323 347.5>
VStem: 17 44 149 44
Fore
474 219 m 1
 193 219 l 1
 116 0 l 1
 17 0 l 1
 277 729 l 1
 397 729 l 1
 653 0 l 1
 549 0 l 1
 474 219 l 1
448 297 m 1
 336 629 l 1
 216 297 l 1
 448 297 l 1
335 953 m 0
 384 953 423 914 423 865 c 0
 423 817 383 778 335 778 c 0
 287 778 247 818 247 866 c 0
 247 913 287 953 335 953 c 0
335 909 m 0
 311 909 291 889 291 866 c 0
 291 842 311 822 335 822 c 0
 359 822 379 842 379 865 c 0
 379 890 360 909 335 909 c 0
EndSplineSet
EndChar
StartChar: AE
Encoding: 198 198
Width: 1000
Flags: MW
HStem: 0 82<561 950> 214 82<230 468> 332 82<561 913> 647 82<368 468 368 368 561 932 561 561>
VStem: 468 93<82 214 214 214 296 332 414 647>
Fore
468 214 m 1
 199 214 l 1
 114 0 l 1
 11 0 l 1
 310 729 l 1
 932 729 l 1
 932 647 l 1
 561 647 l 1
 561 414 l 1
 913 414 l 1
 913 332 l 1
 561 332 l 1
 561 82 l 1
 950 82 l 1
 950 0 l 1
 468 0 l 1
 468 214 l 1
468 296 m 1
 468 647 l 1
 368 647 l 1
 230 296 l 1
 468 296 l 1
EndSplineSet
EndChar
StartChar: Ccedilla
Encoding: 199 199
Width: 722
Flags: MW
HStem: -214 41<331.5 359.5> -91 149<346 366.5> 659 82<332 400>
VStem: 48 93<285 414.5> 398 75<-141 -116.5>
Fore
379 -23 m 1
 366 -56 l 1
 379 -54 386 -54 394 -54 c 0
 444 -54 473 -78 473 -121 c 0
 473 -178 426 -214 350 -214 c 0
 312 -214 286 -207 225 -180 c 1
 246 -140 l 1
 255 -144 l 2
 300 -167 319 -173 344 -173 c 0
 375 -173 398 -154 398 -128 c 0
 398 -105 381 -91 352 -91 c 0
 340 -91 333 -93 321 -99 c 1
 310 -92 l 1
 341 -23 l 1
 265 -12 235 -1 192 29 c 0
 101 94 48 214 48 356 c 0
 48 473 84 578 150 650 c 0
 204 710 283 741 381 741 c 0
 541 741 633 663 662 503 c 1
 567 503 l 1
 556 557 541 588 514 613 c 0
 484 641 429 659 371 659 c 0
 229 659 141 544 141 357 c 0
 141 174 233 58 378 58 c 0
 456 58 518 92 548 152 c 0
 563 182 573 216 581 266 c 1
 677 266 l 1
 655 75 555 -23 379 -23 c 1
EndSplineSet
EndChar
StartChar: Egrave
Encoding: 200 200
Width: 667
Flags: MW
HStem: 0 82<183 613> 332 82<183 580> 647 82<183 595 183 183>
VStem: 90 93<82 332 414 647>
Fore
183 332 m 1
 183 82 l 1
 613 82 l 1
 613 0 l 1
 90 0 l 1
 90 729 l 1
 595 729 l 1
 595 647 l 1
 183 647 l 1
 183 414 l 1
 580 414 l 1
 580 332 l 1
 183 332 l 1
320 939 m 1
 416 791 l 1
 356 791 l 1
 207 939 l 1
 320 939 l 1
EndSplineSet
EndChar
StartChar: Eacute
Encoding: 201 201
Width: 667
Flags: MW
HStem: 0 82<183 613> 332 82<183 580> 647 82<183 595 183 183>
VStem: 90 93<82 332 414 647>
Fore
183 332 m 1
 183 82 l 1
 613 82 l 1
 613 0 l 1
 90 0 l 1
 90 729 l 1
 595 729 l 1
 595 647 l 1
 183 647 l 1
 183 414 l 1
 580 414 l 1
 580 332 l 1
 183 332 l 1
366 939 m 1
 479 939 l 1
 330 791 l 1
 270 791 l 1
 366 939 l 1
EndSplineSet
EndChar
StartChar: Ecircumflex
Encoding: 202 202
Width: 667
Flags: MW
HStem: 0 82<183 613> 332 82<183 580> 647 82<183 595 183 183>
VStem: 90 93<82 332 414 647>
Fore
183 332 m 1
 183 82 l 1
 613 82 l 1
 613 0 l 1
 90 0 l 1
 90 729 l 1
 595 729 l 1
 595 647 l 1
 183 647 l 1
 183 414 l 1
 580 414 l 1
 580 332 l 1
 183 332 l 1
297 940 m 1
 392 940 l 1
 488 790 l 1
 425 790 l 1
 344 886 l 1
 265 790 l 1
 201 790 l 1
 297 940 l 1
EndSplineSet
EndChar
StartChar: Edieresis
Encoding: 203 203
Width: 667
Flags: W
HStem: 0 82<183 613> 332 82<183 580> 647 82<183 595 183 183> 811 103<211 315 373 477>
VStem: 90 93<82 332 414 647> 90 104 252 104
Fore
183 332 m 1
 183 82 l 1
 613 82 l 1
 613 0 l 1
 90 0 l 1
 90 729 l 1
 595 729 l 1
 595 647 l 1
 183 647 l 1
 183 414 l 1
 580 414 l 1
 580 332 l 1
 183 332 l 1
315 914 m 1
 315 811 l 1
 211 811 l 1
 211 914 l 1
 315 914 l 1
477 914 m 1
 477 811 l 1
 373 811 l 1
 373 914 l 1
 477 914 l 1
EndSplineSet
EndChar
StartChar: Igrave
Encoding: 204 204
Width: 278
Flags: MW
HStem: 0 20 709 20<100 193 193 193>
VStem: 100 93<0 729>
Fore
193 729 m 1
 193 0 l 1
 100 0 l 1
 100 729 l 1
 193 729 l 1
114 939 m 1
 210 791 l 1
 150 791 l 1
 1 939 l 1
 114 939 l 1
EndSplineSet
EndChar
StartChar: Iacute
Encoding: 205 205
Width: 278
Flags: MW
HStem: 0 20 709 20<100 193 193 193>
VStem: 100 93<0 729>
Fore
193 729 m 1
 193 0 l 1
 100 0 l 1
 100 729 l 1
 193 729 l 1
167 939 m 1
 280 939 l 1
 131 791 l 1
 71 791 l 1
 167 939 l 1
EndSplineSet
EndChar
StartChar: Icircumflex
Encoding: 206 206
Width: 278
Flags: MW
HStem: 0 20 709 20<100 193 193 193>
VStem: 100 93<0 729>
Fore
193 729 m 1
 193 0 l 1
 100 0 l 1
 100 729 l 1
 193 729 l 1
95 940 m 1
 190 940 l 1
 286 790 l 1
 223 790 l 1
 142 886 l 1
 63 790 l 1
 -1 790 l 1
 95 940 l 1
EndSplineSet
EndChar
StartChar: Idieresis
Encoding: 207 207
Width: 278
Flags: W
HStem: 0 20 709 20<100 193 193 193> 804 103<9 113 171 275>
VStem: 9 104<804 907> 100 93<0 729> 171 104<804 907>
Fore
193 729 m 1
 193 0 l 1
 100 0 l 1
 100 729 l 1
 193 729 l 1
113 907 m 1
 113 804 l 1
 9 804 l 1
 9 907 l 1
 113 907 l 1
275 907 m 1
 275 804 l 1
 171 804 l 1
 171 907 l 1
 275 907 l 1
EndSplineSet
EndChar
StartChar: Eth
Encoding: 208 208
Width: 722
Flags: MW
HStem: 0 82<182 355 355 371> 339 67<20 89 182 353> 647 82<182 355 182 182>
VStem: 89 93<82 339 406 647> 574 93<272 457.5>
Fore
89 339 m 1
 20 339 l 1
 20 406 l 1
 89 406 l 1
 89 729 l 1
 371 729 l 2
 555 729 667 591 667 365 c 0
 667 138 555 0 371 0 c 2
 89 0 l 1
 89 339 l 1
182 339 m 1
 182 82 l 1
 355 82 l 2
 498 82 574 179 574 365 c 0
 574 550 498 647 355 647 c 2
 182 647 l 1
 182 406 l 1
 353 406 l 1
 353 339 l 1
 182 339 l 1
EndSplineSet
EndChar
StartChar: Ntilde
Encoding: 209 209
Width: 722
Flags: W
HStem: 0 20 709 20<76 177 177 177 558 646 646 646> 812 67<426.5 439> 850 66<294.5 307.5>
VStem: 76 88<0 591> 558 88<133 729>
Fore
646 729 m 1
 646 0 l 1
 541 0 l 1
 164 591 l 1
 164 0 l 1
 76 0 l 1
 76 729 l 1
 177 729 l 1
 558 133 l 1
 558 729 l 1
 646 729 l 1
467 916 m 1
 525 916 l 1
 515 847 485 812 436 812 c 0
 417 812 405 816 351 837 c 0
 327 846 313 850 302 850 c 0
 287 850 275 836 269 813 c 1
 211 813 l 1
 222 879 253 916 297 916 c 0
 318 916 325 914 367 897 c 0
 391 886 418 879 430 879 c 0
 448 879 459 891 467 916 c 1
EndSplineSet
EndChar
StartChar: Ograve
Encoding: 210 210
Width: 778
Flags: MW
HStem: -23 82<312.5 434> 659 82<312 468>
VStem: 38 93<269 449> 649 93<293.5 447>
Fore
389 741 m 0
 603 741 742 588 742 353 c 0
 742 234 695 121 616 54 c 0
 557 4 478 -23 390 -23 c 0
 180 -23 38 131 38 359 c 0
 38 587 180 741 389 741 c 0
389 659 m 0
 235 659 131 539 131 359 c 0
 131 179 235 59 390 59 c 0
 544 59 649 179 649 355 c 0
 649 539 547 659 389 659 c 0
359 939 m 1
 455 791 l 1
 395 791 l 1
 246 939 l 1
 359 939 l 1
EndSplineSet
EndChar
StartChar: Oacute
Encoding: 211 211
Width: 778
Flags: MW
HStem: -23 82<312.5 434> 659 82<312 468>
VStem: 38 93<269 449> 649 93<293.5 447>
Fore
389 741 m 0
 603 741 742 588 742 353 c 0
 742 234 695 121 616 54 c 0
 557 4 478 -23 390 -23 c 0
 180 -23 38 131 38 359 c 0
 38 587 180 741 389 741 c 0
389 659 m 0
 235 659 131 539 131 359 c 0
 131 179 235 59 390 59 c 0
 544 59 649 179 649 355 c 0
 649 539 547 659 389 659 c 0
418 939 m 1
 531 939 l 1
 382 791 l 1
 322 791 l 1
 418 939 l 1
EndSplineSet
EndChar
StartChar: Ocircumflex
Encoding: 212 212
Width: 778
Flags: MW
HStem: -23 82<312.5 434> 659 82<312 468>
VStem: 38 93<269 449> 649 93<293.5 447>
Fore
389 741 m 0
 603 741 742 588 742 353 c 0
 742 234 695 121 616 54 c 0
 557 4 478 -23 390 -23 c 0
 180 -23 38 131 38 359 c 0
 38 587 180 741 389 741 c 0
389 659 m 0
 235 659 131 539 131 359 c 0
 131 179 235 59 390 59 c 0
 544 59 649 179 649 355 c 0
 649 539 547 659 389 659 c 0
343 940 m 1
 438 940 l 1
 534 790 l 1
 471 790 l 1
 390 886 l 1
 311 790 l 1
 247 790 l 1
 343 940 l 1
EndSplineSet
EndChar
StartChar: Otilde
Encoding: 213 213
Width: 778
Flags: W
HStem: -23 82<312.5 434> 659 82<312 468> 812 67<451.5 464> 850 66<319.5 332.5>
VStem: 38 93<269 449> 649 93<293.5 447>
Fore
389 741 m 0
 603 741 742 588 742 353 c 0
 742 234 695 121 616 54 c 0
 557 4 478 -23 390 -23 c 0
 180 -23 38 131 38 359 c 0
 38 587 180 741 389 741 c 0
389 659 m 0
 235 659 131 539 131 359 c 0
 131 179 235 59 390 59 c 0
 544 59 649 179 649 355 c 0
 649 539 547 659 389 659 c 0
492 916 m 1
 550 916 l 1
 540 847 510 812 461 812 c 0
 442 812 430 816 376 837 c 0
 352 846 338 850 327 850 c 0
 312 850 300 836 294 813 c 1
 236 813 l 1
 247 879 278 916 322 916 c 0
 343 916 350 914 392 897 c 0
 416 886 443 879 455 879 c 0
 473 879 484 891 492 916 c 1
EndSplineSet
EndChar
StartChar: Odieresis
Encoding: 214 214
Width: 778
Flags: W
HStem: -23 82<312.5 434> 659 82<312 468> 811 103<257 361 419 523>
VStem: 38 93<269 449> 38 104 200 104 649 93<293.5 447>
Fore
389 741 m 0
 603 741 742 588 742 353 c 0
 742 234 695 121 616 54 c 0
 557 4 478 -23 390 -23 c 0
 180 -23 38 131 38 359 c 0
 38 587 180 741 389 741 c 0
389 659 m 0
 235 659 131 539 131 359 c 0
 131 179 235 59 390 59 c 0
 544 59 649 179 649 355 c 0
 649 539 547 659 389 659 c 0
361 914 m 1
 361 811 l 1
 257 811 l 5
 257 914 l 1
 361 914 l 1
523 914 m 1
 523 811 l 1
 419 811 l 1
 419 914 l 1
 523 914 l 1
EndSplineSet
EndChar
StartChar: multiply
Encoding: 215 215
Width: 584
Flags: W
Fore
438 427 m 1
 487 377 l 1
 341 231 l 1
 488 84 l 1
 438 34 l 1
 291 181 l 1
 145 35 l 1
 95 84 l 1
 242 231 l 1
 96 377 l 1
 145 426 l 1
 291 281 l 1
 438 427 l 1
EndSplineSet
EndChar
StartChar: Oslash
Encoding: 216 216
Width: 778
Flags: W
HStem: -23 82<351.5 464.5> -17 20 659 82<309.5 419.5>
VStem: 35 93<325.5 449.5> 646 93<268.5 395.5>
Fore
30 19 m 1
 111 108 l 1
 61 178 35 263 35 360 c 0
 35 587 177 741 387 741 c 0
 478 741 555 714 617 660 c 1
 704 755 l 1
 744 719 l 1
 655 622 l 1
 709 554 739 460 739 358 c 0
 739 131 597 -23 387 -23 c 0
 290 -23 212 6 146 67 c 1
 69 -17 l 1
 30 19 l 1
174 176 m 1
 558 595 l 1
 510 637 452 659 387 659 c 0
 232 659 128 539 128 360 c 0
 128 291 144 228 174 176 c 1
593 554 m 1
 206 133 l 1
 255 84 316 59 387 59 c 0
 542 59 646 179 646 358 c 0
 646 433 628 500 593 554 c 1
EndSplineSet
EndChar
StartChar: Ugrave
Encoding: 217 217
Width: 722
Flags: MW
HStem: -23 82<337 422.5> 709 20<85 178 178 178 552 645 645 645>
VStem: 85 93<217 729> 552 93<217 729>
Fore
552 729 m 1
 645 729 l 1
 645 217 l 2
 645 71 535 -23 364 -23 c 0
 191 -23 85 69 85 217 c 2
 85 729 l 1
 178 729 l 1
 178 217 l 2
 178 162 195 125 231 97 c 1
 266 72 310 59 364 59 c 0
 481 59 552 119 552 217 c 2
 552 729 l 1
334 939 m 1
 430 791 l 1
 370 791 l 1
 221 939 l 1
 334 939 l 1
EndSplineSet
EndChar
StartChar: Uacute
Encoding: 218 218
Width: 722
Flags: MW
HStem: -23 82<337 422.5> 709 20<85 178 178 178 552 645 645 645>
VStem: 85 93<217 729> 552 93<217 729>
Fore
552 729 m 1
 645 729 l 1
 645 217 l 2
 645 71 535 -23 364 -23 c 0
 191 -23 85 69 85 217 c 2
 85 729 l 1
 178 729 l 1
 178 217 l 2
 178 162 195 125 231 97 c 1
 266 72 310 59 364 59 c 0
 481 59 552 119 552 217 c 2
 552 729 l 1
387 939 m 1
 500 939 l 1
 351 791 l 1
 291 791 l 1
 387 939 l 1
EndSplineSet
EndChar
StartChar: Ucircumflex
Encoding: 219 219
Width: 722
Flags: MW
HStem: -23 82<337 422.5> 709 20<85 178 178 178 552 645 645 645>
VStem: 85 93<217 729> 552 93<217 729>
Fore
552 729 m 1
 645 729 l 1
 645 217 l 2
 645 71 535 -23 364 -23 c 0
 191 -23 85 69 85 217 c 2
 85 729 l 1
 178 729 l 1
 178 217 l 2
 178 162 195 125 231 97 c 1
 266 72 310 59 364 59 c 0
 481 59 552 119 552 217 c 2
 552 729 l 1
318 940 m 1
 413 940 l 1
 509 790 l 1
 446 790 l 1
 365 886 l 1
 286 790 l 1
 222 790 l 1
 318 940 l 1
EndSplineSet
EndChar
StartChar: Udieresis
Encoding: 220 220
Width: 722
Flags: W
HStem: -23 82<337 422.5> 709 20<85 178 178 178 552 645 645 645> 811 103<232 336 394 498>
VStem: 85 93<217 729> 85 104 247 104 552 93<217 729>
Fore
552 729 m 1
 645 729 l 1
 645 217 l 2
 645 71 535 -23 364 -23 c 0
 191 -23 85 69 85 217 c 2
 85 729 l 1
 178 729 l 1
 178 217 l 2
 178 162 195 125 231 97 c 1
 266 72 310 59 364 59 c 0
 481 59 552 119 552 217 c 2
 552 729 l 1
336 914 m 1
 336 811 l 1
 232 811 l 1
 232 914 l 1
 336 914 l 1
498 914 m 1
 498 811 l 1
 394 811 l 1
 394 914 l 1
 498 914 l 1
EndSplineSet
EndChar
StartChar: Yacute
Encoding: 221 221
Width: 666
Flags: MW
HStem: 0 20 709 20<13 128 128 128 550 661 661 661>
VStem: 294 93<0 286>
Fore
387 286 m 1
 387 0 l 1
 294 0 l 1
 294 286 l 1
 13 729 l 1
 128 729 l 1
 342 374 l 1
 550 729 l 1
 661 729 l 1
 387 286 l 1
365 939 m 1
 478 939 l 1
 329 791 l 1
 269 791 l 1
 365 939 l 1
EndSplineSet
EndChar
StartChar: Thorn
Encoding: 222 222
Width: 666
Flags: MW
HStem: 0 20 189 82<184 378 378 413> 527 82<184 378> 709 20<91 184 184 184>
VStem: 91 93<0 189 271 527 609 729> 516 100<359 439>
Fore
184 189 m 1
 184 0 l 1
 91 0 l 1
 91 729 l 1
 184 729 l 1
 184 609 l 1
 392 609 l 2
 531 609 616 529 616 397 c 0
 616 275 532 189 413 189 c 2
 184 189 l 1
184 271 m 1
 378 271 l 2
 465 271 516 319 516 399 c 0
 516 479 465 527 378 527 c 2
 184 527 l 1
 184 271 l 1
EndSplineSet
EndChar
StartChar: germandbls
Encoding: 223 223
Width: 611
Flags: W
HStem: -20 82<333.5 334 334 377> 651 78<306.5 364.5>
VStem: 126 83<0 538> 448 87<509.5 574> 479 87<168.5 247>
Fore
302 349 m 1
 302 431 l 1
 311 431 l 2
 391 431 448 477 448 542 c 0
 448 606 399 651 330 651 c 0
 257 651 209 607 209 538 c 2
 209 0 l 1
 126 0 l 1
 126 538 l 2
 126 601 142 642 178 674 c 0
 219 709 276 729 337 729 c 0
 455 729 535 655 535 545 c 0
 535 474 500 428 426 401 c 1
 523 368 566 312 566 219 c 0
 566 72 479 -20 342 -20 c 0
 325 -20 315 -19 298 -16 c 1
 298 62 l 1
 306 62 l 1
 334 62 l 2
 420 62 479 124 479 213 c 0
 479 281 445 330 388 343 c 0
 362 348 360 349 302 349 c 1
EndSplineSet
EndChar
StartChar: agrave
Encoding: 224 224
Width: 556
Flags: W
HStem: -23 73<199.5 247> 462 77<237 309.5> 720 20<137 250 250 250>
VStem: 42 87<107.5 161.5> 389 83<165 259 259 259 362 384 384 396>
Fore
535 49 m 1
 535 -14 l 1
 508 -21 495 -23 478 -23 c 0
 424 -23 398 1 392 54 c 1
 333 0 280 -23 214 -23 c 0
 108 -23 42 37 42 132 c 0
 42 200 73 247 134 272 c 0
 166 285 184 289 302 304 c 0
 368 312 389 327 389 362 c 2
 389 384 l 2
 389 434 347 462 272 462 c 0
 194 462 156 433 149 369 c 1
 65 369 l 1
 67 421 77 451 101 478 c 0
 136 517 199 539 275 539 c 0
 404 539 472 489 472 396 c 2
 472 88 l 2
 472 62 488 47 517 47 c 0
 522 47 526 47 535 49 c 1
389 165 m 2
 389 259 l 1
 361 246 343 242 255 230 c 0
 166 217 129 189 129 134 c 0
 129 81 167 50 232 50 c 0
 281 50 322 66 356 97 c 0
 381 120 389 137 389 165 c 2
250 740 m 1
 346 592 l 1
 286 592 l 1
 137 740 l 1
 250 740 l 1
EndSplineSet
EndChar
StartChar: aacute
Encoding: 225 225
Width: 556
Flags: W
HStem: -23 73<199.5 247> 462 77<237 309.5> 720 20<303 416 416 416>
VStem: 42 87<107.5 161.5> 389 83<165 259 259 259 362 384 384 396>
Fore
535 49 m 1
 535 -14 l 1
 508 -21 495 -23 478 -23 c 0
 424 -23 398 1 392 54 c 1
 333 0 280 -23 214 -23 c 0
 108 -23 42 37 42 132 c 0
 42 200 73 247 134 272 c 0
 166 285 184 289 302 304 c 0
 368 312 389 327 389 362 c 2
 389 384 l 2
 389 434 347 462 272 462 c 0
 194 462 156 433 149 369 c 1
 65 369 l 1
 67 421 77 451 101 478 c 0
 136 517 199 539 275 539 c 0
 404 539 472 489 472 396 c 2
 472 88 l 2
 472 62 488 47 517 47 c 0
 522 47 526 47 535 49 c 1
389 165 m 2
 389 259 l 1
 361 246 343 242 255 230 c 0
 166 217 129 189 129 134 c 0
 129 81 167 50 232 50 c 0
 281 50 322 66 356 97 c 0
 381 120 389 137 389 165 c 2
303 740 m 1
 416 740 l 1
 267 592 l 1
 207 592 l 1
 303 740 l 1
EndSplineSet
EndChar
StartChar: acircumflex
Encoding: 226 226
Width: 556
Flags: W
HStem: -23 73<199.5 247> 462 77<237 309.5> 721 20<228 323 323 323>
VStem: 42 87<107.5 161.5> 389 83<165 259 259 259 362 384 384 396>
Fore
535 49 m 1
 535 -14 l 1
 508 -21 495 -23 478 -23 c 0
 424 -23 398 1 392 54 c 1
 333 0 280 -23 214 -23 c 0
 108 -23 42 37 42 132 c 0
 42 200 73 247 134 272 c 0
 166 285 184 289 302 304 c 0
 368 312 389 327 389 362 c 2
 389 384 l 2
 389 434 347 462 272 462 c 0
 194 462 156 433 149 369 c 1
 65 369 l 1
 67 421 77 451 101 478 c 0
 136 517 199 539 275 539 c 0
 404 539 472 489 472 396 c 2
 472 88 l 2
 472 62 488 47 517 47 c 0
 522 47 526 47 535 49 c 1
389 165 m 2
 389 259 l 1
 361 246 343 242 255 230 c 0
 166 217 129 189 129 134 c 0
 129 81 167 50 232 50 c 0
 281 50 322 66 356 97 c 0
 381 120 389 137 389 165 c 2
228 741 m 1
 323 741 l 1
 419 591 l 1
 356 591 l 1
 275 687 l 1
 196 591 l 1
 132 591 l 1
 228 741 l 1
EndSplineSet
EndChar
StartChar: atilde
Encoding: 227 227
Width: 556
Flags: W
HStem: -23 73<199.5 247> 462 77<237 309.5> 613 67<333.5 346> 651 66<201.5 214.5>
VStem: 42 87<107.5 161.5> 389 83<165 259 259 259 362 384 384 396>
Fore
535 49 m 1
 535 -14 l 1
 508 -21 495 -23 478 -23 c 0
 424 -23 398 1 392 54 c 1
 333 0 280 -23 214 -23 c 0
 108 -23 42 37 42 132 c 0
 42 200 73 247 134 272 c 0
 166 285 184 289 302 304 c 0
 368 312 389 327 389 362 c 2
 389 384 l 2
 389 434 347 462 272 462 c 0
 194 462 156 433 149 369 c 1
 65 369 l 1
 67 421 77 451 101 478 c 0
 136 517 199 539 275 539 c 0
 404 539 472 489 472 396 c 2
 472 88 l 2
 472 62 488 47 517 47 c 0
 522 47 526 47 535 49 c 1
389 165 m 2
 389 259 l 1
 361 246 343 242 255 230 c 0
 166 217 129 189 129 134 c 0
 129 81 167 50 232 50 c 0
 281 50 322 66 356 97 c 0
 381 120 389 137 389 165 c 2
374 717 m 1
 432 717 l 1
 422 648 392 613 343 613 c 0
 324 613 312 617 258 638 c 0
 234 647 220 651 209 651 c 0
 194 651 182 637 176 614 c 1
 118 614 l 1
 129 680 160 717 204 717 c 0
 225 717 232 715 274 698 c 0
 298 687 325 680 337 680 c 0
 355 680 366 692 374 717 c 1
EndSplineSet
EndChar
StartChar: adieresis
Encoding: 228 228
Width: 556
Flags: W
HStem: -23 73<199.5 247> 462 77<237 309.5> 612 103<140 244 302 406>
VStem: 42 87<107.5 161.5> 42 104 204 104 389 83<165 259 259 259 362 384 384 396>
Fore
535 49 m 1
 535 -14 l 1
 508 -21 495 -23 478 -23 c 0
 424 -23 398 1 392 54 c 1
 333 0 280 -23 214 -23 c 0
 108 -23 42 37 42 132 c 0
 42 200 73 247 134 272 c 0
 166 285 184 289 302 304 c 0
 368 312 389 327 389 362 c 2
 389 384 l 2
 389 434 347 462 272 462 c 0
 194 462 156 433 149 369 c 1
 65 369 l 1
 67 421 77 451 101 478 c 0
 136 517 199 539 275 539 c 0
 404 539 472 489 472 396 c 2
 472 88 l 2
 472 62 488 47 517 47 c 0
 522 47 526 47 535 49 c 1
389 165 m 2
 389 259 l 1
 361 246 343 242 255 230 c 0
 166 217 129 189 129 134 c 0
 129 81 167 50 232 50 c 0
 281 50 322 66 356 97 c 0
 381 120 389 137 389 165 c 2
244 715 m 1
 244 612 l 1
 140 612 l 1
 140 715 l 1
 244 715 l 1
406 715 m 1
 406 612 l 1
 302 612 l 1
 302 715 l 1
 406 715 l 1
EndSplineSet
EndChar
StartChar: aring
Encoding: 229 229
Width: 556
Flags: W
HStem: -23 73<199.5 247> 462 77<237 309.5> 579 44<263 287> 710 44<263 287.5>
VStem: 42 87<107.5 161.5> 42 44 174 44 389 83<165 259 259 259 362 384 384 396>
Fore
535 49 m 1
 535 -14 l 1
 508 -21 495 -23 478 -23 c 0
 424 -23 398 1 392 54 c 1
 333 0 280 -23 214 -23 c 0
 108 -23 42 37 42 132 c 0
 42 200 73 247 134 272 c 0
 166 285 184 289 302 304 c 0
 368 312 389 327 389 362 c 2
 389 384 l 2
 389 434 347 462 272 462 c 0
 194 462 156 433 149 369 c 1
 65 369 l 1
 67 421 77 451 101 478 c 0
 136 517 199 539 275 539 c 0
 404 539 472 489 472 396 c 2
 472 88 l 2
 472 62 488 47 517 47 c 0
 522 47 526 47 535 49 c 1
389 165 m 2
 389 259 l 1
 361 246 343 242 255 230 c 0
 166 217 129 189 129 134 c 0
 129 81 167 50 232 50 c 0
 281 50 322 66 356 97 c 0
 381 120 389 137 389 165 c 2
275 754 m 0
 324 754 363 715 363 666 c 0
 363 618 323 579 275 579 c 0
 227 579 187 619 187 667 c 0
 187 714 227 754 275 754 c 0
275 710 m 0
 251 710 231 690 231 667 c 0
 231 643 251 623 275 623 c 0
 299 623 319 643 319 666 c 0
 319 691 300 710 275 710 c 0
EndSplineSet
EndChar
StartChar: ae
Encoding: 230 230
Width: 889
Flags: W
HStem: -23 77<586.5 646.5> -23 73<190 241> -23 77 -23 73 234 68<461 755> 462 77<228 301.5 577 653.5>
VStem: 34 87<108 161.5>
Fore
751 159 m 1
 835 159 l 1
 814 45 730 -23 612 -23 c 0
 535 -23 469 8 434 60 c 0
 429 68 425 75 418 87 c 1
 343 9 280 -23 202 -23 c 0
 100 -23 34 38 34 132 c 0
 34 200 65 246 127 272 c 0
 159 286 210 296 294 303 c 0
 362 309 381 323 381 362 c 2
 381 384 l 2
 381 435 340 462 263 462 c 0
 186 462 148 433 141 369 c 1
 57 369 l 1
 59 421 69 451 93 478 c 0
 128 517 191 539 265 539 c 0
 350 539 409 511 440 457 c 1
 476 508 541 539 613 539 c 0
 710 539 790 486 824 401 c 0
 839 362 845 314 845 234 c 1
 459 234 l 1
 460 182 467 152 487 122 c 0
 515 78 560 54 613 54 c 0
 680 54 727 90 751 159 c 1
381 157 m 2
 381 258 l 1
 353 246 336 242 247 229 c 0
 157 216 121 189 121 134 c 0
 121 82 159 50 221 50 c 0
 261 50 299 63 332 88 c 0
 362 111 381 138 381 157 c 2
461 302 m 1
 755 302 l 1
 755 397 696 462 611 462 c 0
 527 462 468 399 461 302 c 1
EndSplineSet
EndChar
StartChar: ccedilla
Encoding: 231 231
Width: 500
Flags: MW
HStem: -214 41<216.5 244.5> -91 144<231 251.5> 462 77<217.5 298>
VStem: 31 87<200.5 318> 283 75<-141 -116.5>
Fore
264 -23 m 1
 251 -56 l 1
 265 -54 271 -54 279 -54 c 0
 329 -54 358 -79 358 -121 c 0
 358 -178 311 -214 235 -214 c 0
 196 -214 174 -208 110 -181 c 1
 131 -140 l 1
 140 -144 l 2
 184 -167 204 -173 229 -173 c 0
 260 -173 283 -154 283 -128 c 0
 283 -105 266 -91 237 -91 c 0
 225 -91 218 -93 206 -99 c 1
 194 -92 l 1
 225 -21 l 1
 182 -13 159 -4 132 16 c 0
 67 62 31 148 31 253 c 0
 31 427 123 539 264 539 c 0
 337 539 400 510 436 461 c 0
 456 432 467 399 471 348 c 1
 387 348 l 1
 377 421 333 462 263 462 c 0
 172 462 118 384 118 252 c 0
 118 128 173 53 265 53 c 0
 336 53 379 96 393 180 c 1
 477 180 l 1
 470 55 387 -23 264 -23 c 1
EndSplineSet
EndChar
StartChar: egrave
Encoding: 232 232
Width: 556
Flags: W
HStem: -23 77<254.5 314.5> 234 68<129 423> 462 77<237 320> 720 20<139 252 252 252>
Fore
513 234 m 1
 127 234 l 1
 128 182 135 152 155 122 c 0
 183 78 228 54 281 54 c 0
 348 54 395 90 418 159 c 1
 502 159 l 1
 481 45 398 -23 278 -23 c 0
 131 -23 40 83 40 255 c 0
 40 427 134 539 280 539 c 0
 378 539 458 487 492 401 c 0
 507 362 513 314 513 234 c 1
129 302 m 1
 423 302 l 1
 424 304 424 306 424 308 c 0
 424 394 361 462 279 462 c 0
 195 462 136 399 129 302 c 1
252 740 m 1
 348 592 l 1
 288 592 l 1
 139 740 l 1
 252 740 l 1
EndSplineSet
EndChar
StartChar: eacute
Encoding: 233 233
Width: 556
Flags: W
HStem: -23 77<254.5 314.5> 234 68<129 423> 462 77<237 320> 720 20<308 421 421 421>
Fore
513 234 m 1
 127 234 l 1
 128 182 135 152 155 122 c 0
 183 78 228 54 281 54 c 0
 348 54 395 90 418 159 c 1
 502 159 l 1
 481 45 398 -23 278 -23 c 0
 131 -23 40 83 40 255 c 0
 40 427 134 539 280 539 c 0
 378 539 458 487 492 401 c 0
 507 362 513 314 513 234 c 1
129 302 m 1
 423 302 l 1
 424 304 424 306 424 308 c 0
 424 394 361 462 279 462 c 0
 195 462 136 399 129 302 c 1
308 740 m 1
 421 740 l 1
 272 592 l 1
 212 592 l 1
 308 740 l 1
EndSplineSet
EndChar
StartChar: ecircumflex
Encoding: 234 234
Width: 556
Flags: W
HStem: -23 77<254.5 314.5> 234 68<129 423> 462 77<237 320> 721 20<239 334 334 334>
Fore
513 234 m 1
 127 234 l 1
 128 182 135 152 155 122 c 0
 183 78 228 54 281 54 c 0
 348 54 395 90 418 159 c 1
 502 159 l 1
 481 45 398 -23 278 -23 c 0
 131 -23 40 83 40 255 c 0
 40 427 134 539 280 539 c 0
 378 539 458 487 492 401 c 0
 507 362 513 314 513 234 c 1
129 302 m 1
 423 302 l 1
 424 304 424 306 424 308 c 0
 424 394 361 462 279 462 c 0
 195 462 136 399 129 302 c 1
239 741 m 1
 334 741 l 1
 430 591 l 1
 367 591 l 1
 286 687 l 1
 207 591 l 1
 143 591 l 1
 239 741 l 1
EndSplineSet
EndChar
StartChar: edieresis
Encoding: 235 235
Width: 556
Flags: W
HStem: -23 77<254.5 314.5> 234 68<129 423> 462 77<237 320> 612 103<153 257 315 419>
VStem: 40 104 202 104
Fore
513 234 m 1
 127 234 l 1
 128 182 135 152 155 122 c 0
 183 78 228 54 281 54 c 0
 348 54 395 90 418 159 c 1
 502 159 l 1
 481 45 398 -23 278 -23 c 0
 131 -23 40 83 40 255 c 0
 40 427 134 539 280 539 c 0
 378 539 458 487 492 401 c 0
 507 362 513 314 513 234 c 1
129 302 m 1
 423 302 l 1
 424 304 424 306 424 308 c 0
 424 394 361 462 279 462 c 0
 195 462 136 399 129 302 c 1
257 715 m 1
 257 612 l 1
 153 612 l 1
 153 715 l 1
 257 715 l 1
419 715 m 1
 419 612 l 1
 315 612 l 1
 315 715 l 1
 419 715 l 1
EndSplineSet
EndChar
StartChar: igrave
Encoding: 236 236
Width: 278
Flags: MW
HStem: 0 20 504 20<94 177 177 177> 720 20<-5 108 108 108>
VStem: 94 83<0 524>
Fore
177 524 m 1
 177 0 l 1
 94 0 l 1
 94 524 l 1
 177 524 l 1
108 740 m 1
 204 592 l 1
 144 592 l 1
 -5 740 l 1
 108 740 l 1
EndSplineSet
EndChar
StartChar: iacute
Encoding: 237 237
Width: 278
Flags: MW
HStem: 0 20 504 20<94 177 177 177> 720 20<161 274 274 274>
VStem: 94 83<0 524>
Fore
177 524 m 1
 177 0 l 1
 94 0 l 1
 94 524 l 1
 177 524 l 1
161 740 m 1
 274 740 l 1
 125 592 l 1
 65 592 l 1
 161 740 l 1
EndSplineSet
EndChar
StartChar: icircumflex
Encoding: 238 238
Width: 278
Flags: MW
HStem: 0 20 504 20<94 177 177 177> 721 20<89 184 184 184>
VStem: 94 83<0 524>
Fore
177 524 m 1
 177 0 l 1
 94 0 l 1
 94 524 l 1
 177 524 l 1
89 741 m 1
 184 741 l 1
 280 591 l 1
 217 591 l 1
 136 687 l 1
 57 591 l 1
 -7 591 l 1
 89 741 l 1
EndSplineSet
EndChar
StartChar: idieresis
Encoding: 239 239
Width: 278
Flags: W
HStem: 0 20 504 20<94 177 177 177> 605 103<3 107 165 269>
VStem: 3 104<605 708> 94 83<0 524> 165 104<605 708>
Fore
177 524 m 1
 177 0 l 1
 94 0 l 1
 94 524 l 1
 177 524 l 1
107 708 m 1
 107 605 l 1
 3 605 l 1
 3 708 l 1
 107 708 l 1
269 708 m 1
 269 605 l 1
 165 605 l 1
 165 708 l 1
 269 708 l 1
EndSplineSet
EndChar
StartChar: eth
Encoding: 240 240
Width: 556
Flags: MW
HStem: -23 77<226.5 319> 462 75<234 263.5> 723 20<133 133>
VStem: 36 87<195 316.5> 423 87<193.5 305>
Fore
219 613 m 1
 122 568 l 1
 86 607 l 1
 171 647 l 1
 145 667 132 675 89 699 c 1
 133 743 l 1
 164 730 177 723 244 680 c 1
 341 725 l 1
 381 688 l 1
 291 647 l 1
 363 592 400 554 438 497 c 0
 489 419 510 351 510 259 c 0
 510 79 424 -23 273 -23 c 0
 122 -23 36 79 36 258 c 0
 36 375 71 458 140 502 c 0
 174 525 214 537 254 537 c 0
 273 537 287 534 317 524 c 1
 282 559 271 569 219 613 c 1
273 462 m 0
 180 462 123 384 123 258 c 0
 123 132 180 54 273 54 c 0
 365 54 423 132 423 255 c 0
 423 385 367 462 273 462 c 0
EndSplineSet
EndChar
StartChar: ntilde
Encoding: 241 241
Width: 556
Flags: W
HStem: 0 20 466 73<282 329> 504 20<70 147 147 147> 613 67<337.5 350> 651 66<205.5 218.5>
VStem: 70 84<0 289> 70 77<436 524> 404 83<0 363 363 394.5>
Fore
70 524 m 1
 147 524 l 1
 147 436 l 1
 193 509 243 539 321 539 c 0
 422 539 487 483 487 396 c 2
 487 0 l 1
 404 0 l 1
 404 363 l 2
 404 426 362 466 296 466 c 0
 210 466 154 396 154 289 c 2
 154 0 l 1
 70 0 l 1
 70 524 l 1
378 717 m 1
 436 717 l 1
 426 648 396 613 347 613 c 0
 328 613 316 617 262 638 c 0
 238 647 224 651 213 651 c 0
 198 651 186 637 180 614 c 1
 122 614 l 1
 133 680 164 717 208 717 c 0
 229 717 236 715 278 698 c 0
 302 687 329 680 341 680 c 0
 359 680 370 692 378 717 c 1
EndSplineSet
EndChar
StartChar: ograve
Encoding: 242 242
Width: 556
Flags: W
HStem: -23 77<226.5 319> 462 77<226.5 320> 720 20<132 245 245 245>
VStem: 36 87<194.5 321> 423 87<193.5 320>
Fore
272 539 m 0
 423 539 510 435 510 254 c 0
 510 82 420 -23 273 -23 c 0
 124 -23 36 82 36 258 c 0
 36 434 125 539 272 539 c 0
273 462 m 0
 180 462 123 384 123 258 c 0
 123 131 180 54 273 54 c 0
 365 54 423 132 423 255 c 0
 423 385 367 462 273 462 c 0
245 740 m 1
 341 592 l 1
 281 592 l 1
 132 740 l 1
 245 740 l 1
EndSplineSet
EndChar
StartChar: oacute
Encoding: 243 243
Width: 556
Flags: W
HStem: -23 77<226.5 319> 462 77<226.5 320> 720 20<298 411 411 411>
VStem: 36 87<194.5 321> 423 87<193.5 320>
Fore
272 539 m 0
 423 539 510 435 510 254 c 0
 510 82 420 -23 273 -23 c 0
 124 -23 36 82 36 258 c 0
 36 434 125 539 272 539 c 0
273 462 m 0
 180 462 123 384 123 258 c 0
 123 131 180 54 273 54 c 0
 365 54 423 132 423 255 c 0
 423 385 367 462 273 462 c 0
298 740 m 1
 411 740 l 1
 262 592 l 1
 202 592 l 1
 298 740 l 1
EndSplineSet
EndChar
StartChar: ocircumflex
Encoding: 244 244
Width: 556
Flags: W
HStem: -23 77<226.5 319> 462 77<226.5 320> 721 20<226 321 321 321>
VStem: 36 87<194.5 321> 423 87<193.5 320>
Fore
272 539 m 0
 423 539 510 435 510 254 c 0
 510 82 420 -23 273 -23 c 0
 124 -23 36 82 36 258 c 0
 36 434 125 539 272 539 c 0
273 462 m 0
 180 462 123 384 123 258 c 0
 123 131 180 54 273 54 c 0
 365 54 423 132 423 255 c 0
 423 385 367 462 273 462 c 0
226 741 m 1
 321 741 l 1
 417 591 l 1
 354 591 l 1
 273 687 l 1
 194 591 l 1
 130 591 l 1
 226 741 l 1
EndSplineSet
EndChar
StartChar: otilde
Encoding: 245 245
Width: 556
Flags: W
HStem: -23 77<226.5 319> 462 77<226.5 320> 613 67<334.5 347> 651 66<202.5 215.5>
VStem: 36 87<194.5 321> 423 87<193.5 320>
Fore
272 539 m 0
 423 539 510 435 510 254 c 0
 510 82 420 -23 273 -23 c 0
 124 -23 36 82 36 258 c 0
 36 434 125 539 272 539 c 0
273 462 m 0
 180 462 123 384 123 258 c 0
 123 131 180 54 273 54 c 0
 365 54 423 132 423 255 c 0
 423 385 367 462 273 462 c 0
375 717 m 1
 433 717 l 1
 423 648 393 613 344 613 c 0
 325 613 313 617 259 638 c 0
 235 647 221 651 210 651 c 0
 195 651 183 637 177 614 c 1
 119 614 l 1
 130 680 161 717 205 717 c 0
 226 717 233 715 275 698 c 0
 299 687 326 680 338 680 c 0
 356 680 367 692 375 717 c 1
EndSplineSet
EndChar
StartChar: odieresis
Encoding: 246 246
Width: 556
Flags: W
HStem: -23 77<226.5 319> 462 77<226.5 320> 612 103<140 244 302 406>
VStem: 36 87<194.5 321> 36 104 198 104 423 87<193.5 320>
Fore
272 539 m 0
 423 539 510 435 510 254 c 0
 510 82 420 -23 273 -23 c 0
 124 -23 36 82 36 258 c 0
 36 434 125 539 272 539 c 0
273 462 m 0
 180 462 123 384 123 258 c 0
 123 131 180 54 273 54 c 0
 365 54 423 132 423 255 c 0
 423 385 367 462 273 462 c 0
244 715 m 1
 244 612 l 1
 140 612 l 1
 140 715 l 1
 244 715 l 1
406 715 m 1
 406 612 l 1
 302 612 l 1
 302 715 l 1
 406 715 l 1
EndSplineSet
EndChar
StartChar: divide
Encoding: 247 247
Width: 584
Flags: MW
HStem: 0 104<240 344> 201 70<50 534> 368 104<240 344>
VStem: 240 104<0 104 368 472>
Fore
534 271 m 1
 534 201 l 1
 50 201 l 1
 50 271 l 1
 534 271 l 1
344 104 m 1
 344 0 l 1
 240 0 l 1
 240 104 l 1
 344 104 l 1
344 472 m 1
 344 368 l 1
 240 368 l 1
 240 472 l 1
 344 472 l 1
EndSplineSet
EndChar
StartChar: oslash
Encoding: 248 248
Width: 611
Flags: MW
HStem: -23 77<252 319.5> 462 77<226.5 295>
VStem: 36 87<234.5 321> 423 87<195 280>
Fore
529 511 m 1
 466 440 l 1
 496 390 510 334 510 258 c 0
 510 82 422 -23 274 -23 c 0
 207 -23 151 -2 111 39 c 1
 50 -30 l 1
 18 -2 l 1
 84 72 l 1
 51 121 36 180 36 258 c 0
 36 434 125 539 273 539 c 0
 342 539 394 519 439 474 c 1
 497 539 l 1
 529 511 l 1
405 371 m 1
 167 102 l 1
 196 70 231 54 273 54 c 0
 366 54 423 132 423 258 c 0
 423 302 417 340 405 371 c 1
144 141 m 1
 383 410 l 1
 357 443 317 462 273 462 c 0
 180 462 123 384 123 258 c 0
 123 211 130 174 144 141 c 1
EndSplineSet
EndChar
StartChar: ugrave
Encoding: 249 249
Width: 556
Flags: W
HStem: -23 73<223 270.5> 504 20<65 148 148 148 399 482 482 482> 720 20<130 243 243 243>
VStem: 65 83<121.5 153 153 524> 399 83<227 524> 407 75<0 73 73 73>
Fore
482 0 m 1
 407 0 l 1
 407 73 l 1
 358 4 309 -23 232 -23 c 0
 130 -23 65 33 65 120 c 2
 65 524 l 1
 148 524 l 1
 148 153 l 2
 148 90 190 50 256 50 c 0
 343 50 399 120 399 227 c 2
 399 524 l 1
 482 524 l 1
 482 0 l 1
243 740 m 1
 339 592 l 1
 279 592 l 1
 130 740 l 1
 243 740 l 1
EndSplineSet
EndChar
StartChar: uacute
Encoding: 250 250
Width: 556
Flags: W
HStem: -23 73<223 270.5> 504 20<65 148 148 148 399 482 482 482> 720 20<296 409 409 409>
VStem: 65 83<121.5 153 153 524> 399 83<227 524> 407 75<0 73 73 73>
Fore
482 0 m 1
 407 0 l 1
 407 73 l 1
 358 4 309 -23 232 -23 c 0
 130 -23 65 33 65 120 c 2
 65 524 l 1
 148 524 l 1
 148 153 l 2
 148 90 190 50 256 50 c 0
 343 50 399 120 399 227 c 2
 399 524 l 1
 482 524 l 1
 482 0 l 1
296 740 m 1
 409 740 l 1
 260 592 l 1
 200 592 l 1
 296 740 l 1
EndSplineSet
EndChar
StartChar: ucircumflex
Encoding: 251 251
Width: 556
Flags: W
HStem: -23 73<223 270.5> 504 20<65 148 148 148 399 482 482 482> 721 20<227 322 322 322>
VStem: 65 83<121.5 153 153 524> 399 83<227 524> 407 75<0 73 73 73>
Fore
482 0 m 1
 407 0 l 1
 407 73 l 1
 358 4 309 -23 232 -23 c 0
 130 -23 65 33 65 120 c 2
 65 524 l 1
 148 524 l 1
 148 153 l 2
 148 90 190 50 256 50 c 0
 343 50 399 120 399 227 c 2
 399 524 l 1
 482 524 l 1
 482 0 l 1
227 741 m 1
 322 741 l 1
 418 591 l 1
 355 591 l 1
 274 687 l 1
 195 591 l 1
 131 591 l 1
 227 741 l 1
EndSplineSet
EndChar
StartChar: udieresis
Encoding: 252 252
Width: 556
Flags: W
HStem: -23 73<223 270.5> 504 20<65 148 148 148 399 482 482 482> 612 103<141 245 303 407>
VStem: 65 83<121.5 153 153 524> 65 104 227 104 399 83<227 524> 407 75<0 73 73 73>
Fore
482 0 m 1
 407 0 l 1
 407 73 l 1
 358 4 309 -23 232 -23 c 0
 130 -23 65 33 65 120 c 2
 65 524 l 1
 148 524 l 1
 148 153 l 2
 148 90 190 50 256 50 c 0
 343 50 399 120 399 227 c 2
 399 524 l 1
 482 524 l 1
 482 0 l 1
245 715 m 1
 245 612 l 1
 141 612 l 1
 141 715 l 1
 245 715 l 1
407 715 m 1
 407 612 l 1
 303 612 l 1
 303 715 l 1
 407 715 l 1
EndSplineSet
EndChar
StartChar: yacute
Encoding: 253 253
Width: 500
Flags: W
HStem: -218 82<99 115.5> 504 20<20 109 109 109 388 478 478 478> 720 20<271 384 384 384>
Fore
388 524 m 1
 478 524 l 1
 245 -110 l 1
 229 -152 214 -174 188 -193 c 0
 166 -209 137 -218 110 -218 c 0
 88 -218 71 -214 54 -205 c 1
 54 -130 l 1
 72 -134 86 -136 98 -136 c 0
 133 -136 152 -122 165 -85 c 1
 197 -2 l 1
 20 524 l 1
 109 524 l 1
 243 116 l 1
 388 524 l 1
271 740 m 1
 384 740 l 1
 235 592 l 1
 175 592 l 1
 271 740 l 1
EndSplineSet
EndChar
StartChar: thorn
Encoding: 254 254
Width: 555
Flags: MW
HStem: -218 20 -23 78<264 328.5> 461 78<264.5 329>
VStem: 54 83<-218 55 196.5 319.5 459 714> 435 87<195.5 317.5>
Fore
54 -218 m 1
 54 714 l 1
 137 714 l 1
 137 459 l 1
 173 510 231 539 298 539 c 0
 434 539 522 427 522 253 c 0
 522 86 433 -23 298 -23 c 0
 230 -23 181 1 137 55 c 1
 137 -218 l 1
 54 -218 l 1
283 461 m 0
 195 461 137 381 137 258 c 0
 137 135 195 55 283 55 c 0
 374 55 435 136 435 255 c 0
 435 380 375 461 283 461 c 0
EndSplineSet
EndChar
StartChar: ydieresis
Encoding: 255 255
Width: 500
Flags: W
HStem: -218 82<99 115.5> 504 20<20 109 109 109 388 478 478 478> 612 103<113 217 275 379>
VStem: 20 104 182 104
Fore
388 524 m 1
 478 524 l 1
 245 -110 l 1
 229 -152 214 -174 188 -193 c 0
 166 -209 137 -218 110 -218 c 0
 88 -218 71 -214 54 -205 c 1
 54 -130 l 1
 72 -134 86 -136 98 -136 c 0
 133 -136 152 -122 165 -85 c 1
 197 -2 l 1
 20 524 l 1
 109 524 l 1
 243 116 l 1
 388 524 l 1
217 715 m 1
 217 612 l 1
 113 612 l 1
 113 715 l 1
 217 715 l 1
379 715 m 1
 379 612 l 1
 275 612 l 1
 275 715 l 1
 379 715 l 1
EndSplineSet
EndChar
StartChar: Amacron
Encoding: 256 256
Width: 667
Flags: W
HStem: 0 20 219 78<216 448> 709 20<277 397 397 397> 830 70<198 472>
Fore
474 219 m 1
 193 219 l 1
 116 0 l 1
 17 0 l 1
 277 729 l 1
 397 729 l 1
 653 0 l 1
 549 0 l 1
 474 219 l 1
448 297 m 1
 336 629 l 1
 216 297 l 1
 448 297 l 1
472 900 m 1
 472 830 l 1
 198 830 l 1
 198 900 l 1
 472 900 l 1
EndSplineSet
EndChar
StartChar: amacron
Encoding: 257 257
Width: 556
Flags: W
HStem: -23 73<199.5 247> 462 77<237 309.5> 631 70<137 411>
VStem: 42 87<107.5 161.5> 389 83<165 259 259 259 362 384 384 396>
Fore
535 49 m 1
 535 -14 l 1
 508 -21 495 -23 478 -23 c 0
 424 -23 398 1 392 54 c 1
 333 0 280 -23 214 -23 c 0
 108 -23 42 37 42 132 c 0
 42 200 73 247 134 272 c 0
 166 285 184 289 302 304 c 0
 368 312 389 327 389 362 c 2
 389 384 l 2
 389 434 347 462 272 462 c 0
 194 462 156 433 149 369 c 1
 65 369 l 1
 67 421 77 451 101 478 c 0
 136 517 199 539 275 539 c 0
 404 539 472 489 472 396 c 2
 472 88 l 2
 472 62 488 47 517 47 c 0
 522 47 526 47 535 49 c 1
389 165 m 2
 389 259 l 1
 361 246 343 242 255 230 c 0
 166 217 129 189 129 134 c 0
 129 81 167 50 232 50 c 0
 281 50 322 66 356 97 c 0
 381 120 389 137 389 165 c 2
411 701 m 1
 411 631 l 1
 137 631 l 1
 137 701 l 1
 411 701 l 1
EndSplineSet
EndChar
StartChar: Abreve
Encoding: 258 258
Width: 667
Flags: W
HStem: 0 20 219 78<216 448> 709 20<277 397 397 397> 796 69<307.5 363>
Fore
474 219 m 1
 193 219 l 1
 116 0 l 1
 17 0 l 1
 277 729 l 1
 397 729 l 1
 653 0 l 1
 549 0 l 1
 474 219 l 1
448 297 m 1
 336 629 l 1
 216 297 l 1
 448 297 l 1
185 931 m 1
 244 931 l 1
 249 887 279 865 336 865 c 0
 390 865 423 889 427 931 c 1
 486 931 l 1
 479 842 427 796 334 796 c 0
 278 796 233 816 206 853 c 0
 191 873 186 892 185 931 c 1
EndSplineSet
EndChar
StartChar: abreve
Encoding: 259 259
Width: 556
Flags: W
HStem: -23 73<199.5 247> 462 77<237 309.5> 597 69<247.5 303> 712 20<125 184 184 184 367 426 426 426>
VStem: 42 87<107.5 161.5> 389 83<165 259 259 259 362 384 384 396>
Fore
535 49 m 1
 535 -14 l 1
 508 -21 495 -23 478 -23 c 0
 424 -23 398 1 392 54 c 1
 333 0 280 -23 214 -23 c 0
 108 -23 42 37 42 132 c 0
 42 200 73 247 134 272 c 0
 166 285 184 289 302 304 c 0
 368 312 389 327 389 362 c 2
 389 384 l 2
 389 434 347 462 272 462 c 0
 194 462 156 433 149 369 c 1
 65 369 l 1
 67 421 77 451 101 478 c 0
 136 517 199 539 275 539 c 0
 404 539 472 489 472 396 c 2
 472 88 l 2
 472 62 488 47 517 47 c 0
 522 47 526 47 535 49 c 1
389 165 m 2
 389 259 l 1
 361 246 343 242 255 230 c 0
 166 217 129 189 129 134 c 0
 129 81 167 50 232 50 c 0
 281 50 322 66 356 97 c 0
 381 120 389 137 389 165 c 2
125 732 m 1
 184 732 l 1
 189 688 219 666 276 666 c 0
 330 666 363 690 367 732 c 1
 426 732 l 1
 419 643 367 597 274 597 c 0
 218 597 173 617 146 654 c 0
 132 674 126 693 125 732 c 1
EndSplineSet
EndChar
StartChar: Aogonek
Encoding: 260 260
Width: 667
Flags: MW
HStem: -205 45<605.5 625.5> 219 78<216 448> 709 20<277 397 397 397>
VStem: 484 73<-123 -87>
Fore
474 219 m 1
 193 219 l 1
 116 0 l 1
 17 0 l 1
 277 729 l 1
 397 729 l 1
 653 0 l 1
 588 -31 557 -64 557 -105 c 0
 557 -141 582 -160 629 -160 c 0
 653 -160 674 -157 692 -150 c 1
 692 -195 l 1
 668 -200 635 -205 616 -205 c 0
 594 -205 569 -200 547 -192 c 0
 505 -176 484 -150 484 -111 c 0
 484 -63 514 -31 585 0 c 1
 549 0 l 1
 474 219 l 1
448 297 m 1
 336 629 l 1
 216 297 l 1
 448 297 l 1
EndSplineSet
EndChar
StartChar: aogonek
Encoding: 261 261
Width: 556
Flags: W
HStem: -205 45<515 533> -23 73<199.5 248> 462 77<238 311>
VStem: 43 86<107.5 161.5> 388 72<-123 -93> 389 84<165 259 259 259> 390 83<362 384 384 396>
Fore
536 49 m 1
 536 -14 l 1
 488 -33 460 -66 460 -105 c 0
 460 -141 485 -160 532 -160 c 0
 557 -160 578 -157 596 -150 c 1
 596 -195 l 1
 571 -201 541 -205 525 -205 c 0
 505 -205 474 -199 451 -192 c 0
 411 -179 388 -150 388 -112 c 0
 388 -74 406 -50 456 -23 c 1
 418 -16 397 10 393 54 c 1
 337 1 281 -23 215 -23 c 0
 109 -23 43 37 43 132 c 0
 43 200 74 246 136 272 c 0
 167 285 185 289 304 304 c 0
 369 312 390 326 390 362 c 2
 390 384 l 2
 390 435 349 462 273 462 c 0
 195 462 157 433 151 369 c 1
 67 369 l 1
 69 421 79 451 102 478 c 1
 138 517 200 539 276 539 c 0
 405 539 473 489 473 396 c 2
 473 88 l 2
 473 62 489 47 518 47 c 0
 523 47 527 47 536 49 c 1
389 165 m 2
 389 259 l 1
 361 246 343 242 255 230 c 0
 166 217 129 189 129 134 c 0
 129 81 167 50 232 50 c 0
 281 50 322 66 356 97 c 0
 381 120 389 137 389 165 c 2
EndSplineSet
EndChar
StartChar: Cacute
Encoding: 262 262
Width: 722
Flags: MW
HStem: -23 82<329.5 417> 659 82<332 399.5>
VStem: 48 93<296 415>
Fore
662 503 m 1
 567 503 l 1
 556 557 541 588 514 613 c 0
 484 641 429 659 370 659 c 0
 229 659 141 544 141 357 c 0
 141 175 233 59 378 59 c 0
 456 59 518 93 548 153 c 0
 563 182 573 216 581 266 c 1
 677 266 l 1
 655 73 555 -23 377 -23 c 0
 282 -23 210 4 154 62 c 0
 85 133 48 236 48 356 c 0
 48 474 84 578 150 650 c 0
 204 710 283 741 381 741 c 0
 541 741 633 663 662 503 c 1
406 939 m 1
 519 939 l 1
 370 791 l 1
 310 791 l 1
 406 939 l 1
EndSplineSet
EndChar
StartChar: cacute
Encoding: 263 263
Width: 500
Flags: W
HStem: -23 77<219 300.5> 462 77<217.5 298> 720 20<298 411 411 411>
VStem: 31 87<191 318.5>
Fore
471 348 m 1
 387 348 l 1
 377 421 333 462 263 462 c 0
 172 462 118 384 118 253 c 0
 118 129 173 54 265 54 c 0
 336 54 379 96 393 180 c 1
 477 180 l 1
 467 52 388 -23 263 -23 c 0
 121 -23 31 84 31 253 c 0
 31 427 123 539 264 539 c 0
 337 539 400 510 436 461 c 0
 456 432 467 399 471 348 c 1
298 740 m 1
 411 740 l 1
 262 592 l 1
 202 592 l 1
 298 740 l 1
EndSplineSet
EndChar
StartChar: Ccaron
Encoding: 268 268
Width: 722
Flags: W
HStem: -23 82<368 400> 659 82<352 384>
VStem: 48 93<329 377>
Fore
662 503 m 1
 567 503 l 1
 556 557 541 588 514 613 c 0
 484 641 429 659 370 659 c 0
 229 659 141 544 141 357 c 0
 141 175 233 59 378 59 c 0
 456 59 518 93 548 153 c 0
 563 182 573 216 581 266 c 1
 677 266 l 1
 655 73 555 -23 377 -23 c 0
 282 -23 210 4 154 62 c 0
 85 133 48 236 48 356 c 0
 48 474 84 578 150 650 c 0
 204 710 283 741 381 741 c 0
 541 741 633 663 662 503 c 1
428 790 m 1
 333 790 l 1
 237 940 l 1
 300 940 l 1
 381 844 l 1
 460 940 l 1
 524 940 l 1
 428 790 l 1
EndSplineSet
MinimumDistance: x4,-1 
EndChar
StartChar: ccaron
Encoding: 269 269
Width: 500
Flags: W
HStem: -23 77<219 300.5> 462 77<217.5 298> 721 20<122 185 185 185 345 409 409 409>
VStem: 31 87<191 318.5>
Fore
471 348 m 1
 387 348 l 1
 377 421 333 462 263 462 c 0
 172 462 118 384 118 253 c 0
 118 129 173 54 265 54 c 0
 336 54 379 96 393 180 c 1
 477 180 l 1
 467 52 388 -23 263 -23 c 0
 121 -23 31 84 31 253 c 0
 31 427 123 539 264 539 c 0
 337 539 400 510 436 461 c 0
 456 432 467 399 471 348 c 1
313 591 m 1
 218 591 l 1
 122 741 l 1
 185 741 l 1
 266 645 l 1
 345 741 l 1
 409 741 l 1
 313 591 l 1
EndSplineSet
EndChar
StartChar: Dcaron
Encoding: 270 270
Width: 722
Flags: MW
HStem: 0 82<182 354 354 370> 647 82<182 354 182 182>
VStem: 89 93<82 647> 574 93<272 457>
Fore
89 0 m 1
 89 729 l 1
 370 729 l 2
 555 729 667 591 667 365 c 0
 667 138 554 0 370 0 c 2
 89 0 l 1
182 82 m 1
 354 82 l 2
 498 82 574 180 574 364 c 0
 574 550 498 647 354 647 c 2
 182 647 l 1
 182 82 l 1
386 790 m 1
 291 790 l 1
 195 940 l 1
 258 940 l 1
 339 844 l 1
 418 940 l 1
 482 940 l 1
 386 790 l 1
EndSplineSet
EndChar
StartChar: dcaron
Encoding: 271 271
Width: 635
Flags: W
HStem: -23 78<220 290> 461 78<219.5 286> 629 100 709 20<412 495 495 495 548 648 648 648>
VStem: 26 87<197 319> 412 83<195.5 318.5 458 729>
Fore
495 729 m 1
 495 0 l 1
 421 0 l 1
 421 69 l 1
 376 4 326 -23 254 -23 c 0
 113 -23 26 86 26 263 c 0
 26 430 115 539 251 539 c 0
 321 539 377 511 412 458 c 1
 412 729 l 1
 495 729 l 1
265 461 m 0
 174 461 113 380 113 258 c 0
 113 136 174 55 266 55 c 0
 354 55 412 135 412 256 c 0
 412 381 355 461 265 461 c 0
548 729 m 1
 648 729 l 1
 648 626 l 2
 648 556 610 505 556 505 c 2
 548 505 l 1
 548 543 l 1
 586 543 605 574 603 629 c 1
 548 629 l 1
 548 729 l 1
EndSplineSet
EndChar
StartChar: Dcroat
Encoding: 272 272
Width: 722
Flags: MW
HStem: 0 82<182 355 355 371> 339 67<20 89 182 353> 647 82<182 355 182 182>
VStem: 89 93<82 339 406 647> 574 93<272 457.5>
Fore
89 339 m 1
 20 339 l 1
 20 406 l 1
 89 406 l 1
 89 729 l 1
 371 729 l 2
 555 729 667 591 667 365 c 0
 667 138 555 0 371 0 c 2
 89 0 l 1
 89 339 l 1
182 339 m 1
 182 82 l 1
 355 82 l 2
 498 82 574 179 574 365 c 0
 574 550 498 647 355 647 c 2
 182 647 l 1
 182 406 l 1
 353 406 l 1
 353 339 l 1
 182 339 l 1
EndSplineSet
EndChar
StartChar: dcroat
Encoding: 273 273
Width: 556
Flags: MW
HStem: -23 82<219.5 285.5> 457 82<219.5 284> 600 53<261 411 494 557> 709 20<411 494 494 494>
VStem: 26 87<198.5 317.5> 411 83<196.5 317.5 461 600 653 729>
Fore
494 653 m 1
 557 653 l 1
 557 600 l 1
 494 600 l 1
 494 0 l 1
 420 0 l 1
 420 59 l 1
 372 3 319 -23 252 -23 c 0
 116 -23 26 91 26 264 c 0
 26 430 115 539 250 539 c 0
 318 539 367 515 411 461 c 1
 411 600 l 1
 261 600 l 1
 261 653 l 1
 411 653 l 1
 411 729 l 1
 494 729 l 1
 494 653 l 1
265 457 m 0
 174 457 113 377 113 258 c 0
 113 139 174 59 265 59 c 0
 353 59 411 137 411 256 c 0
 411 379 354 457 265 457 c 0
EndSplineSet
EndChar
StartChar: Emacron
Encoding: 274 274
Width: 667
Flags: W
HStem: 0 82<183 613> 332 82<183 580> 647 82<183 595 183 183> 830 70<208 482>
VStem: 90 93<82 332 414 647>
Fore
183 332 m 1
 183 82 l 1
 613 82 l 1
 613 0 l 1
 90 0 l 1
 90 729 l 1
 595 729 l 1
 595 647 l 1
 183 647 l 1
 183 414 l 1
 580 414 l 1
 580 332 l 1
 183 332 l 1
482 900 m 1
 482 830 l 1
 208 830 l 1
 208 900 l 1
 482 900 l 1
EndSplineSet
EndChar
StartChar: emacron
Encoding: 275 275
Width: 556
Flags: W
HStem: -23 77<254.5 314.5> 234 68<129 423> 462 77<237 320> 631 70<148 422>
Fore
513 234 m 1
 127 234 l 1
 128 182 135 152 155 122 c 0
 183 78 228 54 281 54 c 0
 348 54 395 90 418 159 c 1
 502 159 l 1
 481 45 398 -23 278 -23 c 0
 131 -23 40 83 40 255 c 0
 40 427 134 539 280 539 c 0
 378 539 458 487 492 401 c 0
 507 362 513 314 513 234 c 1
129 302 m 1
 423 302 l 1
 424 304 424 306 424 308 c 0
 424 394 361 462 279 462 c 0
 195 462 136 399 129 302 c 1
422 701 m 1
 422 631 l 1
 148 631 l 1
 148 701 l 1
 422 701 l 1
EndSplineSet
EndChar
StartChar: Edotaccent
Encoding: 278 278
Width: 667
Flags: W
HStem: 0 82<183 613> 332 82<183 580> 647 82<183 595 183 183> 811 104<293 397>
VStem: 90 93<82 332 414 647> 90 104
Fore
183 332 m 1
 183 82 l 1
 613 82 l 1
 613 0 l 1
 90 0 l 1
 90 729 l 1
 595 729 l 1
 595 647 l 1
 183 647 l 1
 183 414 l 1
 580 414 l 1
 580 332 l 1
 183 332 l 1
397 915 m 1
 397 811 l 1
 293 811 l 1
 293 915 l 1
 397 915 l 1
EndSplineSet
EndChar
StartChar: edotaccent
Encoding: 279 279
Width: 556
Flags: W
HStem: -23 77<254.5 314.5> 234 68<129 423> 462 77<237 320> 612 104<233 337>
VStem: 40 104
Fore
513 234 m 1
 127 234 l 1
 128 182 135 152 155 122 c 0
 183 78 228 54 281 54 c 0
 348 54 395 90 418 159 c 1
 502 159 l 1
 481 45 398 -23 278 -23 c 0
 131 -23 40 83 40 255 c 0
 40 427 134 539 280 539 c 0
 378 539 458 487 492 401 c 0
 507 362 513 314 513 234 c 1
129 302 m 1
 423 302 l 1
 424 304 424 306 424 308 c 0
 424 394 361 462 279 462 c 0
 195 462 136 399 129 302 c 1
337 716 m 1
 337 612 l 1
 233 612 l 1
 233 716 l 1
 337 716 l 1
EndSplineSet
EndChar
StartChar: Eogonek
Encoding: 280 280
Width: 667
Flags: MW
HStem: -205 45<566 586> 0 82<183 545> 332 82<183 580> 647 82<183 595 183 183>
VStem: 90 93<82 332 414 647> 444 73<-123.5 -87>
Fore
183 332 m 1
 183 82 l 1
 613 82 l 1
 613 0 l 1
 549 -30 517 -65 517 -106 c 0
 517 -141 542 -160 589 -160 c 0
 613 -160 634 -157 652 -150 c 1
 652 -195 l 1
 629 -200 595 -205 577 -205 c 0
 555 -205 530 -200 507 -192 c 0
 465 -176 444 -150 444 -111 c 0
 444 -63 474 -30 545 0 c 1
 90 0 l 1
 90 729 l 1
 595 729 l 1
 595 647 l 1
 183 647 l 1
 183 414 l 1
 580 414 l 1
 580 332 l 1
 183 332 l 1
EndSplineSet
EndChar
StartChar: eogonek
Encoding: 281 281
Width: 556
Flags: MW
HStem: -204 44<400.5 429> -23 77<255 290.5> 234 68<130 424> 462 77<237 320>
VStem: 279 72<-125 -104.5>
Fore
513 234 m 1
 127 234 l 1
 128 182 136 152 155 122 c 0
 184 78 229 54 281 54 c 0
 348 54 395 90 419 159 c 1
 503 159 l 1
 493 104 468 61 422 15 c 0
 368 -41 351 -71 351 -109 c 0
 351 -141 378 -160 423 -160 c 0
 448 -160 469 -157 487 -150 c 1
 487 -195 l 1
 460 -201 440 -204 418 -204 c 0
 334 -204 279 -169 279 -116 c 0
 279 -93 290 -67 307 -48 c 0
 314 -41 321 -35 347 -15 c 1
 317 -21 302 -23 279 -23 c 0
 130 -23 40 81 40 254 c 0
 40 427 134 539 280 539 c 0
 378 539 459 487 492 401 c 0
 507 363 514 314 513 234 c 1
424 302 m 1
 424 308 l 2
 424 394 361 462 279 462 c 0
 195 462 136 399 130 302 c 1
 424 302 l 1
EndSplineSet
EndChar
StartChar: Ecaron
Encoding: 282 282
Width: 667
Flags: MW
HStem: 0 82<183 613> 332 82<183 580> 647 82<183 595 183 183>
VStem: 90 93<82 332 414 647>
Fore
183 332 m 1
 183 82 l 1
 613 82 l 1
 613 0 l 1
 90 0 l 1
 90 729 l 1
 595 729 l 1
 595 647 l 1
 183 647 l 1
 183 414 l 1
 580 414 l 1
 580 332 l 1
 183 332 l 1
392 790 m 1
 297 790 l 1
 201 940 l 1
 264 940 l 1
 345 844 l 1
 424 940 l 1
 488 940 l 1
 392 790 l 1
EndSplineSet
EndChar
StartChar: ecaron
Encoding: 283 283
Width: 556
Flags: W
HStem: -23 77<254.5 314.5> 234 68<129 423> 462 77<237 320> 721 20<143 206 206 206 366 430 430 430>
Fore
513 234 m 1
 127 234 l 1
 128 182 135 152 155 122 c 0
 183 78 228 54 281 54 c 0
 348 54 395 90 418 159 c 1
 502 159 l 1
 481 45 398 -23 278 -23 c 0
 131 -23 40 83 40 255 c 0
 40 427 134 539 280 539 c 0
 378 539 458 487 492 401 c 0
 507 362 513 314 513 234 c 1
129 302 m 1
 423 302 l 1
 424 304 424 306 424 308 c 0
 424 394 361 462 279 462 c 0
 195 462 136 399 129 302 c 1
334 591 m 1
 239 591 l 1
 143 741 l 1
 206 741 l 1
 287 645 l 1
 366 741 l 1
 430 741 l 1
 334 591 l 1
EndSplineSet
EndChar
StartChar: Gbreve
Encoding: 286 286
Width: 778
Flags: W
HStem: -23 82<361 427.5> 303 82<405 627> 659 82<349.5 448.5> 796 69<371.5 427>
VStem: 44 93<317 422.5> 627 82<93 93 283 303 303 303>
Fore
709 385 m 1
 709 -4 l 1
 650 -4 l 1
 627 93 l 1
 556 14 477 -23 378 -23 c 0
 181 -23 44 133 44 357 c 0
 44 488 92 601 176 671 c 0
 233 718 305 741 394 741 c 0
 561 741 673 656 699 508 c 1
 604 508 l 1
 584 602 504 659 393 659 c 0
 239 659 137 541 137 362 c 0
 137 272 166 185 214 133 c 0
 257 86 324 59 398 59 c 0
 531 59 627 153 627 283 c 2
 627 303 l 1
 405 303 l 1
 405 385 l 1
 709 385 l 1
249 931 m 1
 308 931 l 1
 313 887 343 865 400 865 c 0
 454 865 487 889 491 931 c 1
 550 931 l 1
 543 842 491 796 398 796 c 0
 342 796 297 816 270 853 c 0
 255 873 250 892 249 931 c 1
EndSplineSet
EndChar
StartChar: gbreve
Encoding: 287 287
Width: 556
Flags: W
HStem: -218 70<239 283.5> -23 77<217.5 278> 462 77<216.5 285.5> 597 69<254.5 310> 712 20<132 191 191 191 374 433 433 433>
VStem: 29 87<210 321> 412 77<448 524>
Fore
412 524 m 1
 489 524 l 1
 489 86 l 2
 489 -37 474 -103 434 -151 c 0
 400 -193 333 -218 255 -218 c 0
 132 -218 55 -159 46 -60 c 1
 131 -60 l 1
 136 -91 144 -105 163 -120 c 0
 186 -138 220 -148 258 -148 c 0
 309 -148 352 -130 374 -99 c 0
 395 -70 404 -27 404 44 c 2
 404 71 l 1
 357 5 311 -23 245 -23 c 0
 190 -23 134 3 95 47 c 0
 52 97 29 167 29 253 c 0
 29 423 119 539 252 539 c 0
 319 539 370 510 412 448 c 1
 412 524 l 1
261 462 m 0
 172 462 116 384 116 258 c 0
 116 131 171 54 262 54 c 0
 350 54 404 130 404 255 c 0
 404 386 351 462 261 462 c 0
132 732 m 1
 191 732 l 1
 196 688 226 666 283 666 c 0
 337 666 370 690 374 732 c 1
 433 732 l 1
 426 643 374 597 281 597 c 0
 225 597 180 617 153 654 c 0
 139 674 133 693 132 732 c 1
EndSplineSet
EndChar
StartChar: Gcommaaccent
Encoding: 290 290
Width: 778
Flags: W
HStem: -160 100<337 392> -23 82<361 427.5> 303 82<405 627> 659 82<349.5 448.5>
VStem: 44 93<317 422.5> 627 82<93 93 283 303 303 303>
Fore
709 385 m 1
 709 -4 l 1
 650 -4 l 1
 627 93 l 1
 556 14 477 -23 378 -23 c 0
 181 -23 44 133 44 357 c 0
 44 488 92 601 176 671 c 0
 233 718 305 741 394 741 c 0
 561 741 673 656 699 508 c 1
 604 508 l 1
 584 602 504 659 393 659 c 0
 239 659 137 541 137 362 c 0
 137 272 166 185 214 133 c 0
 257 86 324 59 398 59 c 0
 531 59 627 153 627 283 c 2
 627 303 l 1
 405 303 l 1
 405 385 l 1
 709 385 l 1
337 -60 m 1
 437 -60 l 1
 437 -163 l 2
 437 -238 399 -285 337 -284 c 1
 337 -246 l 1
 375 -246 394 -215 392 -160 c 1
 337 -160 l 1
 337 -60 l 1
EndSplineSet
EndChar
StartChar: gcommaaccent
Encoding: 291 291
Width: 556
Flags: W
HStem: -218 70<239 283.5> -23 77<217.5 278> 462 77<216.5 285.5> 592 100<277 332>
VStem: 29 87<210 321> 412 77<448 524>
Fore
412 524 m 1
 489 524 l 1
 489 86 l 2
 489 -37 474 -103 434 -151 c 0
 400 -193 333 -218 255 -218 c 0
 132 -218 55 -159 46 -60 c 1
 131 -60 l 1
 136 -91 144 -105 163 -120 c 0
 186 -138 220 -148 258 -148 c 0
 309 -148 352 -130 374 -99 c 0
 395 -70 404 -27 404 44 c 2
 404 71 l 1
 357 5 311 -23 245 -23 c 0
 190 -23 134 3 95 47 c 0
 52 97 29 167 29 253 c 0
 29 423 119 539 252 539 c 0
 319 539 370 510 412 448 c 1
 412 524 l 1
261 462 m 0
 172 462 116 384 116 258 c 0
 116 131 171 54 262 54 c 0
 350 54 404 130 404 255 c 0
 404 386 351 462 261 462 c 0
332 592 m 1
 232 592 l 1
 232 695 l 2
 232 770 270 817 332 816 c 1
 332 778 l 1
 330 777 l 2
 293 776 275 747 277 692 c 1
 332 692 l 1
 332 592 l 1
EndSplineSet
EndChar
StartChar: Hbar
Encoding: 294 294
Width: 722
Flags: W
HStem: 0 21G<83 177 551 644> 332 82<177 551> 506 70<39 83 176 551 644 688> 709 20G<83 176 551 644>
VStem: 83 94<0 332 414 504 576 729> 551 93<0 332 414 504 576 729>
Fore
176 504 m 1
 176 414 l 1
 551 414 l 1
 551 504 l 1
 176 504 l 1
83 576 m 1
 83 729 l 1
 176 729 l 1
 176 576 l 1
 551 576 l 1
 551 729 l 1
 644 729 l 1
 644 576 l 1
 688 576 l 1
 688 506 l 1
 644 506 l 1
 644 0 l 1
 551 0 l 1
 551 332 l 1
 177 332 l 1
 177 0 l 1
 83 0 l 1
 83 506 l 1
 39 506 l 1
 39 576 l 1
 83 576 l 1
EndSplineSet
MinimumDistance: x12,-1 y8,10 y8,9 x5,7 x6,4 y4,6 y4,5 y18,20 y18,19 y17,15 y17,16 x11,13 x11,12 x4,22 x4,23 
EndChar
StartChar: hbar
Encoding: 295 295
Width: 556
Flags: W
HStem: 0 21G<70 153 403 486> 466 72.0129<296 305> 600 53<8 70 153 302> 709 20G<70 153>
VStem: 7 296<600 653> 70 83<1 304 453 600 653 728> 403 83<1 368>
Fore
153 653 m 1
 303 653 l 1
 303 600 l 1
 153 600 l 1
 153 452 l 1
 202 516 247 539 321 539 c 0
 423 539 486 484 486 396 c 2
 486 0 l 1
 403 0 l 1
 403 363 l 2
 403 400 393 425 369 442 c 0
 349 457 322 466 295 466 c 0
 209 466 153 396 153 289 c 2
 153 0 l 1
 70 0 l 1
 70 600 l 1
 7 600 l 1
 7 653 l 1
 70 653 l 1
 70 729 l 1
 153 729 l 1
 153 653 l 1
EndSplineSet
MinimumDistance: x6,-1 y15,13 y15,14 y0,19 y0,20 x15,17 x15,16 x0,2 x0,1 
EndChar
StartChar: Imacron
Encoding: 298 298
Width: 278
Flags: W
HStem: 0 20 709 20<100 194 194 194> 830 70<20 274>
VStem: 20 254<830 900> 100 94<0 729>
Fore
194 729 m 1
 194 0 l 1
 100 0 l 1
 100 729 l 1
 194 729 l 1
274 900 m 5
 274 830 l 5
 20 830 l 5
 20 900 l 5
 274 900 l 5
EndSplineSet
EndChar
StartChar: imacron
Encoding: 299 299
Width: 222
Flags: W
HStem: 0 20 504 20<66 149 149 149> 631 70<-16 231>
VStem: -16 247<631 701> 66 83<0 524>
Fore
149 524 m 1
 149 0 l 1
 66 0 l 1
 66 524 l 1
 149 524 l 1
231 701 m 1
 231 631 l 1
 -16 631 l 1
 -16 701 l 1
 231 701 l 1
EndSplineSet
EndChar
StartChar: Iogonek
Encoding: 302 302
Width: 278
Flags: MW
HStem: -204 45<173.5 184> 709 20<100 194 194 194>
VStem: 66 72<-122.5 -94>
Fore
194 729 m 1
 194 0 l 1
 158 -33 138 -71 138 -107 c 0
 138 -138 158 -159 189 -159 c 0
 203 -159 216 -156 234 -150 c 1
 234 -195 l 1
 216 -200 193 -204 175 -204 c 0
 110 -204 66 -169 66 -116 c 0
 66 -72 86 -41 143 0 c 1
 100 0 l 1
 100 729 l 1
 194 729 l 1
EndSplineSet
EndChar
StartChar: iogonek
Encoding: 303 303
Width: 222
Flags: W
HStem: -204 45<132 140.5> 624 105<66 150>
VStem: 25 72<-119.5 -95> 66 84<624 729>
Fore
150 524 m 1
 150 0 l 1
 120 -27 97 -71 97 -103 c 0
 97 -136 117 -159 147 -159 c 0
 160 -159 172 -156 190 -150 c 1
 190 -195 l 1
 173 -200 149 -204 132 -204 c 0
 69 -204 25 -168 25 -116 c 0
 25 -74 43 -45 99 0 c 1
 67 0 l 1
 67 524 l 1
 150 524 l 1
150 729 m 1
 150 624 l 1
 66 624 l 1
 66 729 l 1
 150 729 l 1
EndSplineSet
EndChar
StartChar: Idotaccent
Encoding: 304 304
Width: 278
Flags: W
HStem: 0 21G<101 195> 709 20G<101 195> 811 104<97 199>
VStem: 101 94<1 728>
Fore
195 729 m 1
 195 0 l 1
 101 0 l 1
 101 729 l 1
 195 729 l 1
200 915 m 1
 200 811 l 1
 96 811 l 1
 96 915 l 1
 200 915 l 1
EndSplineSet
MinimumDistance: x0,-1 
EndChar
StartChar: dotlessi
Encoding: 305 305
Width: 278
Flags: MW
HStem: 0 20 504 20<94 178 178 178>
VStem: 94 84<0 524>
Fore
178 524 m 1
 178 0 l 1
 94 0 l 1
 94 524 l 1
 178 524 l 1
EndSplineSet
EndChar
StartChar: jcircumflex
Encoding: 309 309
Width: 222
HStem: -218 73<0 16> 504 20G<70 153>
VStem: 70 83<-90 523>
Fore
70 524 m 1
 153 524 l 1
 153 -109 l 2
 153 -180 104 -218 10 -218 c 0
 -3 -218 -8 -217 -18 -215 c 1
 -18 -144 l 1
 -1 -145 -1 -145 2 -145 c 0
 53 -145 70 -128 70 -76 c 2
 70 524 l 1
64 785 m 1
 159 785 l 1
 255 635 l 1
 192 635 l 1
 111 731 l 1
 32 635 l 1
 -32 635 l 1
 64 785 l 1
EndSplineSet
MinimumDistance: x1,-1 
EndChar
StartChar: Kcommaaccent
Encoding: 310 310
Width: 667
Flags: W
HStem: -160 100<299 354> 0 20 709 20<79 172 172 172 535 655 655 655>
VStem: 79 93<0 255 360 729>
Fore
172 255 m 1
 172 0 l 1
 79 0 l 1
 79 729 l 1
 172 729 l 1
 172 360 l 1
 535 729 l 1
 655 729 l 1
 358 432 l 1
 658 0 l 1
 548 0 l 1
 291 374 l 1
 172 255 l 1
299 -60 m 1
 399 -60 l 1
 399 -163 l 2
 399 -238 361 -285 299 -284 c 1
 299 -246 l 1
 337 -246 356 -215 354 -160 c 1
 299 -160 l 1
 299 -60 l 1
EndSplineSet
EndChar
StartChar: kcommaaccent
Encoding: 311 311
Width: 500
Flags: W
HStem: -160 100<217 272> 0 20 709 20<58 141 141 141>
VStem: 58 83<0 204 302 729>
Fore
141 729 m 1
 141 302 l 1
 363 524 l 1
 470 524 l 1
 288 343 l 1
 502 0 l 1
 399 0 l 1
 222 284 l 1
 141 204 l 1
 141 0 l 1
 58 0 l 1
 58 729 l 1
 141 729 l 1
217 -60 m 1
 317 -60 l 1
 317 -163 l 2
 317 -238 279 -285 217 -284 c 1
 217 -246 l 1
 255 -246 274 -215 272 -160 c 1
 217 -160 l 1
 217 -60 l 1
EndSplineSet
EndChar
StartChar: kgreenlandic
Encoding: 312 312
Width: 500
Flags: W
HStem: 0 21G<58 141 399 502> 504 20G<58 141 363 470>
VStem: 58 83<1 215 303 523>
DStem: 141 216 198 264 399 0 502 0 363 524 470 524 141 302 198 264
Fore
141 524 m 1
 141 302 l 1
 363 524 l 1
 470 524 l 1
 198 264 l 1
 502 0 l 1
 399 0 l 1
 141 216 l 1
 141 0 l 1
 58 0 l 1
 58 524 l 1
 141 524 l 1
EndSplineSet
EndChar
StartChar: Lacute
Encoding: 313 313
Width: 556
Flags: MW
HStem: 0 82<173 533> 709 20<80 173 173 173>
VStem: 80 93<82 729>
Fore
173 729 m 1
 173 82 l 1
 533 82 l 1
 533 0 l 1
 80 0 l 1
 80 729 l 1
 173 729 l 1
166 939 m 1
 279 939 l 1
 130 791 l 1
 70 791 l 1
 166 939 l 1
EndSplineSet
EndChar
StartChar: lacute
Encoding: 314 314
Width: 222
Flags: MW
HStem: 0 20 709 20<68 152 152 152>
VStem: 68 84<0 729>
Fore
152 729 m 1
 152 0 l 1
 68 0 l 1
 68 729 l 1
 152 729 l 1
159 939 m 1
 272 939 l 1
 123 791 l 1
 63 791 l 1
 159 939 l 1
EndSplineSet
EndChar
StartChar: Lcommaaccent
Encoding: 315 315
Width: 556
Flags: W
HStem: -160 100<257 312> 0 82<173 533> 709 20<80 173 173 173>
VStem: 80 93<82 729>
Fore
173 729 m 1
 173 82 l 1
 533 82 l 1
 533 0 l 1
 80 0 l 1
 80 729 l 1
 173 729 l 1
257 -60 m 1
 357 -60 l 1
 357 -163 l 2
 357 -238 319 -285 257 -284 c 1
 257 -246 l 1
 295 -246 314 -215 312 -160 c 1
 257 -160 l 1
 257 -60 l 1
EndSplineSet
EndChar
StartChar: lcommaaccent
Encoding: 316 316
Width: 222
Flags: MW
HStem: -160 100<63 118> 709 20<68 152 152 152>
VStem: 68 84<0 729>
Fore
152 729 m 1
 152 0 l 1
 68 0 l 1
 68 729 l 1
 152 729 l 1
63 -60 m 1
 163 -60 l 1
 163 -163 l 2
 163 -238 125 -285 63 -284 c 1
 63 -246 l 1
 101 -246 120 -215 118 -160 c 1
 63 -160 l 1
 63 -60 l 1
EndSplineSet
EndChar
StartChar: Lcaron
Encoding: 317 317
Width: 556
Flags: W
HStem: 0 82<173 533> 629 100 709 20<80 173 173 173 273 373 373 373>
VStem: 80 93<82 729>
Fore
173 729 m 1
 173 82 l 1
 533 82 l 1
 533 0 l 1
 80 0 l 1
 80 729 l 1
 173 729 l 1
273 729 m 1
 373 729 l 1
 373 626 l 2
 373 556 335 505 281 505 c 2
 273 505 l 1
 273 543 l 1
 311 543 330 574 328 629 c 1
 273 629 l 1
 273 729 l 1
EndSplineSet
EndChar
StartChar: lcaron
Encoding: 318 318
Width: 292
Flags: W
HStem: 0 20 629 100 709 20<68 152 152 152 205 305 305 305>
VStem: 68 84<0 729>
Fore
152 729 m 1
 152 0 l 1
 68 0 l 1
 68 729 l 1
 152 729 l 1
205 729 m 1
 305 729 l 1
 305 626 l 2
 305 556 267 505 213 505 c 2
 205 505 l 1
 205 543 l 1
 243 543 262 574 260 629 c 1
 205 629 l 1
 205 729 l 1
EndSplineSet
EndChar
StartChar: Lslash
Encoding: 321 321
Width: 556
Flags: MW
HStem: 0 82<173 552> 709 20<80 173 173 173>
VStem: 80 93<82 280 280 280 406 729>
Fore
173 406 m 1
 344 527 l 1
 344 451 l 1
 173 329 l 1
 173 82 l 1
 552 82 l 1
 552 0 l 1
 80 0 l 1
 80 280 l 1
 0 223 l 1
 0 300 l 1
 80 356 l 1
 80 729 l 1
 173 729 l 1
 173 406 l 1
EndSplineSet
EndChar
StartChar: lslash
Encoding: 322 322
Width: 222
Flags: MW
HStem: 0 20 709 20<63 146 146 146>
VStem: 63 83<0 313 313 313 421 729>
Fore
146 421 m 1
 212 472 l 1
 212 408 l 1
 146 357 l 1
 146 0 l 1
 63 0 l 1
 63 313 l 1
 0 263 l 1
 0 327 l 1
 63 377 l 1
 63 729 l 1
 146 729 l 1
 146 421 l 1
EndSplineSet
EndChar
StartChar: Nacute
Encoding: 323 323
Width: 722
Flags: MW
HStem: 0 20 709 20<76 177 177 177 558 646 646 646>
VStem: 76 88<0 591> 558 88<133 729>
Fore
646 729 m 1
 646 0 l 1
 541 0 l 1
 164 591 l 1
 164 0 l 1
 76 0 l 1
 76 729 l 1
 177 729 l 1
 558 133 l 1
 558 729 l 1
 646 729 l 1
389 939 m 1
 502 939 l 1
 353 791 l 1
 293 791 l 1
 389 939 l 1
EndSplineSet
EndChar
StartChar: nacute
Encoding: 324 324
Width: 556
Flags: W
HStem: 0 20 466 73<282 329> 504 20<70 147 147 147> 720 20<310 423 423 423>
VStem: 70 84<0 289> 70 77<436 524> 404 83<0 363 363 394.5>
Fore
70 524 m 1
 147 524 l 1
 147 436 l 1
 193 509 243 539 321 539 c 0
 422 539 487 483 487 396 c 2
 487 0 l 1
 404 0 l 1
 404 363 l 2
 404 426 362 466 296 466 c 0
 210 466 154 396 154 289 c 2
 154 0 l 1
 70 0 l 1
 70 524 l 1
310 740 m 1
 423 740 l 1
 274 592 l 1
 214 592 l 1
 310 740 l 1
EndSplineSet
EndChar
StartChar: Ncommaaccent
Encoding: 325 325
Width: 722
Flags: W
HStem: -160 100<298 353> 0 20 709 20<76 177 177 177 558 646 646 646>
VStem: 76 88<0 591> 558 88<133 729>
Fore
646 729 m 1
 646 0 l 1
 541 0 l 1
 164 591 l 1
 164 0 l 1
 76 0 l 1
 76 729 l 1
 177 729 l 1
 558 133 l 1
 558 729 l 1
 646 729 l 1
298 -60 m 1
 398 -60 l 1
 398 -163 l 2
 398 -238 360 -285 298 -284 c 1
 298 -246 l 1
 336 -246 355 -215 353 -160 c 1
 298 -160 l 1
 298 -60 l 1
EndSplineSet
EndChar
StartChar: ncommaaccent
Encoding: 326 326
Width: 556
Flags: W
HStem: -160 100<229 284> 0 20 466 73<282 329> 504 20<70 147 147 147>
VStem: 70 84<0 289> 70 77<436 524> 404 83<0 363 363 394.5>
Fore
70 524 m 1
 147 524 l 1
 147 436 l 1
 193 509 243 539 321 539 c 0
 422 539 487 483 487 396 c 2
 487 0 l 1
 404 0 l 1
 404 363 l 2
 404 426 362 466 296 466 c 0
 210 466 154 396 154 289 c 2
 154 0 l 1
 70 0 l 1
 70 524 l 1
229 -60 m 1
 329 -60 l 1
 329 -163 l 2
 329 -238 291 -285 229 -284 c 1
 229 -246 l 1
 267 -246 286 -215 284 -160 c 1
 229 -160 l 1
 229 -60 l 1
EndSplineSet
EndChar
StartChar: Ncaron
Encoding: 327 327
Width: 722
Flags: MW
HStem: 0 20 709 20<76 177 177 177 558 646 646 646>
VStem: 76 88<0 591> 558 88<133 729>
Fore
646 729 m 1
 646 0 l 1
 541 0 l 1
 164 591 l 1
 164 0 l 1
 76 0 l 1
 76 729 l 1
 177 729 l 1
 558 133 l 1
 558 729 l 1
 646 729 l 1
409 790 m 1
 314 790 l 1
 218 940 l 1
 281 940 l 1
 362 844 l 1
 441 940 l 1
 505 940 l 1
 409 790 l 1
EndSplineSet
EndChar
StartChar: ncaron
Encoding: 328 328
Width: 556
Flags: W
HStem: 0 20 466 73<282 329> 504 20<70 147 147 147> 721 20<135 198 198 198 358 422 422 422>
VStem: 70 84<0 289> 70 77<436 524> 404 83<0 363 363 394.5>
Fore
70 524 m 1
 147 524 l 1
 147 436 l 1
 193 509 243 539 321 539 c 0
 422 539 487 483 487 396 c 2
 487 0 l 1
 404 0 l 1
 404 363 l 2
 404 426 362 466 296 466 c 0
 210 466 154 396 154 289 c 2
 154 0 l 1
 70 0 l 1
 70 524 l 1
326 591 m 1
 231 591 l 1
 135 741 l 1
 198 741 l 1
 279 645 l 1
 358 741 l 1
 422 741 l 1
 326 591 l 1
EndSplineSet
EndChar
StartChar: napostrophe
Encoding: 329 329
Width: 556
Flags: W
HStem: 0 21G<70 154 404 487> 465.988 72.0638<296 321> 504 20G<70 147>
VStem: 70 77<437 523> 70 84<1 304> 404 83<1 368>
Fore
70 524 m 1
 147 524 l 1
 147 436 l 1
 193 509 243 539 321 539 c 0
 422 539 487 483 487 396 c 2
 487 0 l 1
 404 0 l 1
 404 363 l 2
 404 426 362 466 296 466 c 0
 210 466 154 396 154 289 c 2
 154 0 l 1
 70 0 l 1
 70 524 l 1
EndSplineSet
MinimumDistance: x4,-1 
EndChar
StartChar: Eng
Encoding: 330 330
Width: 722
Flags: W
HStem: -218 73<488 509> 0 21G<76 164 541 646> 709 20G<76 177 558 646>
VStem: 76 88<0 591> 558 88<-91 0 133 729>
DStem: 164 591 177 729 541 0 558 133
Fore
558 224 m 5
 646 224 l 5
 646 -109 l 6
 646 -180 592 -218 498 -218 c 4
 485 -218 480 -217 470 -215 c 5
 470 -144 l 5
 487 -145 487 -145 490 -145 c 4
 541 -145 558 -128 558 -76 c 6
 558 224 l 5
646 729 m 1
 646 0 l 1
 541 0 l 1
 164 591 l 1
 164 0 l 1
 76 0 l 1
 76 729 l 1
 177 729 l 1
 558 133 l 1
 558 729 l 1
 646 729 l 1
EndSplineSet
MinimumDistance: x1,-1 
EndChar
StartChar: eng
Encoding: 331 331
Width: 556
Flags: W
HStem: -218 73<334 347> 0 21G<70 154> 466 73<295 321> 504 20G<70 147>
VStem: 70 77<436 524> 70 84<0 311> 404 83<-91 375>
Fore
487 396 m 2
 487 -109 l 2
 487 -180 438 -218 344 -218 c 0
 331 -218 326 -217 316 -215 c 1
 316 -144 l 1
 333 -145 333 -145 336 -145 c 0
 387 -145 404 -128 404 -76 c 2
 404 363 l 2
 404 426 362 466 296 466 c 0
 210 466 154 396 154 289 c 2
 154 0 l 1
 70 0 l 1
 70 524 l 1
 147 524 l 1
 147 436 l 1
 193 509 243 539 321 539 c 0
 422 539 487 483 487 396 c 2
EndSplineSet
MinimumDistance: x0,-1 
EndChar
StartChar: Omacron
Encoding: 332 332
Width: 778
Flags: W
HStem: -23 82<312.5 434> 659 82<312 468> 830 70<253 527>
VStem: 38 93<269 449> 649 93<293.5 447>
Fore
389 741 m 0
 603 741 742 588 742 353 c 0
 742 234 695 121 616 54 c 0
 557 4 478 -23 390 -23 c 0
 180 -23 38 131 38 359 c 0
 38 587 180 741 389 741 c 0
389 659 m 0
 235 659 131 539 131 359 c 0
 131 179 235 59 390 59 c 0
 544 59 649 179 649 355 c 0
 649 539 547 659 389 659 c 0
527 900 m 1
 527 830 l 1
 253 830 l 1
 253 900 l 1
 527 900 l 1
EndSplineSet
EndChar
StartChar: omacron
Encoding: 333 333
Width: 556
Flags: W
HStem: -23 77<226.5 319> 462 77<226.5 320> 631 70<136 410>
VStem: 36 87<194.5 321> 423 87<193.5 320>
Fore
272 539 m 0
 423 539 510 435 510 254 c 0
 510 82 420 -23 273 -23 c 0
 124 -23 36 82 36 258 c 0
 36 434 125 539 272 539 c 0
273 462 m 0
 180 462 123 384 123 258 c 0
 123 131 180 54 273 54 c 0
 365 54 423 132 423 255 c 0
 423 385 367 462 273 462 c 0
410 701 m 1
 410 631 l 1
 136 631 l 1
 136 701 l 1
 410 701 l 1
EndSplineSet
EndChar
StartChar: Ohungarumlaut
Encoding: 336 336
Width: 778
Flags: MW
HStem: -23 82<312.5 434> 659 82<312 468>
VStem: 38 93<269 449> 649 93<293.5 447>
Fore
389 741 m 0
 603 741 742 588 742 353 c 0
 742 234 695 121 616 54 c 0
 557 4 478 -23 390 -23 c 0
 180 -23 38 131 38 359 c 0
 38 587 180 741 389 741 c 0
389 659 m 0
 235 659 131 539 131 359 c 0
 131 179 235 59 390 59 c 0
 544 59 649 179 649 355 c 0
 649 539 547 659 389 659 c 0
364 939 m 1
 477 939 l 1
 328 789 l 1
 268 789 l 1
 364 939 l 1
538 939 m 1
 651 939 l 1
 502 789 l 1
 442 789 l 1
 538 939 l 1
EndSplineSet
EndChar
StartChar: ohungarumlaut
Encoding: 337 337
Width: 556
Flags: W
HStem: -23 77<226.5 319> 462 77<226.5 320> 720 20<239 352 352 352 413 526 526 526>
VStem: 36 87<194.5 321> 423 87<193.5 320>
Fore
272 539 m 0
 423 539 510 435 510 254 c 0
 510 82 420 -23 273 -23 c 0
 124 -23 36 82 36 258 c 0
 36 434 125 539 272 539 c 0
273 462 m 0
 180 462 123 384 123 258 c 0
 123 131 180 54 273 54 c 0
 365 54 423 132 423 255 c 0
 423 385 367 462 273 462 c 0
239 740 m 1
 352 740 l 1
 203 590 l 1
 143 590 l 1
 239 740 l 1
413 740 m 1
 526 740 l 1
 377 590 l 1
 317 590 l 1
 413 740 l 1
EndSplineSet
EndChar
StartChar: OE
Encoding: 338 338
Width: 1000
Flags: W
HStem: -20 82<308 381.5> 0 82<618 959> 327 82<618 946> 647 82<618 954 618 618> 659 82<308.5 383>
VStem: 43 93<309.5 411> 525 93<182 327 409 539 539 539>
Fore
618 327 m 1
 618 82 l 1
 959 82 l 1
 959 0 l 1
 525 0 l 1
 525 74 l 1
 479 9 422 -20 341 -20 c 0
 256 -20 182 12 130 72 c 0
 71 140 43 232 43 356 c 0
 43 492 78 596 146 663 c 0
 195 712 269 741 342 741 c 0
 424 741 483 713 525 653 c 1
 525 729 l 1
 954 729 l 1
 954 647 l 1
 618 647 l 1
 618 409 l 1
 946 409 l 1
 946 327 l 1
 618 327 l 1
525 182 m 1
 525 539 l 1
 485 620 426 659 342 659 c 0
 275 659 222 632 187 581 c 0
 151 527 136 462 136 360 c 0
 136 259 151 194 187 140 c 0
 222 89 275 62 341 62 c 0
 425 62 485 101 525 182 c 1
EndSplineSet
EndChar
StartChar: oe
Encoding: 339 339
Width: 944
Flags: MW
HStem: -23 77<230.5 321 640.5 700.5> 234 68<515 809> 462 77<230.5 321.5 625.5 707.5>
VStem: 40 87<195 322>
Fore
804 159 m 1
 888 159 l 1
 867 45 784 -23 665 -23 c 0
 580 -23 511 14 471 80 c 1
 429 11 365 -23 277 -23 c 0
 126 -23 40 79 40 259 c 0
 40 438 126 539 277 539 c 0
 366 539 433 503 473 433 c 1
 514 500 585 539 666 539 c 0
 764 539 844 487 878 401 c 0
 893 362 899 314 899 234 c 1
 513 234 l 1
 514 182 521 152 541 122 c 0
 569 78 614 54 667 54 c 0
 734 54 781 90 804 159 c 1
277 462 m 0
 184 462 127 385 127 259 c 0
 127 131 184 54 277 54 c 0
 369 54 427 131 427 256 c 0
 427 385 371 462 277 462 c 0
515 302 m 1
 809 302 l 1
 809 397 750 462 665 462 c 0
 581 462 522 399 515 302 c 1
EndSplineSet
EndChar
StartChar: Racute
Encoding: 340 340
Width: 722
Flags: MW
HStem: 0 20 314 82<186 411 411 426> 647 82<186 411 186 186>
VStem: 93 93<0 314 396 647> 554 97<492.5 543>
Fore
186 314 m 1
 186 0 l 1
 93 0 l 1
 93 729 l 1
 429 729 l 2
 572 729 651 660 651 534 c 0
 651 451 618 400 536 360 c 1
 615 326 634 290 635 170 c 0
 637 73 644 47 679 23 c 1
 679 0 l 1
 566 0 l 1
 553 30 545 74 545 119 c 1
 546 184 l 1
 546 274 509 314 426 314 c 2
 186 314 l 1
186 396 m 1
 411 396 l 2
 510 396 554 435 554 521 c 0
 554 565 541 598 516 619 c 0
 493 639 463 647 411 647 c 2
 186 647 l 1
 186 396 l 1
383 939 m 1
 496 939 l 1
 347 791 l 1
 287 791 l 1
 383 939 l 1
EndSplineSet
EndChar
StartChar: racute
Encoding: 341 341
Width: 333
Flags: W
HStem: 0 20 504 20<69 146 146 146> 519 20<262 294.5> 720 20<218 331 331 331>
VStem: 69 84<0 272> 69 77<429 524>
Fore
69 524 m 5
 146 524 l 1
 146 429 l 1
 194 507 235 539 289 539 c 0
 300 539 307 538 321 536 c 1
 321 451 l 1
 263 450 238 444 212 425 c 0
 172 396 153 347 153 272 c 2
 153 0 l 1
 69 0 l 1
 69 524 l 5
218 740 m 1
 331 740 l 1
 182 592 l 1
 122 592 l 1
 218 740 l 1
EndSplineSet
EndChar
StartChar: Rcommaaccent
Encoding: 342 342
Width: 722
Flags: W
HStem: -160 100<319 374> 0 20 314 82<186 411 411 426> 647 82<186 411 186 186>
VStem: 93 93<0 314 396 647> 554 97<492.5 543>
Fore
186 314 m 1
 186 0 l 1
 93 0 l 1
 93 729 l 1
 429 729 l 2
 572 729 651 660 651 534 c 0
 651 451 618 400 536 360 c 1
 615 326 634 290 635 170 c 0
 637 73 644 47 679 23 c 1
 679 0 l 1
 566 0 l 1
 553 30 545 74 545 119 c 1
 546 184 l 1
 546 274 509 314 426 314 c 2
 186 314 l 1
186 396 m 1
 411 396 l 2
 510 396 554 435 554 521 c 0
 554 565 541 598 516 619 c 0
 493 639 463 647 411 647 c 2
 186 647 l 1
 186 396 l 1
319 -60 m 1
 419 -60 l 1
 419 -163 l 2
 419 -238 381 -285 319 -284 c 1
 319 -246 l 1
 357 -246 376 -215 374 -160 c 1
 319 -160 l 1
 319 -60 l 1
EndSplineSet
EndChar
StartChar: rcommaaccent
Encoding: 343 343
Width: 333
Flags: W
HStem: -160 100<65 120> 504 20<69 146 146 146> 519 20<262 294.5>
VStem: 69 84<0 272> 69 77<429 524>
Fore
69 524 m 1
 146 524 l 1
 146 429 l 1
 194 507 235 539 289 539 c 0
 300 539 307 538 321 536 c 1
 321 451 l 1
 263 450 238 444 212 425 c 0
 172 396 153 347 153 272 c 2
 153 0 l 1
 69 0 l 1
 69 524 l 1
65 -60 m 1
 165 -60 l 1
 165 -163 l 2
 165 -238 127 -285 65 -284 c 1
 65 -246 l 1
 103 -246 122 -215 120 -160 c 1
 65 -160 l 1
 65 -60 l 1
EndSplineSet
EndChar
StartChar: Rcaron
Encoding: 344 344
Width: 722
Flags: MW
HStem: 0 20 314 82<186 411 411 426> 647 82<186 411 186 186>
VStem: 93 93<0 314 396 647> 554 97<492.5 543>
Fore
186 314 m 1
 186 0 l 1
 93 0 l 1
 93 729 l 1
 429 729 l 2
 572 729 651 660 651 534 c 0
 651 451 618 400 536 360 c 1
 615 326 634 290 635 170 c 0
 637 73 644 47 679 23 c 1
 679 0 l 1
 566 0 l 1
 553 30 545 74 545 119 c 1
 546 184 l 1
 546 274 509 314 426 314 c 2
 186 314 l 1
186 396 m 1
 411 396 l 2
 510 396 554 435 554 521 c 0
 554 565 541 598 516 619 c 0
 493 639 463 647 411 647 c 2
 186 647 l 1
 186 396 l 1
404 790 m 1
 309 790 l 1
 213 940 l 1
 276 940 l 1
 357 844 l 1
 436 940 l 1
 500 940 l 1
 404 790 l 1
EndSplineSet
EndChar
StartChar: rcaron
Encoding: 345 345
Width: 333
Flags: W
HStem: 0 20 504 20<69 146 146 146> 519 20<262 294.5> 721 20<48 111 111 111 271 335 335 335>
VStem: 69 84<0 272> 69 77<429 524>
Fore
69 524 m 1
 146 524 l 1
 146 429 l 1
 194 507 235 539 289 539 c 0
 300 539 307 538 321 536 c 1
 321 451 l 1
 263 450 238 444 212 425 c 0
 172 396 153 347 153 272 c 2
 153 0 l 1
 69 0 l 1
 69 524 l 1
239 591 m 1
 144 591 l 1
 48 741 l 1
 111 741 l 1
 192 645 l 1
 271 741 l 1
 335 741 l 1
 239 591 l 1
EndSplineSet
EndChar
StartChar: Sacute
Encoding: 346 346
Width: 667
Flags: MW
HStem: -23 82<302.5 371.5> 663 78<277 384>
VStem: 70 93<512 577> 528 93<171.5 219.5>
Fore
596 515 m 1
 508 515 l 1
 507 610 442 663 326 663 c 0
 228 663 163 614 163 540 c 0
 163 484 195 456 283 432 c 2
 466 383 l 2
 565 356 621 290 621 200 c 0
 621 137 590 72 541 33 c 0
 494 -3 423 -23 336 -23 c 0
 225 -23 141 13 91 81 c 0
 62 121 49 165 48 232 c 1
 136 232 l 1
 135 187 147 152 174 120 c 0
 209 78 263 59 342 59 c 0
 401 59 447 70 476 90 c 0
 507 112 528 152 528 191 c 0
 528 248 486 285 394 309 c 2
 213 357 l 2
 117 382 70 438 70 527 c 0
 70 659 169 741 329 741 c 0
 497 741 595 658 596 515 c 1
362 939 m 1
 475 939 l 1
 326 791 l 1
 266 791 l 1
 362 939 l 1
EndSplineSet
EndChar
StartChar: sacute
Encoding: 347 347
Width: 500
Flags: W
HStem: -23 77<227.5 286.5> 462 77<211 278.5> 720 20<275 388 388 388>
VStem: 47 87<364.5 407> 372 87<111.5 155>
Fore
438 378 m 1
 350 378 l 1
 348 433 312 462 245 462 c 0
 177 462 134 431 134 383 c 0
 134 346 163 324 231 308 c 2
 311 289 l 2
 415 264 459 221 459 143 c 0
 459 42 375 -23 243 -23 c 0
 106 -23 38 35 34 156 c 1
 122 156 l 1
 127 119 133 104 146 89 c 0
 167 67 205 54 250 54 c 0
 323 54 372 87 372 136 c 0
 372 174 349 195 291 209 c 2
 213 228 l 2
 89 258 47 297 47 379 c 0
 47 476 126 539 248 539 c 0
 369 539 437 481 438 378 c 1
275 740 m 1
 388 740 l 1
 239 592 l 1
 179 592 l 1
 275 740 l 1
EndSplineSet
EndChar
StartChar: Scedilla
Encoding: 350 350
Width: 667
Flags: MW
HStem: -214 41<285.5 313.5> -91 150<302.5 320.5> 663 78<277 384>
VStem: 70 93<512 577> 352 75<-141 -116.5> 528 93<171.5 219.5>
Fore
335 -24 m 1
 320 -56 l 1
 334 -54 340 -54 348 -54 c 0
 398 -54 427 -78 427 -121 c 0
 427 -178 380 -214 304 -214 c 0
 266 -214 241 -207 179 -180 c 1
 200 -140 l 1
 209 -144 l 2
 254 -167 273 -173 298 -173 c 0
 329 -173 352 -154 352 -128 c 0
 352 -105 335 -91 306 -91 c 0
 295 -91 287 -93 275 -98 c 1
 264 -92 l 1
 295 -23 l 1
 289 -21 285 -20 284 -20 c 2
 240 -13 l 1
 119 13 45 108 48 232 c 1
 136 232 l 1
 135 187 147 152 174 120 c 0
 209 78 263 59 342 59 c 0
 401 59 447 70 476 90 c 0
 507 112 528 152 528 191 c 0
 528 248 486 285 394 309 c 2
 213 357 l 2
 117 382 70 438 70 527 c 0
 70 659 169 741 329 741 c 0
 497 741 595 658 596 515 c 1
 508 515 l 1
 507 610 442 663 326 663 c 0
 228 663 163 614 163 540 c 0
 163 484 195 456 283 432 c 2
 466 383 l 2
 565 356 621 290 621 200 c 0
 621 114 568 35 487 2 c 0
 446 -14 406 -21 335 -24 c 1
EndSplineSet
EndChar
StartChar: scedilla
Encoding: 351 351
Width: 500
Flags: MW
HStem: -214 41<195.5 223.5> -91 145<227.5 230.5> 462 77<211 278.5>
VStem: 47 87<364.5 407> 262 75<-141 -116.5> 372 87<112 155>
Fore
244 -24 m 1
 230 -56 l 1
 244 -54 250 -54 258 -54 c 0
 308 -54 337 -78 337 -121 c 0
 337 -178 290 -214 214 -214 c 0
 176 -214 151 -207 89 -180 c 1
 110 -140 l 1
 119 -144 l 2
 164 -167 183 -173 208 -173 c 0
 239 -173 262 -154 262 -128 c 0
 262 -105 245 -91 216 -91 c 0
 204 -91 197 -93 185 -98 c 1
 174 -92 l 1
 205 -21 l 1
 93 -10 36 48 34 156 c 1
 122 156 l 1
 127 119 133 104 146 89 c 0
 167 67 205 54 250 54 c 0
 323 54 372 87 372 136 c 0
 372 174 349 195 291 209 c 2
 213 228 l 2
 89 258 47 297 47 379 c 0
 47 476 126 539 248 539 c 0
 369 539 437 481 438 378 c 1
 350 378 l 1
 348 433 312 462 245 462 c 0
 177 462 134 431 134 383 c 0
 134 346 163 324 231 308 c 2
 311 289 l 2
 415 264 459 221 459 143 c 0
 459 81 422 25 361 -2 c 0
 334 -14 304 -20 244 -24 c 1
EndSplineSet
EndChar
StartChar: Scaron
Encoding: 352 352
Width: 667
Flags: MW
HStem: -23 82<302.5 371.5> 663 78<277 384>
VStem: 70 93<512 577> 528 93<171.5 219.5>
Fore
596 515 m 1
 508 515 l 1
 507 610 442 663 326 663 c 0
 228 663 163 614 163 540 c 0
 163 484 195 456 283 432 c 2
 466 383 l 2
 565 356 621 290 621 200 c 0
 621 137 590 72 541 33 c 0
 494 -3 423 -23 336 -23 c 0
 225 -23 141 13 91 81 c 0
 62 121 49 165 48 232 c 1
 136 232 l 1
 135 187 147 152 174 120 c 0
 209 78 263 59 342 59 c 0
 401 59 447 70 476 90 c 0
 507 112 528 152 528 191 c 0
 528 248 486 285 394 309 c 2
 213 357 l 2
 117 382 70 438 70 527 c 0
 70 659 169 741 329 741 c 0
 497 741 595 658 596 515 c 1
380 790 m 1
 285 790 l 1
 189 940 l 1
 252 940 l 1
 333 844 l 1
 412 940 l 1
 476 940 l 1
 380 790 l 1
EndSplineSet
EndChar
StartChar: scaron
Encoding: 353 353
Width: 500
Flags: W
HStem: -23 77<227.5 286.5> 462 77<211 278.5> 721 20<103 166 166 166 326 390 390 390>
VStem: 47 87<364.5 407> 372 87<111.5 155>
Fore
438 378 m 1
 350 378 l 1
 348 433 312 462 245 462 c 0
 177 462 134 431 134 383 c 0
 134 346 163 324 231 308 c 2
 311 289 l 2
 415 264 459 221 459 143 c 0
 459 42 375 -23 243 -23 c 0
 106 -23 38 35 34 156 c 1
 122 156 l 1
 127 119 133 104 146 89 c 0
 167 67 205 54 250 54 c 0
 323 54 372 87 372 136 c 0
 372 174 349 195 291 209 c 2
 213 228 l 2
 89 258 47 297 47 379 c 0
 47 476 126 539 248 539 c 0
 369 539 437 481 438 378 c 1
294 591 m 1
 199 591 l 1
 103 741 l 1
 166 741 l 1
 247 645 l 5
 326 741 l 1
 390 741 l 1
 294 591 l 1
EndSplineSet
EndChar
StartChar: Tcaron
Encoding: 356 356
Width: 611
Flags: MW
HStem: 0 20 647 82<21 261 354 593 354 354>
VStem: 261 93<0 647>
Fore
354 647 m 1
 354 0 l 1
 261 0 l 1
 261 647 l 1
 21 647 l 1
 21 729 l 1
 593 729 l 1
 593 647 l 1
 354 647 l 1
355 790 m 1
 260 790 l 1
 164 940 l 1
 227 940 l 1
 308 844 l 1
 387 940 l 1
 451 940 l 1
 355 790 l 1
EndSplineSet
EndChar
StartChar: tcaron
Encoding: 357 357
Width: 308
Flags: W
HStem: -23 73 456 68<14 85 168 254> 629 100
VStem: 85 83<78.5 97 97 456 524 668>
Fore
254 524 m 1
 254 456 l 1
 168 456 l 1
 168 97 l 2
 168 60 178 50 214 50 c 0
 230 50 243 51 254 54 c 1
 254 -16 l 1
 226 -21 206 -23 186 -23 c 0
 121 -23 85 7 85 60 c 2
 85 456 l 1
 14 456 l 1
 14 524 l 1
 85 524 l 1
 85 668 l 1
 168 668 l 1
 168 524 l 1
 254 524 l 1
221 800 m 1
 321 800 l 1
 321 697 l 2
 321 627 283 576 229 576 c 2
 221 576 l 1
 221 614 l 1
 259 614 278 645 276 700 c 1
 221 700 l 1
 221 800 l 1
EndSplineSet
EndChar
StartChar: Tbar
Encoding: 358 358
Width: 611
Flags: W
HStem: 0 21G<261 354> 647 82<22 260 355 592>
VStem: 261 93<1 647>
Fore
354 647 m 1
 354 0 l 1
 261 0 l 1
 261 647 l 1
 21 647 l 1
 21 729 l 1
 593 729 l 1
 593 647 l 1
 354 647 l 1
EndSplineSet
MinimumDistance: x6,-1 y0,2 y0,1 x0,6 x0,7 
EndChar
StartChar: tbar
Encoding: 359 359
Width: 278
Flags: W
HStem: -22.3166 72.5094<186 214> 456 68<15 85 169 253>
VStem: 14 240<456 524> 85 83<89 456 524 667> 85.5482 168.452<49 50>
Fore
254 524 m 1
 254 456 l 1
 168 456 l 1
 168 97 l 2
 168 60 178 50 214 50 c 0
 230 50 243 51 254 54 c 1
 254 -16 l 1
 226 -21 206 -23 186 -23 c 0
 121 -23 85 7 85 60 c 2
 85 456 l 1
 14 456 l 1
 14 524 l 1
 85 524 l 1
 85 668 l 1
 168 668 l 1
 168 524 l 1
 254 524 l 1
EndSplineSet
MinimumDistance: x0,-1 y15,13 y15,14 x12,10 x12,11 x2,0 x2,1 
EndChar
StartChar: Umacron
Encoding: 362 362
Width: 722
Flags: W
HStem: -23 82<337 422.5> 709 20<85 178 178 178 552 645 645 645> 830 70<228 502>
VStem: 85 93<217 729> 552 93<217 729>
Fore
552 729 m 1
 645 729 l 1
 645 217 l 2
 645 71 535 -23 364 -23 c 0
 191 -23 85 69 85 217 c 2
 85 729 l 1
 178 729 l 1
 178 217 l 2
 178 162 195 125 231 97 c 1
 266 72 310 59 364 59 c 0
 481 59 552 119 552 217 c 2
 552 729 l 1
502 900 m 1
 502 830 l 1
 228 830 l 1
 228 900 l 1
 502 900 l 1
EndSplineSet
EndChar
StartChar: umacron
Encoding: 363 363
Width: 556
Flags: W
HStem: -23 73<223 270.5> 504 20<65 148 148 148 399 482 482 482> 631 70<137 411>
VStem: 65 83<121.5 153 153 524> 399 83<227 524> 407 75<0 73 73 73>
Fore
482 0 m 1
 407 0 l 1
 407 73 l 1
 358 4 309 -23 232 -23 c 0
 130 -23 65 33 65 120 c 2
 65 524 l 1
 148 524 l 1
 148 153 l 2
 148 90 190 50 256 50 c 0
 343 50 399 120 399 227 c 2
 399 524 l 1
 482 524 l 1
 482 0 l 1
411 701 m 1
 411 631 l 1
 137 631 l 1
 137 701 l 1
 411 701 l 1
EndSplineSet
EndChar
StartChar: Uring
Encoding: 366 366
Width: 722
Flags: W
HStem: -23 82<337 422.5> 709 20<85 178 178 178 552 645 645 645> 778 44<353 377> 909 44<353 377.5>
VStem: 85 93<217 729> 85 44 217 44 552 93<217 729>
Fore
552 729 m 1
 645 729 l 1
 645 217 l 2
 645 71 535 -23 364 -23 c 0
 191 -23 85 69 85 217 c 2
 85 729 l 1
 178 729 l 1
 178 217 l 2
 178 162 195 125 231 97 c 1
 266 72 310 59 364 59 c 0
 481 59 552 119 552 217 c 2
 552 729 l 1
365 953 m 0
 414 953 453 914 453 865 c 0
 453 817 413 778 365 778 c 0
 317 778 277 818 277 866 c 0
 277 913 317 953 365 953 c 0
365 909 m 0
 341 909 321 889 321 866 c 0
 321 842 341 822 365 822 c 0
 389 822 409 842 409 865 c 0
 409 890 390 909 365 909 c 0
EndSplineSet
EndChar
StartChar: uring
Encoding: 367 367
Width: 556
Flags: W
HStem: -23 73<223 270.5> 504 20<65 148 148 148 399 482 482 482> 579 44<261 285> 710 44<261 285.5>
VStem: 65 83<121.5 153 153 524> 65 44 197 44 399 83<227 524> 407 75<0 73 73 73>
Fore
482 0 m 1
 407 0 l 1
 407 73 l 1
 358 4 309 -23 232 -23 c 0
 130 -23 65 33 65 120 c 2
 65 524 l 1
 148 524 l 1
 148 153 l 2
 148 90 190 50 256 50 c 0
 343 50 399 120 399 227 c 2
 399 524 l 1
 482 524 l 1
 482 0 l 1
273 754 m 0
 322 754 361 715 361 666 c 0
 361 618 321 579 273 579 c 0
 225 579 185 619 185 667 c 0
 185 714 225 754 273 754 c 0
273 710 m 0
 249 710 229 690 229 667 c 0
 229 643 249 623 273 623 c 0
 297 623 317 643 317 666 c 0
 317 691 298 710 273 710 c 0
EndSplineSet
EndChar
StartChar: Uhungarumlaut
Encoding: 368 368
Width: 722
Flags: MW
HStem: -23 82<337 422.5> 709 20<85 178 178 178 552 645 645 645>
VStem: 85 93<217 729> 552 93<217 729>
Fore
552 729 m 1
 645 729 l 1
 645 217 l 2
 645 71 535 -23 364 -23 c 0
 191 -23 85 69 85 217 c 2
 85 729 l 1
 178 729 l 1
 178 217 l 2
 178 162 195 125 231 97 c 1
 266 72 310 59 364 59 c 0
 481 59 552 119 552 217 c 2
 552 729 l 1
329 939 m 1
 442 939 l 1
 293 789 l 1
 233 789 l 1
 329 939 l 1
503 939 m 1
 616 939 l 1
 467 789 l 1
 407 789 l 1
 503 939 l 1
EndSplineSet
EndChar
StartChar: uhungarumlaut
Encoding: 369 369
Width: 556
Flags: W
HStem: -23 73<223 270.5> 504 20<65 148 148 148 399 482 482 482> 720 20<243 356 356 356 417 530 530 530>
VStem: 65 83<121.5 153 153 524> 399 83<227 524> 407 75<0 73 73 73>
Fore
482 0 m 1
 407 0 l 1
 407 73 l 1
 358 4 309 -23 232 -23 c 0
 130 -23 65 33 65 120 c 2
 65 524 l 1
 148 524 l 1
 148 153 l 2
 148 90 190 50 256 50 c 0
 343 50 399 120 399 227 c 2
 399 524 l 1
 482 524 l 1
 482 0 l 1
243 740 m 1
 356 740 l 1
 207 590 l 1
 147 590 l 1
 243 740 l 1
417 740 m 1
 530 740 l 1
 381 590 l 1
 321 590 l 1
 417 740 l 1
EndSplineSet
EndChar
StartChar: Uogonek
Encoding: 370 370
Width: 722
Flags: MW
HStem: -205 45<516 536> -23 82<337 384> 709 20<85 178 178 178 552 645 645 645>
VStem: 85 93<217 729> 394 73<-123.5 -91.5> 552 93<217 729>
Fore
602 -150 m 1
 602 -195 l 1
 578 -200 545 -205 527 -205 c 0
 505 -205 480 -200 457 -192 c 0
 415 -176 394 -150 394 -112 c 0
 394 -71 415 -42 467 -10 c 1
 423 -20 402 -23 366 -23 c 0
 192 -23 85 68 85 217 c 2
 85 729 l 1
 178 729 l 1
 178 217 l 2
 178 162 195 125 231 97 c 1
 266 72 310 59 364 59 c 0
 481 59 552 119 552 217 c 2
 552 729 l 1
 645 729 l 1
 645 217 l 2
 645 160 628 110 595 66 c 0
 580 46 577 43 532 0 c 0
 489 -41 467 -76 467 -106 c 0
 467 -141 492 -160 539 -160 c 0
 563 -160 584 -157 602 -150 c 1
EndSplineSet
EndChar
StartChar: uogonek
Encoding: 371 371
Width: 556
Flags: W
HStem: -218 20 -204 44<451.5 475> -23 73<223 270.5> 504 20<65 148 148 148 399 482 482 482>
VStem: 65 83<121.5 153 153 524> 333 72<-124 -89.5> 399 83<227 524>
Fore
482 524 m 1
 482 0 l 1
 436 -26 405 -69 405 -108 c 0
 405 -140 431 -160 472 -160 c 0
 488 -160 500 -158 521 -150 c 1
 521 -195 l 1
 515 -196 510 -197 508 -198 c 0
 488 -203 481 -204 469 -204 c 0
 386 -204 333 -168 333 -111 c 0
 333 -68 363 -34 429 0 c 1
 407 0 l 1
 407 73 l 1
 358 4 309 -23 232 -23 c 0
 130 -23 65 33 65 120 c 2
 65 524 l 1
 148 524 l 1
 148 153 l 2
 148 90 190 50 256 50 c 0
 343 50 399 120 399 227 c 2
 399 524 l 1
 482 524 l 1
EndSplineSet
EndChar
StartChar: Ydieresis
Encoding: 376 376
Width: 667
Flags: W
HStem: 0 20 709 20<13 128 128 128 550 661 661 661> 811 103<208 312 370 474>
VStem: 13 104 175 104 294 93<0 286>
Fore
387 286 m 1
 387 0 l 1
 294 0 l 1
 294 286 l 1
 13 729 l 1
 128 729 l 1
 342 374 l 1
 550 729 l 1
 661 729 l 1
 387 286 l 1
312 914 m 1
 312 811 l 1
 208 811 l 1
 208 914 l 1
 312 914 l 1
474 914 m 1
 474 811 l 1
 370 811 l 1
 370 914 l 1
 474 914 l 1
EndSplineSet
EndChar
StartChar: Zacute
Encoding: 377 377
Width: 611
Flags: MW
HStem: 0 82<145 583> 647 82<56 466>
Fore
581 729 m 1
 581 645 l 1
 145 82 l 1
 583 82 l 1
 583 0 l 1
 28 0 l 1
 28 82 l 1
 466 647 l 1
 56 647 l 1
 56 729 l 1
 581 729 l 1
347 939 m 1
 460 939 l 1
 311 791 l 1
 251 791 l 1
 347 939 l 1
EndSplineSet
EndChar
StartChar: zacute
Encoding: 378 378
Width: 500
Flags: W
HStem: 0 73<132 457> 451 73<52 344> 720 20<278 391 391 391>
Fore
443 524 m 1
 443 450 l 1
 132 73 l 1
 457 73 l 1
 457 0 l 1
 31 0 l 1
 31 75 l 1
 344 451 l 1
 52 451 l 1
 52 524 l 1
 443 524 l 1
278 740 m 1
 391 740 l 1
 242 592 l 1
 182 592 l 1
 278 740 l 1
EndSplineSet
EndChar
StartChar: Zdotaccent
Encoding: 379 379
Width: 611
Flags: W
HStem: 0 82<145 583> 647 82<56 466> 811 104<267 371>
VStem: 28 104
Fore
581 729 m 1
 581 645 l 1
 145 82 l 1
 583 82 l 1
 583 0 l 1
 28 0 l 1
 28 82 l 1
 466 647 l 1
 56 647 l 1
 56 729 l 1
 581 729 l 1
371 915 m 1
 371 811 l 1
 267 811 l 1
 267 915 l 1
 371 915 l 1
EndSplineSet
EndChar
StartChar: zdotaccent
Encoding: 380 380
Width: 500
Flags: W
HStem: 0 73<132 457> 451 73<52 344> 612 104<199 303>
VStem: 31 104
Fore
443 524 m 1
 443 450 l 1
 132 73 l 1
 457 73 l 1
 457 0 l 1
 31 0 l 1
 31 75 l 1
 344 451 l 1
 52 451 l 1
 52 524 l 1
 443 524 l 1
303 716 m 1
 303 612 l 1
 199 612 l 1
 199 716 l 1
 303 716 l 1
EndSplineSet
EndChar
StartChar: Zcaron
Encoding: 381 381
Width: 611
Flags: MW
HStem: 0 82<145 583> 647 82<56 466>
Fore
581 729 m 1
 581 645 l 1
 145 82 l 1
 583 82 l 1
 583 0 l 1
 28 0 l 1
 28 82 l 1
 466 647 l 1
 56 647 l 1
 56 729 l 1
 581 729 l 1
366 790 m 1
 271 790 l 1
 175 940 l 1
 238 940 l 1
 319 844 l 1
 398 940 l 1
 462 940 l 1
 366 790 l 1
EndSplineSet
EndChar
StartChar: zcaron
Encoding: 382 382
Width: 500
Flags: W
HStem: 0 73<132 457> 451 73<52 344> 721 20<107 170 170 170 330 394 394 394>
Fore
443 524 m 1
 443 450 l 1
 132 73 l 1
 457 73 l 1
 457 0 l 1
 31 0 l 1
 31 75 l 1
 344 451 l 1
 52 451 l 1
 52 524 l 1
 443 524 l 1
298 591 m 1
 203 591 l 1
 107 741 l 1
 170 741 l 1
 251 645 l 1
 330 741 l 1
 394 741 l 1
 298 591 l 1
EndSplineSet
EndChar
StartChar: longs
Encoding: 383 383
Width: 278
Flags: W
HStem: 0 21G<88 171> 456 68<19 88> 659 72.6235<226 231>
VStem: 88 83<1 455 525 615>
Fore
171 0 m 1
 88 0 l 1
 88 456 l 5
 18 456 l 1
 18 524 l 1
 88 524 l 1
 88 613 l 2
 88 688 134 732 211 732 c 0
 228 732 239 731 258 727 c 1
 258 658 l 1
 239 659 236 659 229 659 c 0
 191 659 171 641 171 606 c 2
 171 0 l 1
EndSplineSet
MinimumDistance: x0,-1 y0,0 y0,0 x0,0 x0,0 
EndChar
StartChar: uni018F
Encoding: 399 399
Width: 778
Flags: HW
HStem: -27 82<373 407> 311 70<133 647> 655 82<373 407>
Fore
47 452 m 17
 79 629 210 741 389 741 c 0
 603 741 742 588 742 353 c 0
 742 234 695 121 616 54 c 0
 557 4 478 -23 390 -23 c 0
 180 -23 38 131 38 359 c 0
 38 368 38 376 39 385 c 1
 648 385 l 1
 638 552 538 659 389 659 c 0
 264 659 171 580 141 452 c 1
 47 452 l 17
646 303 m 1
 134 303 l 1
 154 155 252 59 390 59 c 0
 528 59 627 156 646 303 c 1
EndSplineSet
Back
46.5116 452.141 m 1
 80 628.5 209.922 741 389 741 c 0
 603 741 742 588 742 353 c 0
 742 234 695 121 616 54 c 0
 557 4 478 -23 390 -23 c 0
 180 -23 38 131 38 359 c 0
 38 367.778 38.2105 376.446 38.6271 385 c 1
 132 385 l 1
 648 385 l 1
 638 552 538 659 389 659 c 0
 263.629 659 171 579 141.247 451.438 c 1
647 315 m 1
 133 315 l 1
 149 160 248 59 390 59 c 0
 532 59 632 161 647 315 c 1
EndSplineSet
EndChar
StartChar: uni0191
Encoding: 401 401
Width: 611
Flags: HW
Fore
90 224 m 5
 183 224 l 5
 183 -109 l 6
 183 -180 124 -218 30 -218 c 4
 17 -218 12 -217 2 -215 c 5
 2 -144 l 5
 19 -145 19 -145 22 -145 c 4
 73 -145 90 -128 90 -76 c 6
 90 224 l 5
183 332 m 1
 183 0 l 1
 90 0 l 1
 90 729 l 1
 579 729 l 1
 579 647 l 1
 183 647 l 1
 183 414 l 1
 531 414 l 1
 531 332 l 1
 183 332 l 1
EndSplineSet
EndChar
StartChar: florin
Encoding: 402 402
Width: 556
Flags: MW
HStem: -212 78<69 91> 392 70<140 253 354 467> 658 80<443 467.5>
Fore
467 462 m 1
 467 392 l 1
 341 392 l 1
 266 -5 l 1
 253 -75 233 -122 201 -155 c 0
 167 -190 116 -212 66 -212 c 0
 42 -212 24 -209 11 -202 c 1
 28 -118 l 1
 45 -129 59 -134 79 -134 c 0
 130 -134 160 -98 175 -21 c 1
 253 392 l 1
 140 392 l 1
 140 462 l 1
 265 462 l 1
 287 566 l 1
 298 622 318 661 348 690 c 0
 380 720 423 738 463 738 c 0
 489 738 512 732 542 719 c 1
 512 640 l 1
 487 654 475 658 460 658 c 0
 413 658 381 614 366 532 c 1
 354 462 l 1
 467 462 l 1
EndSplineSet
EndChar
StartChar: uni019D
Encoding: 413 413
Width: 722
Flags: W
HStem: -218 74<-13 21> 0 21G<541 646> 709 20G<76 177 558 646>
VStem: 76 88<-91 591> 558 88<133 729>
DStem: 164 591 177 729 541 0 558 133
Fore
76 -76 m 2
 76 729 l 1
 177 729 l 1
 558 133 l 1
 558 729 l 1
 646 729 l 1
 646 0 l 1
 541 0 l 1
 164 591 l 1
 164 -109 l 2
 164 -180 110 -218 16 -218 c 0
 3 -218 -2 -217 -12 -215 c 1
 -12 -144 l 1
 5 -145 5 -145 8 -145 c 0
 59 -145 76 -128 76 -76 c 2
EndSplineSet
MinimumDistance: x5,-1 
EndChar
StartChar: uni019E
Encoding: 414 414
Width: 556
Flags: HW
Fore
70 524 m 1
 147 524 l 1
 147 436 l 1
 193 509 243 539 321 539 c 0
 422 539 487 483 487 396 c 2
 487 -200 l 1
 404 -200 l 1
 404 363 l 2
 404 426 362 466 296 466 c 0
 210 466 154 396 154 289 c 2
 154 0 l 1
 70 0 l 1
 70 524 l 1
EndSplineSet
EndChar
StartChar: uni019F
Encoding: 415 415
Width: 778
Flags: HW
HStem: -23 82<319 434> 315 70<133 647 133 133> 659 82<316 463.5>
Fore
389 741 m 0
 603 741 742 588 742 353 c 0
 742 234 695 121 616 54 c 0
 557 4 478 -23 390 -23 c 0
 180 -23 38 131 38 359 c 0
 38 587 180 741 389 741 c 0
648 385 m 1
 638 552 538 659 389 659 c 0
 243 659 141 550 132 385 c 1
 648 385 l 1
647 315 m 1
 133 315 l 1
 149 160 248 59 390 59 c 0
 532 59 632 161 647 315 c 1
EndSplineSet
MinimumDistance: x8,-1 
EndChar
StartChar: uni01AD
Encoding: 429 429
Width: 278
Flags: W
HStem: -23 73<185 214> 456 68<14 85 168 254> 659 73<207 228>
VStem: 85 83<88 456 524 618>
Fore
168 606 m 2
 168 524 l 1
 254 524 l 1
 254 456 l 1
 168 456 l 1
 168 97 l 2
 168 60 178 50 214 50 c 0
 230 50 243 51 254 54 c 1
 254 -16 l 1
 226 -21 206 -23 186 -23 c 0
 121 -23 85 7 85 60 c 2
 85 456 l 1
 14 456 l 1
 14 524 l 1
 85 524 l 1
 85 613 l 2
 85 688 131 732 208 732 c 0
 225 732 236 731 255 727 c 1
 255 658 l 1
 236 659 233 659 226 659 c 0
 188 659 168 641 168 606 c 2
EndSplineSet
MinimumDistance: x2,-1 x11,13 x11,12 x1,3 x1,2 
EndChar
StartChar: Scommaaccent
Encoding: 536 536
Width: 667
Flags: W
HStem: -160 100<291 346> -23 82<302.5 371.5> 663 78<277 384>
VStem: 70 93<512 577> 528 93<171.5 219.5>
Fore
596 515 m 1
 508 515 l 1
 507 610 442 663 326 663 c 0
 228 663 163 614 163 540 c 0
 163 484 195 456 283 432 c 2
 466 383 l 2
 565 356 621 290 621 200 c 0
 621 137 590 72 541 33 c 0
 494 -3 423 -23 336 -23 c 0
 225 -23 141 13 91 81 c 0
 62 121 49 165 48 232 c 1
 136 232 l 1
 135 187 147 152 174 120 c 0
 209 78 263 59 342 59 c 0
 401 59 447 70 476 90 c 0
 507 112 528 152 528 191 c 0
 528 248 486 285 394 309 c 2
 213 357 l 2
 117 382 70 438 70 527 c 0
 70 659 169 741 329 741 c 0
 497 741 595 658 596 515 c 1
291 -60 m 5
 391 -60 l 5
 391 -163 l 6
 391 -238 353 -285 291 -284 c 5
 291 -246 l 5
 329 -246 348 -215 346 -160 c 5
 291 -160 l 5
 291 -60 l 5
EndSplineSet
EndChar
StartChar: scommaaccent
Encoding: 537 537
Width: 500
Flags: W
HStem: -160 100<197 252> -23 77<227.5 286.5> 462 77<211 278.5>
VStem: 47 87<364.5 407> 372 87<111.5 155>
Fore
438 378 m 1
 350 378 l 1
 348 433 312 462 245 462 c 0
 177 462 134 431 134 383 c 0
 134 346 163 324 231 308 c 2
 311 289 l 2
 415 264 459 221 459 143 c 0
 459 42 375 -23 243 -23 c 0
 106 -23 38 35 34 156 c 1
 122 156 l 1
 127 119 133 104 146 89 c 0
 167 67 205 54 250 54 c 0
 323 54 372 87 372 136 c 0
 372 174 349 195 291 209 c 2
 213 228 l 2
 89 258 47 297 47 379 c 0
 47 476 126 539 248 539 c 0
 369 539 437 481 438 378 c 1
197 -60 m 1
 297 -60 l 1
 297 -163 l 2
 297 -238 259 -285 197 -284 c 1
 197 -246 l 1
 235 -246 254 -215 252 -160 c 1
 197 -160 l 1
 197 -60 l 1
EndSplineSet
EndChar
StartChar: Tcommaaccent
Encoding: 538 538
Width: 611
Flags: W
HStem: -160 100<260 315> 0 20 647 82<21 261 354 593 354 354>
VStem: 261 93<0 647>
Fore
354 647 m 1
 354 0 l 1
 261 0 l 1
 261 647 l 1
 21 647 l 1
 21 729 l 1
 593 729 l 1
 593 647 l 1
 354 647 l 1
260 -60 m 1
 360 -60 l 1
 360 -163 l 2
 360 -238 322 -285 260 -284 c 1
 260 -246 l 1
 298 -246 317 -215 315 -160 c 1
 260 -160 l 1
 260 -60 l 1
EndSplineSet
EndChar
StartChar: tcommaaccent
Encoding: 539 539
Width: 278
Flags: W
HStem: -160 100<111 166> -23 73 456 68<14 85 168 254>
VStem: 85 83<78.5 97 97 456 524 668>
Fore
254 524 m 1
 254 456 l 1
 168 456 l 1
 168 97 l 2
 168 60 178 50 214 50 c 0
 230 50 243 51 254 54 c 1
 254 -16 l 1
 226 -21 206 -23 186 -23 c 0
 121 -23 85 7 85 60 c 2
 85 456 l 1
 14 456 l 1
 14 524 l 1
 85 524 l 1
 85 668 l 1
 168 668 l 1
 168 524 l 1
 254 524 l 1
111 -60 m 1
 211 -60 l 1
 211 -163 l 2
 211 -238 173 -285 111 -284 c 1
 111 -246 l 1
 149 -246 168 -215 166 -160 c 1
 111 -160 l 1
 111 -60 l 1
EndSplineSet
EndChar
StartChar: uni0251
Encoding: 593 593
Width: 556
Flags: W
HStem: -14 74<232 265> 0 21G<402 485> 471 67<233 265> 504 20G<402 485>
VStem: 26 87<241 275> 402 83<0 57 458 524>
Fore
485 0 m 1
 402 0 l 1
 402 57 l 1
 355 12 314 -12 233 -14 c 0
 177 -14 128 14 86 72 c 0
 46 128 26 189 26 258 c 0
 26 328 40 388 69 438 c 0
 107 504 166 538 246 538 c 0
 306 538 358 511 402 458 c 1
 402 524 l 1
 485 524 l 1
 485 0 l 1
397 263 m 0
 397 372 345 471 248 471 c 0
 159 471 113 363 113 261 c 0
 113 158 173 60 265 60 c 0
 356 60 397 160 397 263 c 0
EndSplineSet
MinimumDistance: x0,-1 
EndChar
StartChar: uni0253
Encoding: 595 595
Width: 556
Flags: HW
Fore
54 524 m 1
 54 613 l 2
 54 688 100 732 177 732 c 0
 194 732 205 731 224 727 c 1
 224 658 l 1
 205 659 202 659 195 659 c 0
 157 659 137 641 137 606 c 2
 137 524 l 1
 54 524 l 1
54 524 m 1
 137 524 l 1
 137 453 l 1
 176 512 227 539 299 539 c 0
 437 539 523 434 523 264 c 0
 523 90 433 -23 295 -23 c 0
 222 -23 169 6 129 67 c 1
 129 0 l 1
 54 0 l 1
 54 524 l 1
283 461 m 0
 195 461 137 381 137 258 c 0
 137 135 195 55 283 55 c 0
 374 55 436 136 436 255 c 0
 436 380 376 461 283 461 c 0
EndSplineSet
EndChar
StartChar: uni0256
Encoding: 598 598
Width: 556
Flags: HW
Fore
265 461 m 0
 174 461 113 380 113 258 c 0
 113 136 174 55 266 55 c 0
 354 55 412 135 412 256 c 0
 412 381 355 461 265 461 c 0
421 69 m 1
 376 4 326 -23 254 -23 c 0
 113 -23 26 86 26 263 c 0
 26 430 115 539 251 539 c 0
 321 539 377 511 412 458 c 1
 412 729 l 1
 495 729 l 1
 495 -76 l 2
 495 -128 517 -145 568 -145 c 0
 571 -145 571 -145 588 -144 c 1
 588 -215 l 1
 578 -217 573 -218 560 -218 c 0
 466 -218 421 -180 421 -109 c 2
 421 69 l 1
EndSplineSet
EndChar
StartChar: uni0257
Encoding: 599 599
Width: 556
Flags: HW
Fore
265 461 m 0
 174 461 113 380 113 258 c 0
 113 136 174 55 266 55 c 0
 354 55 412 135 412 256 c 0
 412 381 355 461 265 461 c 0
495 606 m 2
 495 0 l 1
 421 0 l 1
 421 69 l 1
 376 4 326 -23 254 -23 c 0
 113 -23 26 86 26 263 c 0
 26 430 115 539 251 539 c 0
 321 539 377 511 412 458 c 1
 412 613 l 2
 412 688 458 732 535 732 c 0
 552 732 563 731 582 727 c 1
 582 658 l 1
 563 659 560 659 553 659 c 0
 515 659 495 641 495 606 c 2
EndSplineSet
EndChar
StartChar: uni0260
Encoding: 608 608
Width: 556
Flags: HW
Fore
412 442 m 1
 412 531 l 1
 412 606 452 650 529 650 c 0
 546 650 557 649 576 645 c 1
 576 576 l 1
 557 577 554 577 547 577 c 0
 509 577 489 564 489 524 c 2
 489 442 l 1
 412 442 l 1
412 524 m 1
 489 524 l 1
 489 86 l 2
 489 -37 474 -103 434 -151 c 0
 400 -193 333 -218 255 -218 c 0
 132 -218 55 -159 46 -60 c 1
 131 -60 l 1
 136 -91 144 -105 163 -120 c 0
 186 -138 220 -148 258 -148 c 0
 309 -148 352 -130 374 -99 c 0
 395 -70 404 -27 404 44 c 2
 404 71 l 1
 357 5 311 -23 245 -23 c 0
 190 -23 134 3 95 47 c 0
 52 97 29 167 29 253 c 0
 29 423 119 539 252 539 c 0
 319 539 370 510 412 448 c 1
 412 524 l 1
261 462 m 0
 172 462 116 384 116 258 c 0
 116 131 171 54 262 54 c 0
 350 54 404 130 404 255 c 0
 404 386 351 462 261 462 c 0
EndSplineSet
EndChar
StartChar: uni0266
Encoding: 614 614
Width: 556
Flags: W
HStem: 0 21G<70 153 403 486> 466 72.0129<295 311> 504 20G<70 153> 524 21G<70 153> 659 73<192 215>
VStem: 70 83<0 305 452 615> 403 83<0 369>
Fore
70 524 m 5
 70 613 l 6
 70 688 116 732 193 732 c 4
 210 732 221 731 240 727 c 5
 240 658 l 5
 221 659 218 659 211 659 c 4
 173 659 153 641 153 606 c 6
 153 524 l 5
 70 524 l 5
70 524 m 1
 153 524 l 1
 153 452 l 1
 202 516 247 539 321 539 c 0
 423 539 486 484 486 396 c 2
 486 0 l 1
 403 0 l 1
 403 363 l 2
 403 400 393 425 369 442 c 0
 349 457 322 466 295 466 c 0
 209 466 153 396 153 289 c 2
 153 0 l 1
 70 0 l 1
 70 524 l 1
EndSplineSet
MinimumDistance: x12,-1 
EndChar
StartChar: uni0267
Encoding: 615 615
Width: 556
Flags: W
HStem: -218 74<314 345> 0 21G<70 153> 466 72.0129<295 311> 659 73<192 215>
VStem: 70 83<0 311 452 615> 403 83<-91 375>
Fore
403 -76 m 2
 403 363 l 2
 403 400 393 425 369 442 c 0
 349 457 322 466 295 466 c 0
 209 466 153 396 153 289 c 2
 153 0 l 1
 70 0 l 1
 70 613 l 2
 70 688 116 732 193 732 c 0
 210 732 221 731 240 727 c 1
 240 658 l 1
 221 659 218 659 211 659 c 0
 173 659 153 641 153 606 c 2
 153 452 l 1
 202 516 247 539 321 539 c 0
 423 539 486 484 486 396 c 2
 486 -109 l 2
 486 -180 437 -218 343 -218 c 0
 330 -218 325 -217 315 -215 c 1
 315 -144 l 1
 332 -145 332 -145 335 -145 c 0
 386 -145 403 -128 403 -76 c 2
EndSplineSet
MinimumDistance: x15,-1 
EndChar
StartChar: uni0268
Encoding: 616 616
Width: 222
Flags: W
HStem: 0 21G<67 150> 240 72<-8 66 150 230> 504 20G<67 150> 709 20G<66 150>
VStem: 67 83<0 240 312 524 624 729>
Fore
150 729 m 1
 150 624 l 1
 66 624 l 1
 66 729 l 1
 150 729 l 1
67 312 m 1
 67 524 l 1
 150 524 l 1
 150 312 l 1
 230 312 l 1
 230 240 l 1
 150 240 l 1
 150 0 l 1
 67 0 l 1
 67 240 l 1
 -8 240 l 1
 -8 312 l 1
 67 312 l 1
EndSplineSet
MinimumDistance: y10,12 y10,11 y4,6 y4,5 x7,9 x7,8 x4,14 x4,15 
EndChar
StartChar: uni0269
Encoding: 617 617
Width: 222
Flags: W
HStem: -23 73<167 195> 504 20G<66 149>
VStem: 66 83<88 524>
Fore
149 524 m 1
 149 97 l 2
 149 60 159 50 195 50 c 0
 211 50 224 51 235 54 c 1
 235 -16 l 1
 207 -21 187 -23 167 -23 c 0
 102 -23 66 7 66 60 c 2
 66 524 l 1
 149 524 l 1
EndSplineSet
MinimumDistance: x0,-1 
EndChar
StartChar: uni026D
Encoding: 621 621
Width: 222
Flags: HW
Fore
68 -109 m 2
 68 729 l 1
 152 729 l 1
 152 -76 l 2
 152 -128 169 -145 220 -145 c 0
 223 -145 223 -145 240 -144 c 1
 240 -215 l 1
 230 -217 225 -218 212 -218 c 0
 118 -218 68 -180 68 -109 c 2
EndSplineSet
EndChar
StartChar: uni0270
Encoding: 624 624
Width: 833
Flags: HW
Fore
762 -200 m 1
 685 -200 l 1
 685 74 l 1
 640 11 594 -15 524 -15 c 0
 456 -15 414 9 383 65 c 1
 334 6 292 -15 222 -15 c 0
 124 -15 70 37 70 131 c 2
 70 524 l 1
 154 524 l 1
 154 163 l 2
 154 97 190 58 251 58 c 0
 319 58 374 119 374 195 c 2
 374 524 l 1
 458 524 l 1
 458 163 l 2
 458 96 493 58 555 58 c 0
 623 58 678 119 678 195 c 2
 678 524 l 1
 762 524 l 1
 762 -200 l 1
EndSplineSet
EndChar
StartChar: uni0271
Encoding: 625 625
Width: 833
Flags: W
HStem: -218 73<608 620> 0 21G<70 154 374 458 678 762> 466 73<277 308 581 610> 504 20G<70 147>
VStem: 70 84<0 343> 374 84<0 343> 678 84<-91 375>
Fore
678 224 m 1
 762 224 l 1
 762 -109 l 2
 762 -180 712 -218 618 -218 c 0
 605 -218 600 -217 590 -215 c 1
 590 -144 l 1
 607 -145 607 -145 610 -145 c 0
 661 -145 678 -128 678 -76 c 2
 678 224 l 1
70 524 m 1
 147 524 l 1
 147 450 l 1
 192 513 238 539 308 539 c 0
 376 539 418 515 449 459 c 1
 498 518 540 539 610 539 c 0
 708 539 762 487 762 393 c 2
 762 0 l 1
 678 0 l 1
 678 361 l 2
 678 427 642 466 581 466 c 0
 513 466 458 405 458 329 c 2
 458 0 l 1
 374 0 l 1
 374 361 l 2
 374 428 339 466 277 466 c 0
 209 466 154 405 154 329 c 2
 154 0 l 1
 70 0 l 1
 70 524 l 1
EndSplineSet
MinimumDistance: x1,-1 
EndChar
StartChar: uni0272
Encoding: 626 626
Width: 556
Flags: W
HStem: -218 74<-19 15> 0 21G<70 154 404 487> 466 73<295 321> 504 20G<70 147>
VStem: 70 77<436 524> 70 84<-91 311> 404 83<0 375>
Fore
70 224 m 5
 154 224 l 5
 154 -109 l 6
 154 -180 104 -218 10 -218 c 4
 -3 -218 -8 -217 -18 -215 c 5
 -18 -144 l 5
 -1 -145 -1 -145 2 -145 c 4
 53 -145 70 -128 70 -76 c 6
 70 224 l 5
70 524 m 1
 147 524 l 1
 147 436 l 1
 193 509 243 539 321 539 c 0
 422 539 487 483 487 396 c 2
 487 0 l 1
 404 0 l 1
 404 363 l 2
 404 426 362 466 296 466 c 0
 210 466 154 396 154 289 c 2
 154 0 l 1
 70 0 l 1
 70 524 l 1
EndSplineSet
MinimumDistance: x12,-1 
EndChar
StartChar: uni0273
Encoding: 627 627
Width: 556
Flags: W
HStem: -218 73<546 558> 0 21G<70 154 404 487> 466 73<295 321> 504 20G<70 147>
VStem: 70 77<436 524> 70 84<0 311> 404 84<-91 375>
Fore
488 224 m 5
 488 -76 l 6
 488 -128 505 -145 556 -145 c 4
 559 -145 559 -145 576 -144 c 5
 576 -215 l 5
 566 -217 561 -218 548 -218 c 4
 454 -218 404 -180 404 -109 c 6
 404 224 l 5
 488 224 l 5
70 524 m 1
 147 524 l 1
 147 436 l 1
 193 509 243 539 321 539 c 0
 422 539 487 483 487 396 c 2
 487 0 l 1
 404 0 l 1
 404 363 l 2
 404 426 362 466 296 466 c 0
 210 466 154 396 154 289 c 2
 154 0 l 1
 70 0 l 1
 70 524 l 1
EndSplineSet
MinimumDistance: x0,-1 
EndChar
StartChar: uni0275
Encoding: 629 629
Width: 556
Flags: HW
HStem: -23 77<231.5 314.5> 220 70<125 421 125 125> 462 77<230.5 315.5>
Fore
272 539 m 0
 423 539 510 435 510 254 c 0
 510 82 420 -23 273 -23 c 0
 124 -23 36 82 36 258 c 0
 36 434 125 539 272 539 c 0
422 290 m 1
 412 399 358 462 273 462 c 0
 188 462 133 397 124 290 c 1
 422 290 l 1
421 220 m 1
 125 220 l 1
 135 116 190 54 273 54 c 0
 356 54 411 117 421 220 c 1
EndSplineSet
EndChar
StartChar: uni027A
Encoding: 634 634
Width: 333
Flags: W
HStem: -15 88<68 101> 0 21G<244 321> 709 20G<237 321>
VStem: 237 84<224 729> 244 77<0 95>
Fore
321 0 m 1
 244 0 l 1
 244 95 l 1
 196 17 155 -15 101 -15 c 0
 90 -15 83 -14 69 -12 c 1
 69 73 l 1
 127 74 152 80 178 99 c 0
 218 128 237 177 237 252 c 2
 237 729 l 1
 321 729 l 1
 321 0 l 1
EndSplineSet
MinimumDistance: x0,-1 
EndChar
StartChar: uni027B
Encoding: 635 635
Width: 333
Flags: HW
Fore
321 0 m 1
 321 -76 l 2
 321 -128 338 -145 389 -145 c 0
 392 -145 392 -145 409 -144 c 1
 409 -215 l 1
 399 -217 394 -218 381 -218 c 0
 287 -218 244 -180 244 -109 c 2
 244 0 l 1
 321 0 l 1
321 0 m 1
 244 0 l 1
 244 95 l 1
 196 17 155 -15 101 -15 c 0
 90 -15 83 -14 69 -12 c 1
 69 73 l 1
 127 74 152 80 178 99 c 0
 218 128 237 177 237 252 c 2
 237 524 l 1
 321 524 l 1
 321 0 l 1
EndSplineSet
EndChar
StartChar: uni027C
Encoding: 636 636
Width: 333
Flags: HW
Fore
69 524 m 1
 146 524 l 1
 146 429 l 1
 194 507 235 539 289 539 c 0
 300 539 307 538 321 536 c 1
 321 451 l 1
 263 450 238 444 212 425 c 0
 172 396 153 347 153 272 c 2
 153 -200 l 5
 69 -200 l 5
 69 524 l 1
EndSplineSet
EndChar
StartChar: uni027D
Encoding: 637 637
Width: 333
Flags: HW
Fore
69 -109 m 2
 69 524 l 1
 146 524 l 1
 146 429 l 1
 194 507 235 539 289 539 c 0
 300 539 307 538 321 536 c 1
 321 451 l 1
 263 450 238 444 212 425 c 0
 172 396 153 347 153 272 c 2
 153 -76 l 2
 153 -128 170 -145 221 -145 c 0
 224 -145 224 -145 241 -144 c 1
 241 -215 l 1
 231 -217 226 -218 213 -218 c 0
 119 -218 69 -180 69 -109 c 2
EndSplineSet
EndChar
StartChar: uni0283
Encoding: 643 643
Width: 278
Flags: W
HStem: -218 74<-1 33> 0 21G<88 171> 456 68<18 88 171 257> 659 73<210 231>
VStem: 88 84<-91 455 524 615>
Fore
88 224 m 1
 172 224 l 1
 172 -109 l 2
 172 -180 122 -218 28 -218 c 0
 15 -218 10 -217 0 -215 c 1
 0 -144 l 1
 17 -145 17 -145 20 -145 c 0
 71 -145 88 -128 88 -76 c 2
 88 224 l 1
258 524 m 1
 258 456 l 1
 171 456 l 1
 171 0 l 1
 88 0 l 1
 88 456 l 1
 18 456 l 1
 18 524 l 1
 88 524 l 1
 88 613 l 2
 88 688 134 732 211 732 c 0
 228 732 239 731 258 727 c 1
 258 658 l 1
 239 659 236 659 229 659 c 0
 191 659 171 641 171 606 c 2
 171 524 l 1
 258 524 l 1
EndSplineSet
MinimumDistance: x8,-1 x11,13 x12,10 y10,12 y10,11 x13,15 x13,14 x10,8 x10,9 
EndChar
StartChar: uni0284
Encoding: 644 644
Width: 278
Flags: W
HStem: -218 74<-1 33> 0 21G<88 171> 456 68<18 88 171 257> 659 73<210 231>
VStem: 88 84<-91 455 524 615>
Fore
88 224 m 5
 172 224 l 5
 172 -109 l 6
 172 -180 122 -218 28 -218 c 4
 15 -218 10 -217 0 -215 c 5
 0 -144 l 5
 17 -145 17 -145 20 -145 c 4
 71 -145 88 -128 88 -76 c 6
 88 224 l 5
258 524 m 1
 258 456 l 1
 171 456 l 1
 171 0 l 1
 88 0 l 1
 88 456 l 1
 18 456 l 1
 18 524 l 1
 88 524 l 1
 88 613 l 2
 88 688 134 732 211 732 c 0
 228 732 239 731 258 727 c 1
 258 658 l 1
 239 659 236 659 229 659 c 0
 191 659 171 641 171 606 c 2
 171 524 l 1
 258 524 l 1
EndSplineSet
MinimumDistance: x8,-1 x11,13 x12,10 y10,12 y10,11 x13,15 x13,14 x10,8 x10,9 
EndChar
StartChar: uni0285
Encoding: 645 645
Width: 278
Flags: W
HStem: -218 73<223 240> 659 72.3457<27 33>
VStem: 87 83<-91 615>
Fore
87 606 m 2
 87 641 67 659 29 659 c 0
 22 659 19 659 0 658 c 1
 0 727 l 1
 19 731 30 732 47 732 c 0
 124 732 170 688 170 613 c 2
 170 -76 l 2
 170 -128 187 -145 238 -145 c 0
 241 -145 241 -145 258 -144 c 1
 258 -215 l 1
 248 -217 243 -218 230 -218 c 4
 136 -218 87 -180 87 -109 c 2
 87 606 l 2
EndSplineSet
MinimumDistance: x5,-1 
EndChar
StartChar: uni0288
Encoding: 648 648
Width: 278
Flags: HW
Fore
254 524 m 1
 254 456 l 1
 168 456 l 1
 168 -98 l 2
 168 -135 178 -145 214 -145 c 0
 230 -145 243 -144 254 -141 c 1
 254 -211 l 1
 226 -216 206 -218 186 -218 c 0
 121 -218 85 -188 85 -135 c 2
 85 456 l 1
 14 456 l 1
 14 524 l 1
 85 524 l 1
 85 668 l 1
 168 668 l 1
 168 524 l 1
 254 524 l 1
EndSplineSet
EndChar
StartChar: circumflex
Encoding: 710 710
Width: 333
Flags: MW
HStem: 721 20<116 211 211 211>
Fore
116 741 m 1
 211 741 l 1
 307 591 l 1
 244 591 l 1
 163 687 l 1
 84 591 l 1
 20 591 l 1
 116 741 l 1
EndSplineSet
EndChar
StartChar: caron
Encoding: 711 711
Width: 333
Flags: MW
HStem: 721 20<19 82 82 82 242 306 306 306>
Fore
210 591 m 1
 115 591 l 1
 19 741 l 1
 82 741 l 1
 163 645 l 1
 242 741 l 1
 306 741 l 1
 210 591 l 1
EndSplineSet
EndChar
StartChar: breve
Encoding: 728 728
Width: 333
Flags: MW
HStem: 597 69<137.5 193> 712 20<15 74 74 74 257 316 316 316>
Fore
15 732 m 1
 74 732 l 1
 79 688 109 666 166 666 c 0
 220 666 253 690 257 732 c 1
 316 732 l 1
 309 643 257 597 164 597 c 0
 108 597 63 617 36 654 c 0
 22 674 16 693 15 732 c 1
EndSplineSet
EndChar
StartChar: dotaccent
Encoding: 729 729
Width: 333
Flags: MW
HStem: 612 104<115 219>
VStem: 115 104<612 716>
Fore
219 716 m 1
 219 612 l 1
 115 612 l 1
 115 716 l 1
 219 716 l 1
EndSplineSet
EndChar
StartChar: ring
Encoding: 730 730
Width: 333
Flags: MW
HStem: 579 44<155 179> 710 44<155 179.5>
VStem: 79 44<655 678.5> 211 44<654.5 678.5>
Fore
167 754 m 0
 216 754 255 715 255 666 c 0
 255 618 215 579 167 579 c 0
 119 579 79 619 79 667 c 0
 79 714 119 754 167 754 c 0
167 710 m 0
 143 710 123 690 123 667 c 0
 123 643 143 623 167 623 c 0
 191 623 211 643 211 666 c 0
 211 691 192 710 167 710 c 0
EndSplineSet
EndChar
StartChar: ogonek
Encoding: 731 731
Width: 333
Flags: MW
HStem: -205 45<178.5 198.5>
VStem: 57 73<-123.5 -87>
Fore
154 0 m 1
 224 0 l 1
 151 -41 130 -64 130 -106 c 0
 130 -141 155 -160 202 -160 c 0
 226 -160 247 -157 265 -150 c 1
 265 -195 l 1
 241 -200 208 -205 189 -205 c 0
 167 -205 142 -200 120 -192 c 0
 78 -176 57 -150 57 -111 c 0
 57 -63 93 -22 154 0 c 1
EndSplineSet
EndChar
StartChar: tilde
Encoding: 732 732
Width: 333
Flags: W
HStem: 613 67<220.5 233> 651 66<88.5 101.5>
Fore
261 717 m 1
 319 717 l 1
 309 648 279 613 230 613 c 0
 211 613 199 617 145 638 c 0
 121 647 107 651 96 651 c 0
 81 651 69 637 63 614 c 1
 5 614 l 1
 16 680 47 717 91 717 c 0
 112 717 119 715 161 698 c 0
 185 687 212 680 224 680 c 0
 242 680 253 692 261 717 c 1
EndSplineSet
EndChar
StartChar: hungarumlaut
Encoding: 733 733
Width: 333
Flags: MW
HStem: 720 20<61 174 174 174 235 348 348 348>
Fore
61 740 m 1
 174 740 l 1
 25 590 l 1
 -35 590 l 1
 61 740 l 1
235 740 m 1
 348 740 l 1
 199 590 l 1
 139 590 l 1
 235 740 l 1
EndSplineSet
EndChar
StartChar: uni030F
Encoding: 783 783
Width: 333
Flags: W
HStem: 720 20G<-35 78 139 252>
Fore
252 740 m 1
 348 590 l 1
 288 590 l 1
 139 740 l 1
 252 740 l 1
78 740 m 1
 174 590 l 1
 114 590 l 1
 -35 740 l 1
 78 740 l 1
EndSplineSet
EndChar
StartChar: uni0311
Encoding: 785 785
Width: 333
Flags: W
HStem: 663 69<159 175>
Fore
15 597 m 1
 16 636 22 655 36 675 c 0
 63 712 108 732 164 732 c 0
 257 732 309 686 316 597 c 1
 257 597 l 1
 253 639 220 663 166 663 c 0
 109 663 79 641 74 597 c 1
 15 597 l 1
EndSplineSet
EndChar
StartChar: uni0326
Encoding: 806 806
Width: 333
Flags: W
HStem: -284 38<105 167 105.063 116.254> -160 100<106 159>
VStem: 105 100<-160 -61> 160.109 44.8908<-183.37 -163.063 -163 -160.047>
Fore
105 -60 m 1
 205 -60 l 1
 205 -163 l 2
 205 -238 167 -285 105 -284 c 1
 105 -246 l 1
 143 -246 162 -215 160 -160 c 1
 105 -160 l 1
 105 -60 l 1
EndSplineSet
MinimumDistance: x1,-1 
EndChar
StartChar: tonos
Encoding: 900 900
Width: 414
Flags: W
HStem: 584 136<174 182>
Fore
288 720 m 1
 182 584 l 1
 108 584 l 1
 174 720 l 1
 288 720 l 1
EndSplineSet
EndChar
StartChar: dieresistonos
Encoding: 901 901
Width: 434
Flags: W
HStem: 428 100<76 166 258 348> 582 138<263 267>
VStem: 75 92<429 527> 257 92<429 527>
Fore
381 720 m 1
 267 582 l 1
 197 582 l 1
 263 720 l 1
 381 720 l 1
349 428 m 1
 257 428 l 1
 257 528 l 1
 349 528 l 1
 349 428 l 1
167 428 m 1
 75 428 l 1
 75 528 l 1
 167 528 l 1
 167 428 l 1
EndSplineSet
MinimumDistance: x4,-1 
EndChar
StartChar: Alphatonos
Encoding: 902 902
Width: 709
Flags: W
HStem: 0 21G<23 125 587 693> 218 76<232 472> 580 138<75 79>
DStem: 299 716 309 504 23 0 231 294
Fore
193 718 m 1
 79 580 l 1
 9 580 l 1
 75 718 l 1
 193 718 l 1
693 0 m 1
 587 0 l 1
 503 218 l 1
 203 218 l 1
 125 0 l 1
 23 0 l 1
 299 716 l 1
 401 716 l 1
 693 0 l 1
473 294 m 1
 399 492 l 2
 383 534 372 566 365 587 c 0
 360 598 354 616 347 642 c 1
 343 619 338 596 332 573 c 0
 327 555 319 532 309 504 c 2
 231 294 l 1
 473 294 l 1
EndSplineSet
MinimumDistance: x17,-1 
EndChar
StartChar: Epsilontonos
Encoding: 904 904
Width: 806
Flags: W
HStem: 0 84<327 765> 328 84<327 721> 576 138<76 80> 632 84<327 749>
VStem: 232 94<84 328 412 632>
Fore
194 714 m 1
 80 576 l 1
 10 576 l 1
 76 714 l 1
 194 714 l 1
766 0 m 1
 232 0 l 1
 232 716 l 1
 750 716 l 1
 750 632 l 1
 326 632 l 1
 326 412 l 1
 722 412 l 1
 722 328 l 1
 326 328 l 1
 326 84 l 1
 766 84 l 1
 766 0 l 1
EndSplineSet
MinimumDistance: x4,-1 x14,4 x14,15 x10,12 x10,11 x9,7 x9,8 
EndChar
StartChar: Etatonos
Encoding: 905 905
Width: 843
Flags: W
HStem: 0 716<230 323 695 788> 338 84<323 695> 576 138<73 77>
VStem: 229 94<1 337 423 715> 695 94<1 337 423 715>
Fore
191 714 m 1
 77 576 l 1
 7 576 l 1
 73 714 l 1
 191 714 l 1
789 0 m 1
 695 0 l 1
 695 338 l 1
 323 338 l 1
 323 0 l 1
 229 0 l 1
 229 716 l 1
 323 716 l 1
 323 422 l 1
 695 422 l 1
 695 716 l 1
 789 716 l 1
 789 0 l 1
EndSplineSet
MinimumDistance: x4,-1 y12,10 y12,11 y7,9 y7,8 y6,4 y6,5 
EndChar
StartChar: Iotatonos
Encoding: 906 906
Width: 370
Flags: W
HStem: 584 138<74 78>
VStem: 230 94<3 717>
Fore
192 722 m 1
 78 584 l 1
 8 584 l 1
 74 722 l 1
 192 722 l 1
324 2 m 1
 230 2 l 1
 230 718 l 1
 324 718 l 1
 324 2 l 1
EndSplineSet
MinimumDistance: x4,-1 
EndChar
StartChar: Omicrontonos
Encoding: 908 908
Width: 838
Flags: W
HStem: -14 82<431 463> 586 138<65 69> 646 82<431 463>
VStem: 111 96<322 370> 697 98<338 386>
Fore
183 724 m 1
 69 586 l 1
 -1 586 l 1
 65 724 l 1
 183 724 l 1
795 356 m 0
 795 287 780 221 751 160 c 1
 720 103 677 60 624 31 c 0
 570 1 513 -14 453 -14 c 0
 384 -14 323 2 272 35 c 0
 220 68 183 105 162 146 c 0
 142 185 128 221 121 254 c 0
 114 283 111 315 111 348 c 0
 111 467 143 560 206 627 c 0
 269 694 352 728 453 728 c 0
 520 728 573 716 612 692 c 0
 651 668 681 645 702 623 c 0
 723 599 743 567 764 527 c 0
 785 486 795 429 795 356 c 0
697 356 m 0
 697 413 687 464 667 509 c 0
 647 552 618 586 581 611 c 1
 542 634 500 646 453 646 c 0
 387 646 330 623 281 577 c 0
 232 530 207 453 207 346 c 0
 207 261 230 193 276 143 c 0
 322 93 380 68 451 68 c 0
 523 68 582 93 628 143 c 0
 674 193 697 264 697 356 c 0
EndSplineSet
MinimumDistance: x4,-1 
EndChar
StartChar: Upsilontonos
Encoding: 910 910
Width: 905
Flags: W
HStem: 0 21G<496 590> 578 138<72 76>
VStem: 496 94<1 304>
DStem: 220 716 334 716 496 304 476 500 766 716 876 716 626 506 590 304
Fore
190 716 m 1
 76 578 l 1
 6 578 l 1
 72 716 l 1
 190 716 l 1
876 716 m 1
 590 304 l 1
 590 0 l 1
 496 0 l 1
 496 304 l 1
 220 716 l 1
 334 716 l 1
 476 500 l 2
 501 461 525 421 548 380 c 1
 626 506 l 1
 766 716 l 1
 876 716 l 1
EndSplineSet
MinimumDistance: x4,-1 
EndChar
StartChar: Omegatonos
Encoding: 911 911
Width: 784
Flags: W
HStem: 0 76<103 275 587 761> 582 138<78 82> 646 76<412 444>
VStem: 102 264<1 76> 110 84<352 370 378.063 388 391 400> 488 274<1 76> 672 90<352 400>
Fore
196 720 m 1
 82 582 l 1
 12 582 l 1
 78 720 l 1
 196 720 l 1
762 0 m 1
 488 0 l 1
 488 80 l 1
 549 105 595 143 626 194 c 0
 657 245 672 305 672 376 c 2
 672 384 l 2
 672 453 649 514 604 568 c 0
 559 620 501 646 428 646 c 0
 358 646 302 620 260 567 c 0
 217 514 196 451 196 378 c 1
 194 370 l 1
 194 304 208 246 237 197 c 1
 265 146 308 107 366 80 c 1
 366 0 l 1
 102 0 l 1
 102 76 l 1
 276 76 l 1
 216 113 173 155 148 200 c 0
 123 246 110 309 110 388 c 1
 108 390 l 1
 108 473 138 549 199 618 c 0
 259 687 335 722 426 722 c 0
 525 722 605 689 668 622 c 0
 731 555 762 477 762 388 c 0
 762 307 749 244 722 199 c 0
 695 153 650 112 586 76 c 1
 762 76 l 1
 762 0 l 1
EndSplineSet
MinimumDistance: x4,-1 
EndChar
StartChar: iotadieresistonos
Encoding: 912 912
Width: 373
Flags: W
HStem: -7.60422 88.6042<260 264> 564 100<37 127 219 309> 718 138<224 228>
VStem: 36 92<565 663> 124 92<168 519> 218 92<565 663>
Fore
342 856 m 1
 228 718 l 1
 158 718 l 1
 224 856 l 1
 342 856 l 1
310 564 m 1
 218 564 l 1
 218 664 l 1
 310 664 l 1
 310 564 l 1
128 564 m 1
 36 564 l 1
 36 664 l 1
 128 664 l 1
 128 564 l 1
338 13 m 1
 307 -1 277 -8 248 -8 c 0
 207 -8 178 3 160 25 c 0
 133.356 56.9726 124 74.7348 124 133 c 2
 124 520 l 1
 216 520 l 1
 216 191 l 2
 216 139.067 218.337 81 262 81 c 0
 277 81 292 85 308 94 c 1
 338 13 l 1
EndSplineSet
MinimumDistance: x4,-1 
EndChar
StartChar: Alpha
Encoding: 913 913
Width: 684
Flags: W
HStem: 0 21G<8 110 572 678> 218 76<217 457>
DStem: 284 716 294 504 8 0 216 294 284 716 188 218 8 0 110 0
Fore
678 0 m 1
 572 0 l 1
 488 218 l 1
 188 218 l 1
 110 0 l 1
 8 0 l 1
 284 716 l 1
 386 716 l 1
 678 0 l 1
458 294 m 1
 445.183 328.295 367.823 533.531 350 587 c 0
 346 596 340 615 332 642 c 1
 320.451 581.682 314.944 563.457 294 504 c 1
 216 294 l 1
 458 294 l 1
EndSplineSet
MinimumDistance: x11,-1 
EndChar
StartChar: Beta
Encoding: 914 914
Width: 628
Flags: W
HStem: 0 84<169 362> 330 86<169 362> 632 84<169 348>
VStem: 74 94<85 329 417 631> 486 94<521 536> 516 99<192 224>
Fore
615 212 m 0
 615 138.022 581.283 79.2752 540 48 c 0
 500 16 435 0 346 0 c 2
 74 0 l 1
 74 716 l 1
 342 716 l 2
 423.168 716 491.896 695.104 531 656 c 0
 550 637 562 618 569 598 c 0
 576 575 580 554 580 534 c 0
 580 458.757 536.31 407.595 480 382 c 1
 501 375 521 367 538 356 c 0
 589 321 615 273 615 212 c 0
486 522 m 0
 486 574.252 458.596 612.149 417 623 c 0
 394 629 359 632 312 632 c 2
 168 632 l 1
 168 416 l 1
 324 416 l 2
 367 416 397 419 414 424 c 0
 462 437 486 470 486 522 c 0
516 208 m 0
 516 268.007 483.422 302.859 438 318 c 0
 413 326 379 330 334 330 c 2
 168 330 l 1
 168 84 l 1
 346 84 l 2
 455.141 84 516 119.746 516 208 c 0
EndSplineSet
MinimumDistance: x0,-1 
EndChar
StartChar: Gamma
Encoding: 915 915
Width: 582
Flags: W
HStem: 0 21G<82 178> 632 84<179 565>
VStem: 82 96<1 632> 82 484<633 715>
Fore
566 632 m 1
 178 632 l 1
 178 0 l 1
 82 0 l 1
 82 716 l 1
 566 716 l 1
 566 632 l 1
EndSplineSet
MinimumDistance: x0,-1 y1,3 y1,2 x1,5 x1,0 
EndChar
StartChar: uni0394
Encoding: 916 916
Width: 684
Flags: W
HStem: 0.138145 83.8619<147 544>
DStem: 289 716 299 504 13 0 147 84
Fore
683 0 m 1
 463.153 5.04191 235.702 -0.912592 13 0 c 1
 289 716 l 1
 391 716 l 1
 683 0 l 1
545 84 m 1
 488.707 234.801 404.479 443.343 355 587 c 1
 350 598 344 616 337 642 c 1
 327.022 584.629 318.619 558.932 299 504 c 2
 147 84 l 1
 545 84 l 1
EndSplineSet
MinimumDistance: x7,-1 
EndChar
StartChar: Epsilon
Encoding: 917 917
Width: 650
Flags: W
HStem: 0 84<175 613> 328 84<175 569> 632 84<175 597>
VStem: 80 94<84 328 412 632> 80 490<329 411> 80 518<633 715> 80 534<1 83>
Fore
614 0 m 1
 80 0 l 1
 80 716 l 1
 598 716 l 1
 598 632 l 1
 174 632 l 1
 174 412 l 1
 570 412 l 1
 570 328 l 1
 174 328 l 1
 174 84 l 1
 614 84 l 1
 614 0 l 1
EndSplineSet
MinimumDistance: x0,-1 x10,0 x10,11 x6,8 x6,7 x5,3 x5,4 
EndChar
StartChar: Zeta
Encoding: 918 918
Width: 628
Flags: W
HStem: 0 84<146 600> 632 84<78 476>
VStem: 35 566<1 84> 77 512<632 715>
DStem: 403 546 589 632 35 88 145 84
Fore
601 0 m 1
 35 0 l 1
 35 88 l 1
 403 546 l 2
 428 578 452 607 477 632 c 1
 77 632 l 1
 77 716 l 1
 589 716 l 1
 589 632 l 1
 145 84 l 1
 601 84 l 1
 601 0 l 1
EndSplineSet
MinimumDistance: x7,-1 
EndChar
StartChar: Eta
Encoding: 919 919
Width: 683
Flags: W
HStem: 338 84<159 531>
VStem: 65 94<1 337 423 715> 531 94<1 337 423 715>
Fore
625 0 m 1
 531 0 l 1
 531 338 l 1
 159 338 l 1
 159 0 l 1
 65 0 l 1
 65 716 l 1
 159 716 l 1
 159 422 l 1
 531 422 l 1
 531 716 l 1
 625 716 l 1
 625 0 l 1
EndSplineSet
MinimumDistance: x0,-1 y9,11 y9,10 y8,6 y8,7 y3,5 y3,4 y2,0 y2,1 
EndChar
StartChar: Theta
Encoding: 920 920
Width: 750
Flags: W
HStem: -12 82<364 398> 328 84<217 553> 648 82<364 398>
VStem: 45 96<323 373> 631 98<326 389>
Fore
729 358 m 0
 729 203.101 660.939 90.6571 561 33 c 0
 509 3 451 -12 387 -12 c 0
 328 -12 273 0 222 25 c 0
 169 50 126 90 94 144 c 0
 61 197 45 266 45 350 c 0
 45 566.32 164.436 730 387 730 c 0
 487.85 730 564.525 694.25 622 642 c 0
 687.918 582.075 729 483.639 729 358 c 0
631 358 m 0
 631 489.415 579.243 585.42 488 628 c 0
 457 641 423 648 387 648 c 0
 218.538 648 141 522.909 141 348 c 0
 141 222.645 196.361 127.429 288 89 c 0
 317 76 350 70 385 70 c 0
 492.994 70 562.263 125.728 600 203 c 0
 621 246 631 297 631 358 c 0
553 328 m 1
 217 328 l 1
 217 412 l 1
 553 412 l 1
 553 328 l 1
EndSplineSet
MinimumDistance: x0,-1 
EndChar
StartChar: Iota
Encoding: 921 921
Width: 236
Flags: W
HStem: 0 716<70 162>
VStem: 69 94<1 715>
Fore
163 0 m 1
 69 0 l 1
 69 716 l 1
 163 716 l 1
 163 0 l 1
EndSplineSet
MinimumDistance: x0,-1 
EndChar
StartChar: Kappa
Encoding: 922 922
Width: 684
Flags: W
HStem: 0 716<75 168>
VStem: 74 94<1 248 363 715>
DStem: 522 716 642 716 168 362 352 426
Fore
666 0 m 1
 540 0 l 1
 282 362 l 1
 168 248 l 1
 168 0 l 1
 74 0 l 1
 74 716 l 1
 168 716 l 1
 168 362 l 1
 522 716 l 1
 642 716 l 1
 352 426 l 1
 666 0 l 1
EndSplineSet
MinimumDistance: x10,-1 
EndChar
StartChar: Lambda
Encoding: 923 923
Width: 684
Flags: W
HStem: 0 21G<8 110 572 678>
Fore
678 0 m 1
 572 0 l 1
 384 492 l 1
 357.399 568.292 353.51 570.512 332 642 c 1
 320.594 582.687 314.841 562.734 294 504 c 2
 110 0 l 1
 8 0 l 1
 284 716 l 1
 386 716 l 1
 678 0 l 1
EndSplineSet
EndChar
StartChar: Mu
Encoding: 924 924
Width: 800
Flags: W
HStem: 0 716<65 156 656 747>
VStem: 64 92<1 609> 656 92<1 599>
DStem: 156 610 208 716 362 0 376 210 448 218 656 600 410 104 448 0 620 716 656 600 448 218 448 0
Fore
748 0 m 1
 656 0 l 1
 656 600 l 1
 448 0 l 1
 362 0 l 1
 156 610 l 1
 156 0 l 1
 64 0 l 1
 64 716 l 1
 208 716 l 1
 376 210 l 1
 386.06 183.8 403.746 133.754 410 104 c 1
 448 218 l 1
 620 716 l 1
 748 716 l 1
 748 0 l 1
EndSplineSet
MinimumDistance: x0,-1 
EndChar
StartChar: Nu
Encoding: 925 925
Width: 654
Flags: W
HStem: 0 716<57 148 530 619>
VStem: 56 92<1 561> 530 90<155 715>
DStem: 148 562 154 716 524 0 530 154
Fore
620 0 m 1
 524 0 l 1
 148 562 l 1
 148 0 l 1
 56 0 l 1
 56 716 l 1
 154 716 l 1
 530 154 l 1
 530 716 l 1
 620 716 l 1
 620 0 l 1
EndSplineSet
MinimumDistance: x0,-1 
EndChar
StartChar: Xi
Encoding: 926 926
Width: 630
Flags: W
HStem: 0 84<71 603> 326 84<133 531> 632 84<71 587>
VStem: 70 518<633 715> 70 534<1 83> 132 400<327 409>
Fore
588 632 m 1
 70 632 l 1
 70 716 l 1
 588 716 l 1
 588 632 l 1
532 326 m 1
 132 326 l 1
 132 410 l 1
 532 410 l 1
 532 326 l 1
604 0 m 1
 70 0 l 1
 70 84 l 1
 604 84 l 1
 604 0 l 1
EndSplineSet
MinimumDistance: x4,-1 
EndChar
StartChar: Omicron
Encoding: 927 927
Width: 750
Flags: W
HStem: -12 82<370 402> 648 82<370 402>
VStem: 50 96<324 372> 636 98<340 388>
Fore
734 358 m 0
 734 203.101 665.939 90.6571 566 33 c 0
 514 3 456 -12 392 -12 c 0
 314 -12 249 6 198 41 c 0
 147 76 109 121 85 176 c 0
 62 232 50 290 50 350 c 0
 50 527.371 127.629 652.017 253 704 c 0
 296 721 342 730 392 730 c 0
 451 730 506 717 558 691 c 0
 610 664 652 623 685 568 c 0
 718 513 734 443 734 358 c 0
636 358 m 0
 636 470.295 597.774 557.813 529 608 c 0
 492 635 447 648 392 648 c 0
 310.006 648 250.207 616.674 211 570 c 0
 168.902 519.883 146 440.087 146 348 c 0
 146 222.737 201.361 127.429 293 89 c 0
 322 76 354 70 390 70 c 0
 497.994 70 567.263 125.728 605 203 c 0
 626 246 636 297 636 358 c 0
EndSplineSet
MinimumDistance: x0,-1 
EndChar
StartChar: Pi
Encoding: 928 928
Width: 721
Flags: W
HStem: 0 21G<80 174 546 640> 632 84<175 545>
VStem: 80 94<1 631> 546 94<1 631>
Fore
640 0 m 1
 546 0 l 1
 546 632 l 1
 174 632 l 1
 174 0 l 1
 80 0 l 1
 80 716 l 1
 640 716 l 1
 640 0 l 1
EndSplineSet
MinimumDistance: x0,-1 y3,5 y3,4 y2,0 y2,1 
EndChar
StartChar: Rho
Encoding: 929 929
Width: 638
Flags: W
HStem: 0 21G<78 172> 292 84<173 382> 632 84<173 398>
VStem: 78 94<1 292 377 631> 526 98<496 512>
Fore
624 510 m 0
 624 354.836 518.737 292 356 292 c 2
 172 292 l 1
 172 0 l 1
 78 0 l 1
 78 716 l 1
 348 716 l 2
 446.268 716 508.567 709.379 557 667 c 0
 597.289 631.747 624 579.93 624 510 c 0
526 506 m 0
 526 568 499 608 444 626 c 1
 427 630 398 632 356 632 c 2
 172 632 l 1
 172 376 l 1
 358 376 l 2
 461.941 376 526 407.632 526 506 c 0
EndSplineSet
MinimumDistance: x0,-1 y2,4 y2,3 
EndChar
StartChar: Sigma
Encoding: 931 931
Width: 628
Flags: W
HStem: 0 84<151 605> 634 84<187 585>
VStem: 40 566<1 84> 74 512<634 717>
DStem: 74 634 260 548 276 386 392 386 276 386 392 386 40 88 150 84
Fore
606 0 m 1
 40 0 l 1
 40 88 l 1
 276 386 l 1
 74 634 l 1
 74 718 l 1
 586 718 l 1
 586 634 l 1
 186 634 l 1
 209 611 233 583 260 548 c 1
 392 386 l 1
 150 84 l 1
 606 84 l 1
 606 0 l 1
EndSplineSet
MinimumDistance: x6,-1 
EndChar
StartChar: Tau
Encoding: 932 932
Width: 628
Flags: W
HStem: 0 21G<275 369> 632 84<40 274 370 606>
VStem: 275 94<1 632>
Fore
607 632 m 1
 369 632 l 1
 369 0 l 1
 275 0 l 1
 275 632 l 1
 39 632 l 1
 39 716 l 1
 607 716 l 1
 607 632 l 1
EndSplineSet
MinimumDistance: x0,-1 y1,3 y1,2 x4,6 x4,5 x1,7 x1,0 
EndChar
StartChar: Upsilon
Encoding: 933 933
Width: 684
Flags: W
HStem: 0 21G<290 384>
VStem: 290 94<1 304>
Fore
670 716 m 1
 384 304 l 1
 384 0 l 1
 290 0 l 1
 290 304 l 1
 14 716 l 1
 128 716 l 1
 198.012 606.329 279.627 494.362 342 380 c 1
 420 506 l 1
 560 716 l 1
 670 716 l 1
EndSplineSet
MinimumDistance: x1,-1 
EndChar
StartChar: Phi
Encoding: 934 934
Width: 717
Flags: W
VStem: 29 91<336 368> 317 83<1 73 143 564 638 719> 597 91<336 368>
Fore
688 353 m 0
 688 270 661 203 606 151 c 0
 551 99 482 73 400 73 c 1
 400 0 l 1
 317 0 l 1
 317 73 l 1
 235 73 166 99 111 151 c 0
 56 202 29 270 29 353 c 0
 29 519.371 154.095 638 318 638 c 1
 318 720 l 1
 399 720 l 1
 399 638 l 1
 565.717 638 688 515.779 688 353 c 0
597 358 m 0
 597 478.645 509.955 553.426 400 565 c 1
 400 142 l 1
 514.449 153.84 597 234.589 597 358 c 0
317 142 m 1
 317 565 l 1
 205.932 553.309 120 477.837 120 358 c 0
 120 233.335 204.152 153.674 317 142 c 1
EndSplineSet
MinimumDistance: x0,-1 
EndChar
StartChar: Chi
Encoding: 935 935
Width: 723
Flags: W
HStem: 0 21G<29 143 569 687>
DStem: 307 374 323 250 29 0 143 0 563 716 667 716 419 526 415 378
Fore
687 0 m 1
 569 0 l 1
 498.635 101.635 425.516 200.516 357 304 c 1
 356.637 303.419 338 273.898 338 272 c 2
 323 250 l 1
 143 0 l 1
 29 0 l 1
 307 374 l 1
 63 716 l 1
 175 716 l 1
 175 716 336 489 340 483 c 0
 351 465 358 452 363 444 c 1
 374 464 384 479 392 489 c 1
 395 495 404 507 419 526 c 2
 563 716 l 1
 667 716 l 1
 415 378 l 1
 687 0 l 1
EndSplineSet
MinimumDistance: x15,-1 
EndChar
StartChar: Psi
Encoding: 936 936
Width: 745
Flags: W
HStem: 146 83<276 325 421 468>
VStem: 52 90<366 718> 330 86<230 717> 604 90<366 718>
Fore
694 368 m 2
 694 307 681 260 654 225 c 0
 627 189 593 166 550 155 c 0
 529 149 494 146 444 146 c 2
 420 146 l 1
 420 -2 l 1
 326 -2 l 1
 326 146 l 1
 302 146 l 2
 213.35 146 167.715 154.597 122 192 c 0
 78.3911 229.379 52 286.68 52 368 c 2
 52 720 l 1
 142 718 l 1
 142 380 l 2
 142 268.322 189.89 229 304 229 c 2
 330 229 l 1
 330 718 l 1
 416 718 l 1
 416 229 l 1
 442 229 l 2
 515.49 229 568.594 246.385 589 294 c 0
 599 316 604 345 604 380 c 2
 604 718 l 1
 694 720 l 1
 694 368 l 2
EndSplineSet
MinimumDistance: x0,-1 y15,17 y15,16 x5,7 x6,4 y4,6 y4,5 
EndChar
StartChar: uni03A9
Encoding: 937 937
Width: 720
Flags: W
HStem: 0 76<43 215 527 701> 646 76<346 378>
VStem: 42 264<1 76> 47 87<352 384> 428 274<1 76> 613 91<352 384>
Fore
704 370 m 0
 704 305 690 248 662 199 c 0
 635 152 590 111 526 76 c 1
 702 76 l 1
 702 0 l 1
 428 0 l 1
 428 80 l 1
 489 105 535 143 566 194 c 0
 597 247 613 305 613 368 c 0
 613 448.497 586.689 516.139 550 562 c 0
 511.96 610.908 450.944 646 368 646 c 0
 262.298 646 195.392 579.835 161 502 c 0
 143 459 134 413 134 365 c 0
 134 302 148 246 177 197 c 1
 205 146 248 107 306 80 c 1
 306 0 l 1
 42 0 l 1
 42 76 l 1
 216 76 l 1
 156 113 113 154 88 200 c 0
 61 249 47 304 47 366 c 0
 47 424 60 481 85 537 c 0
 131.714 637.902 225.472 722 366 722 c 0
 440 722 502 705 553 671 c 0
 604 637 642 593 667 539 c 0
 692 486 704 429 704 370 c 0
EndSplineSet
MinimumDistance: x0,-1 
EndChar
StartChar: Iotadieresis
Encoding: 938 938
Width: 307
Flags: W
HStem: 0 716<105 197> 760 100<15 105 197 287>
VStem: 14 92<761 859> 104 94<1 715> 196 92<761 859>
Fore
288 760 m 1
 196 760 l 1
 196 860 l 1
 288 860 l 1
 288 760 l 1
106 760 m 1
 14 760 l 1
 14 860 l 1
 106 860 l 1
 106 760 l 1
198 0 m 1
 104 0 l 1
 104 716 l 1
 198 716 l 1
 198 0 l 1
EndSplineSet
MinimumDistance: x0,-1 
EndChar
StartChar: Upsilondieresis
Encoding: 939 939
Width: 684
Flags: W
HStem: 0 21G<290 384> 760 100<197 287 379 469>
VStem: 196 92<761 859> 290 94<1 304> 378 92<761 859>
Fore
470 760 m 1
 378 760 l 1
 378 860 l 1
 470 860 l 1
 470 760 l 1
288 760 m 1
 196 760 l 1
 196 860 l 1
 288 860 l 1
 288 760 l 1
670 716 m 1
 384 304 l 1
 384 0 l 1
 290 0 l 1
 290 304 l 1
 14 716 l 1
 128 716 l 1
 198.012 606.329 279.627 494.362 342 380 c 1
 420 506 l 1
 560 716 l 1
 670 716 l 1
EndSplineSet
MinimumDistance: x0,-1 
EndChar
StartChar: alphatonos
Encoding: 940 940
Width: 596
Flags: W
HStem: -12 78<260 293> 454 76<260 294> 584 136<292 300>
VStem: 52 80<243 275> 446 72<443 519>
Fore
406 720 m 1
 300 584 l 1
 226 584 l 1
 292 720 l 1
 406 720 l 1
583 8 m 1
 554 -6 528 -13 503 -13 c 0
 480 -13 464 -7 453 6 c 0
 443 18 438 31 438 46 c 2
 438 55 l 2
 437 60 437 63 437 65 c 0
 437 63.994 426.607 47.2135 426 46 c 0
 396.681 10.3986 340.734 -12 276 -12 c 0
 127 -12 52 79 52 262 c 0
 52 350.066 74.2343 421.198 117 466 c 0
 155.11 504.11 205.081 530 276 530 c 0
 350 529 404 505 438 458 c 1
 446 442 l 1
 446 520 l 1
 518 520 l 1
 518 99 l 2
 518 80.65 524.939 68 539 68 c 0
 546 68 554 71 562 77 c 1
 583 8 l 1
422 264 m 0
 422 318 406 362 383 399 c 0
 360 436 325 454 276 454 c 0
 171.815 454 132 371.503 132 258 c 0
 132 147.554 170.283 66 274 66 c 0
 370 66 422 133 422 264 c 0
EndSplineSet
MinimumDistance: x18,-1 
EndChar
StartChar: epsilontonos
Encoding: 941 941
Width: 510
Flags: W
HStem: -10 70<231 264> 231 59<231 294> 462 70<231 264> 584 136<312 320>
VStem: 39 82<134 144 377 390>
Fore
426 720 m 1
 320 584 l 1
 246 584 l 1
 312 720 l 1
 426 720 l 1
476 136 m 1
 461.134 25.5638 384.448 -10 253 -10 c 0
 130.886 -10 39 23.5902 39 136 c 0
 39 209.418 83.2791 244.242 141 261 c 1
 81.8269 278.179 39 311.862 39 386 c 0
 39 502.912 131.686 529.524 253 532 c 2
 262 532 l 2
 389.59 532 461.126 494.369 476 386 c 1
 400 386 l 1
 393.252 442.232 318.654 462 250 462 c 0
 181.005 462 121 442.782 121 377 c 1
 125 348 136 326 155 312 c 0
 173 297 204 290 249 290 c 2
 295 290 l 1
 295 231 l 1
 249 231 l 2
 168.728 231 129.96 208.962 121 144 c 1
 121 80.6191 182.245 60 250 60 c 0
 317.347 60 393.31 80.2474 400 136 c 1
 476 136 l 1
EndSplineSet
MinimumDistance: x14,-1 
EndChar
StartChar: etatonos
Encoding: 942 942
Width: 536
Flags: W
HStem: 0 21G<76 164> 454 76<301 320> 584 136<302 310>
VStem: 76 88<1 298> 410 88<-158 346>
Fore
416 720 m 1
 310 584 l 1
 236 584 l 1
 302 720 l 1
 416 720 l 1
498 -182 m 1
 410 -158 l 1
 410 316 l 2
 410 351 407 377 400 396 c 0
 383 435 351 454 302 454 c 0
 210 454 164 397 164 284 c 2
 164 0 l 1
 76 0 l 1
 76 414 l 2
 76 439 69 451 54 451 c 0
 50 451 45 450 38 448 c 1
 24 520 l 1
 43 527 63 531 85 531 c 0
 130.314 531 153.298 490.965 155 445 c 1
 156 430 l 1
 201 497 255 530 320 530 c 0
 428.502 530 491.032 475.445 497 371 c 0
 498 364 498 347 498 320 c 2
 498 -182 l 1
EndSplineSet
MinimumDistance: x4,-1 
EndChar
StartChar: iotatonos
Encoding: 943 943
Width: 286
Flags: W
HStem: -8 87<179 196> 586 136<143 151>
VStem: 56 89<120 519>
Fore
257 722 m 1
 151 586 l 1
 77 586 l 1
 143 722 l 1
 257 722 l 1
270 13 m 1
 239 -1 209 -8 180 -8 c 0
 143 -8 113 3 90 26 c 0
 67 49 56 84 56 133 c 2
 56 520 l 1
 144 520 l 1
 144 136 l 0
 144 132 144 130 145 129 c 0
 145 112.831 151.065 100.935 163 89 c 1
 168 82 176 79 189 79 c 2
 196 79 l 2
 206 80 221 85 240 94 c 1
 270 13 l 1
EndSplineSet
MinimumDistance: x9,-1 
EndChar
StartChar: upsilondieresistonos
Encoding: 944 944
Width: 515
Flags: W
HStem: -14 76<244 280> 564 100<124 214 306 396> 718 138<311 315>
VStem: 40 88<194 517> 123 92<565 663> 305 92<565 663> 390 88<194 517>
Fore
429 856 m 1
 315 718 l 1
 245 718 l 1
 311 856 l 1
 429 856 l 1
397 564 m 1
 305 564 l 1
 305 664 l 1
 397 664 l 1
 397 564 l 1
215 564 m 1
 123 564 l 1
 123 664 l 1
 215 664 l 1
 215 564 l 1
478 198 m 2
 478 132.416 470.5 87.8644 446 50 c 0
 438 40 418 25 386 6 c 0
 363 -7 321 -14 262 -14 c 0
 199 -14 155 -7 132 6 c 0
 100 25 80 40 72 50 c 0
 47.8737 87.2861 40 130.529 40 198 c 2
 40 518 l 1
 128 518 l 1
 128 232 l 2
 128 167.117 129.944 111.885 163 89 c 0
 188.085 69.7036 215.722 62 260 62 c 0
 301.823 62 328.873 68.9023 355 89 c 0
 386.812 111.024 390 163.665 390 232 c 2
 390 518 l 1
 478 518 l 1
 478 198 l 2
EndSplineSet
MinimumDistance: x12,-1 
EndChar
StartChar: alpha
Encoding: 945 945
Width: 596
Flags: W
HStem: -12 78<256 288> 454 76<256.506 288>
VStem: 48 84<243 275> 446 72<443 519>
Fore
583 8 m 1
 554 -6 528 -13 503 -13 c 0
 480 -13 464 -7 453 6 c 0
 443 18 438 31 438 46 c 2
 438 55 l 2
 437 60 437 63 437 65 c 0
 437 62.5246 420.642 39.285 420 38 c 0
 406 21 392 15 365 4 c 0
 338 -7 309 -12 276 -12 c 0
 127 -12 48 79 48 262 c 0
 48 307 58 347 69 382 c 0
 96.4565 466.865 165.244 530 276 530 c 0
 350 529 404 505 438 458 c 1
 446 442 l 1
 446 520 l 1
 518 520 l 1
 518 99 l 2
 518 80.65 524.939 68 539 68 c 0
 546 68 554 71 562 77 c 1
 583 8 l 1
424 266 m 0
 424 320 406 362 383 399 c 0
 360 436 325 454 276 454 c 0
 171.815 454 132 371.503 132 258 c 0
 132 147.554 170.283 66 274 66 c 0
 370 66 424 135 424 266 c 0
EndSplineSet
MinimumDistance: x15,-1 
EndChar
StartChar: beta
Encoding: 946 946
Width: 516
Flags: W
HStem: -14 74<274 300> 338 74<203 264> 660 72<246 274>
VStem: 50 86<-197 51 144 522> 378 72<544.125 554> 414 90<186 218>
Fore
504 200 m 0
 504 75.1434 426.305 -14 298 -14 c 0
 218.339 -14 178.949 5.47237 136 52 c 1
 136 -198 l 1
 50 -198 l 1
 50 490 l 2
 50 551 57 597 70 628 c 1
 81 649 94 668 111 685 c 0
 145.554 715.714 187.066 732 250 732 c 0
 377.607 732 450 661.132 450 544 c 1
 445.344 464.066 410.979 411.405 346 388 c 1
 442.014 370.365 504 311.976 504 200 c 0
414 202 m 0
 414 249 401 283 375 303 c 0
 344 326 303 338 252 338 c 2
 202 338 l 1
 202 412 l 1
 244 412 l 2
 289 412 323 425 346 452 c 0
 367 477 378 509 378 546 c 0
 378 583 367 611 344 630 c 0
 322 650 295 660 263 660 c 0
 224 660 190 646 163 619 c 0
 145 601 136 557 136 486 c 1
 137 144 l 1
 147 117 163 97 186 82 c 0
 208 67 239 60 280 60 c 0
 337.476 60 373.885 82.2983 396 121 c 0
 408 142 414 169 414 202 c 0
EndSplineSet
MinimumDistance: x0,-1 
EndChar
StartChar: gamma
Encoding: 947 947
Width: 531
Flags: W
HStem: 454 76<57 67>
VStem: 249 86<-197 32>
DStem: 105 382 173 440 249 32 291 136 435 518 523 518 291 136 335 32
Fore
523 518 m 1
 335 32 l 1
 335 -198 l 1
 249 -198 l 1
 249 32 l 1
 105 382 l 1
 95 411 87 430 82 440 c 0
 76 449 68 454 57 454 c 0
 48 454 40 452 31 448 c 1
 25 518 l 1
 25 523.271 60.7216 530 67 530 c 0
 99 530 121 524 134 512 c 0
 147 499 160 475 173 440 c 1
 291 136 l 1
 435 518 l 1
 523 518 l 1
EndSplineSet
MinimumDistance: x0,-1 
EndChar
StartChar: delta
Encoding: 948 948
Width: 560
Flags: W
HStem: -16 82<261 305> 432 67<250 281> 646 72<203 470>
VStem: 37 90<224 250> 73 398<646 717> 441 88<240 272>
DStem: 73 646 202 646 284 495 377 519
Fore
529 250 m 0
 529 68.933 454.134 -16 275 -16 c 0
 202 -16 145 9 102 52 c 0
 60 95 37 157 37 242 c 0
 37 374.428 90.9301 453.159 185 488 c 1
 209 495 231 499 250 499 c 0
 266.011 499 271.904 497.135 284 495 c 1
 73 646 l 1
 73 718 l 1
 471 718 l 1
 471 646 l 1
 202 646 l 1
 377 519 l 2
 412 493 438 472 453 456 c 0
 504 404 529 335 529 250 c 0
441 252 m 0
 441 321.877 418.243 374.369 375 405 c 0
 351 423 320 432 281 432 c 0
 216.665 432 169.42 392.29 147 344 c 0
 134 315 128 284 127 250 c 0
 127 125 187 66 275 66 c 2
 303 66 l 2
 331 66 353 68 372 82 c 0
 414.704 114.455 441 181.564 441 252 c 0
EndSplineSet
MinimumDistance: x0,-1 
EndChar
StartChar: epsilon
Encoding: 949 949
Width: 510
Flags: W
HStem: -10 70<231 264> 231 59<231 294> 462 70<231 264>
VStem: 39 82<134 144 377 390>
Fore
476 136 m 1
 461.134 25.5638 384.448 -10 253 -10 c 0
 130.886 -10 39 23.5902 39 136 c 0
 39 209.418 83.2791 244.242 141 261 c 1
 81.8269 278.179 39 311.862 39 386 c 0
 39 502.912 131.686 529.524 253 532 c 2
 262 532 l 2
 389.59 532 461.126 494.369 476 386 c 1
 400 386 l 1
 393.252 442.232 318.654 462 250 462 c 0
 181.005 462 121 442.782 121 377 c 1
 125 348 136 326 155 312 c 0
 173 297 204 290 249 290 c 2
 295 290 l 1
 295 231 l 1
 249 231 l 2
 168.728 231 129.96 208.962 121 144 c 1
 121 80.6191 182.245 60 250 60 c 0
 317.347 60 393.31 80.2474 400 136 c 1
 476 136 l 1
EndSplineSet
MinimumDistance: x10,-1 
EndChar
StartChar: zeta
Encoding: 950 950
Width: 462
Flags: W
HStem: 646 72<55 277>
VStem: 38 92<219 238> 54 356<658 717> 360 80<-64 -42>
Fore
440 -42 m 0
 440 -79 427 -130 402 -194 c 1
 326 -166 l 1
 349 -119 360 -85 360 -64 c 0
 360 -17.1527 343.464 -4 294 -4 c 0
 237 -4 177 16 115 57 c 0
 64 90 38 145 38 220 c 0
 38 415.499 152.335 565.714 278 646 c 1
 54 646 l 1
 54 718 l 1
 410 718 l 1
 410 658 l 1
 277.916 582.762 130 427.322 130 236 c 0
 130 187 145 149 176 122 c 0
 214.583 90.7665 241.245 80.6166 303 74 c 0
 352.173 70.4876 386.326 64.6739 409 42 c 0
 430 21 440 -7 440 -42 c 0
EndSplineSet
MinimumDistance: x0,-1 
EndChar
StartChar: eta
Encoding: 951 951
Width: 526
Flags: W
HStem: 0 21G<76 164> 454 76<301 320>
VStem: 76 88<1 298> 410 88<-158 346>
Fore
498 -182 m 1
 410 -158 l 1
 410 316 l 2
 410 351 407 377 400 396 c 0
 383 435 351 454 302 454 c 0
 210 454 164 397 164 284 c 2
 164 0 l 1
 76 0 l 1
 76 414 l 2
 76 439 69 451 54 451 c 0
 50 451 45 450 38 448 c 1
 24 520 l 1
 43 527 63 531 85 531 c 0
 130.314 531 153.298 490.965 155 445 c 1
 156 430 l 1
 201 497 255 530 320 530 c 0
 428.502 530 491.032 475.445 497 371 c 0
 498 364 498 347 498 320 c 2
 498 -182 l 1
EndSplineSet
MinimumDistance: x0,-1 
EndChar
StartChar: theta
Encoding: 952 952
Width: 526
Flags: W
HStem: -12 74<253 285> 330 72<132 405> 658 72<253 285>
VStem: 45 445<301.108 402> 45.4782 85.5218<324 329 403 404> 406 83.0966<308 329 403 404>
Fore
490 360 m 0
 490 208.972 469.376 77.3228 390 22 c 0
 357 -1 317 -12 268 -12 c 0
 136.009 -12 84.4413 69.1259 60 184 c 0
 50 232 45 291 45 360 c 0
 45 498.886 70.4483 618.664 140 684 c 0
 173 715 215 730 268 730 c 0
 382.648 730 441.478 651.246 468 554 c 0
 483 500 490 435 490 360 c 0
406 402 m 1
 406 475 396 536 377 586 c 0
 358 634 321 658 268 658 c 0
 222 658 188 637 166 595 c 0
 143 552 131 488 131 402 c 1
 406 402 l 1
406 330 m 1
 131 330 l 1
 131 234.552 141.043 148.14 184 97 c 0
 205 74 233 62 268 62 c 0
 342.872 62 376.539 112.286 392 181 c 0
 401 223 406 273 406 330 c 1
EndSplineSet
EndChar
StartChar: iota
Encoding: 953 953
Width: 286
Flags: W
HStem: -8 87<179 196>
VStem: 56 89<120 519>
Fore
270 13 m 1
 239 -1 209 -8 180 -8 c 0
 143 -8 113 3 90 26 c 0
 67 49 56 84 56 133 c 2
 56 520 l 1
 144 520 l 1
 144 136 l 0
 144 132 144 130 145 129 c 0
 145 112.831 151.065 100.935 163 89 c 1
 168 82 176 79 189 79 c 2
 196 79 l 2
 206 80 221 85 240 94 c 1
 270 13 l 1
EndSplineSet
MinimumDistance: x5,-1 
EndChar
StartChar: kappa
Encoding: 954 954
Width: 516
Flags: W
HStem: 0 518<67 154>
VStem: 66 88<1 206 309 517>
DStem: 216 266 278 326 388 0 496 0 362 518 476 518 154 308 278 326
Fore
496 0 m 1
 388 0 l 1
 216 266 l 1
 154 206 l 1
 154 0 l 1
 66 0 l 1
 66 518 l 1
 154 518 l 1
 154 308 l 1
 362 518 l 1
 476 518 l 1
 278 326 l 1
 496 0 l 1
EndSplineSet
MinimumDistance: x0,-1 
EndChar
StartChar: lambda
Encoding: 955 955
Width: 560
Flags: W
HStem: -10 83<475 502> 646 86<119 134>
DStem: 306 304 308 530 394 68 460 120
Fore
556 14 m 1
 524 -2 497 -10 475 -10 c 0
 442 -10 419 6 407 38 c 0
 402.973 48.0668 397.572 58.0102 394 68 c 2
 306 304 l 2
 290 348 279 387 272 422 c 1
 230.557 278.843 173.862 139.815 126 2 c 1
 30 2 l 1
 228 522 l 1
 209.042 576.166 200.419 614.149 159 639 c 0
 150 644 137 646 120 646 c 0
 105.348 646 89.0516 643.013 77 640 c 0
 73 639 69 639 66 638 c 1
 76 720 l 1
 98 728 117 732 132 732 c 0
 185.619 732 205.901 715.523 235 683 c 0
 268.664 641.415 283.847 596.019 308 530 c 2
 460 120 l 1
 474 92 l 2
 480 79 489 73 502 73 c 0
 508.493 73 531.544 79.5441 536 84 c 1
 556 14 l 1
EndSplineSet
MinimumDistance: x17,-1 
EndChar
StartChar: uni03BC
Encoding: 956 956
Width: 574
Flags: W
HStem: -12 80<270 302>
VStem: 78 88<-199 51 248 517> 412 86<248 517> 418 80<1 61>
Fore
498 0 m 1
 418 0 l 1
 418 62 l 1
 388.759 15.558 354.728 -12 288 -12 c 0
 255.833 -12 235.84 -6.18139 213 6 c 0
 200 13 184 28 166 52 c 1
 166 -200 l 1
 78 -200 l 1
 78 518 l 1
 166 518 l 1
 166 300 l 2
 166 219 170 168 178 145 c 0
 192.251 100.466 230.045 68 286 68 c 0
 313 68 330.137 74.2567 354 90 c 24
 374.824 103.738 389 119 395 137 c 0
 408.951 181.643 412 230.405 412 298 c 2
 412 518 l 1
 498 518 l 1
 498 0 l 1
EndSplineSet
MinimumDistance: x0,-1 
EndChar
StartChar: nu
Encoding: 957 957
Width: 504
Flags: W
HStem: 0 21G<210 292>
DStem: 14 518 106 518 210 0 218 208 398 518 488 518 284 202 292 0
Fore
488 518 m 1
 292 0 l 1
 210 0 l 1
 14 518 l 1
 106 518 l 1
 218 208 l 1
 230.802 172.322 242.641 130.898 250 104 c 1
 259.993 134.461 272.388 177.316 284 202 c 1
 398 518 l 1
 488 518 l 1
EndSplineSet
MinimumDistance: x0,-1 
EndChar
StartChar: xi
Encoding: 958 958
Width: 470
Flags: W
HStem: 0 70<243 302> 340 64<272 383> 648 70<39 137 240 409>
VStem: 38 372<648 717> 62 76<510 526> 362 79<-59 -34>
Fore
441 -39 m 0
 441 -80 428 -131 402 -194 c 1
 328 -166 l 1
 350 -111 361 -75 362 -60 c 0
 363 -58 363 -53 363 -46 c 0
 363 -26 357 -14 344 -9 c 0
 332 -3 307 0 269 0 c 2
 250 0 l 2
 157.076 0 87.7101 23.7198 47 78 c 0
 26 105 13.4043 142.359 16 188 c 24
 19.2393 244.955 32.8126 284.879 70 320 c 0
 105 351 143 370 184 376 c 1
 114.384 385.669 62 438.672 62 516 c 0
 62 575.702 97.7307 626.907 138 648 c 1
 38 648 l 1
 38 718 l 1
 410 718 l 1
 410 648 l 1
 244 648 l 2
 186.25 648 138 577.47 138 516 c 0
 138 465 168 431 229 412 c 0
 244 407 269 404 302 404 c 2
 384 404 l 1
 384 340 l 1
 274 340 l 2
 206.329 340 156.252 312.444 125 272 c 0
 108 251 100 227 100 198 c 0
 100 114.22 176.957 70 262 70 c 0
 310 70 345 68 367 63 c 0
 415.8 54.8666 441 17.4295 441 -39 c 0
EndSplineSet
MinimumDistance: x0,-1 
EndChar
StartChar: omicron
Encoding: 959 959
Width: 550
Flags: W
HStem: -12 74<258 290> 458 72<258 290>
VStem: 34 90<244 276> 428 90<244 276>
Fore
518 260 m 0
 518 146.677 474.868 61.3575 402 20 c 0
 364 -1 322 -12 276 -12 c 0
 173.961 -12 104.15 35.4694 67 108 c 0
 45 149 34 199 34 260 c 0
 34 350 57 418 102 463 c 0
 147 508 205 530 276 530 c 0
 347 530 405 508 450 463 c 0
 495 418 518 350 518 260 c 0
428 260 m 0
 428 346.158 398.328 416.897 339 445 c 0
 321 454 300 458 276 458 c 0
 195.72 458 153.474 407.979 135 342 c 0
 128 316 124 289 124 260 c 0
 124 195 138 146 166 113 c 0
 193 79 230 62 276 62 c 0
 321 62 358 79 386 113 c 0
 414 146 428 195 428 260 c 0
EndSplineSet
MinimumDistance: x0,-1 
EndChar
StartChar: pi
Encoding: 960 960
Width: 661
Flags: W
HStem: -4 68<543 571> 450 70<54 123 217 453 542 604>
VStem: 123 94<0 449> 453 88<92 450>
Fore
617 14 m 1
 600.738 7.74552 564.634 -4 543 -4 c 0
 506 -4 482 6 471 25 c 0
 459 44 453 74 453 114 c 2
 453 450 l 1
 217 450 l 1
 217 0 l 1
 123 -2 l 1
 124 450 l 1
 54 450 l 1
 53 520 l 1
 605 520 l 1
 605 450 l 1
 541 450 l 1
 541 116 l 2
 541 84.0051 541.246 64 571 64 c 0
 586.514 64 587.196 67.1305 596 73 c 0
 599 74 600 75 601 76 c 1
 617 14 l 1
EndSplineSet
MinimumDistance: x11,-1 x13,11 x13,12 
EndChar
StartChar: rho
Encoding: 961 961
Width: 566
Flags: W
HStem: -10 74<281 313> 460 72<281 313>
VStem: 57 88<-199 60 248 280> 451 90<248 280>
Fore
541 270 m 0
 541 204 533 156 518 126 c 0
 487.972 67.9452 469.382 47.211 411 15 c 0
 382 -2 344 -10 297 -10 c 0
 227.378 -10 177.708 17.389 145 61 c 1
 145 -200 l 1
 57 -200 l 1
 57 270 l 2
 57 362 81 429 128 470 c 0
 175 511 232 532 297 532 c 0
 451.005 532 541 425.671 541 270 c 0
451 264 m 0
 451 328 436 377 407 410 c 0
 378 443 341 460 297 460 c 0
 252 460 216 443 189 410 c 1
 160 379 145 329 145 262 c 0
 145 195 159 146 188 113 c 0
 217 80 253 64 297 64 c 0
 340 64 377 80 407 112 c 1
 436 147 451 198 451 264 c 0
EndSplineSet
MinimumDistance: x0,-1 
EndChar
StartChar: sigma1
Encoding: 962 962
Width: 535
Flags: W
HStem: 458 78<256 280>
VStem: 22 96<266 298> 402 98<-41 -28> 410 91<324.125 343.643>
Fore
501 324 m 1
 410 324 l 1
 410 409.536 356.72 458 270 458 c 0
 207.008 458 164.923 424.862 140 380 c 0
 125 353 118 318 118 274 c 0
 118 245 123 218 132 194 c 0
 149 153 191 121 257 100 c 0
 277.555 94.3942 342.331 89.1669 364 87 c 0
 447.733 75.2773 500 57.6342 500 -28 c 0
 500 -68.5082 468.581 -143.311 452 -182 c 1
 362 -150 l 1
 367.652 -137.565 383.929 -100.214 389 -85 c 0
 391.343 -77.9705 400.014 -49.9422 402 -42 c 0
 403 -40 403 -37 403 -34 c 0
 403 -7.30581 357.51 -3.88141 318 -2 c 0
 225.221 2.41804 192.261 12.9175 125 62 c 0
 94 83 69 113 50 151 c 0
 31 186 22 227 22 276 c 0
 22 331 33 378 56 417 c 0
 98.8297 488.383 172.876 536 278 536 c 0
 409.168 536 501 452.313 501 324 c 1
EndSplineSet
MinimumDistance: x0,-1 
EndChar
StartChar: sigma
Encoding: 963 963
Width: 616
Flags: W
HStem: -12 74<258 290> 444 82<455 589> 458 72<258 290>
VStem: 34 90<244 276> 428 90<244 276>
Fore
590 444 m 1
 454 444 l 1
 497 389 518 328 518 260 c 0
 518 146.677 474.868 61.3575 402 20 c 0
 364 -1 322 -12 276 -12 c 0
 173.961 -12 104.15 35.4694 67 108 c 0
 45 149 34 199 34 260 c 0
 34 350 57 418 102 463 c 0
 147 508 205 530 276 530 c 0
 295 530 312 529 326 526 c 1
 590 526 l 1
 590 444 l 1
428 260 m 0
 428 346.158 398.328 416.897 339 445 c 0
 321 454 300 458 276 458 c 0
 195.72 458 153.474 407.979 135 342 c 0
 128 316 124 289 124 260 c 0
 124 195 138 146 166 113 c 0
 193 79 230 62 276 62 c 0
 321 62 358 79 386 113 c 0
 414 146 428 195 428 260 c 0
EndSplineSet
MinimumDistance: x2,-1 
EndChar
StartChar: tau
Encoding: 964 964
Width: 532
Flags: W
HStem: -4 84<329 343> 450 68<43 206 295 493>
VStem: 206 88<124 450>
Fore
494 450 m 1
 294 450 l 1
 294 152 l 2
 294 113.685 295.256 97.8292 313 86 c 0
 319 82 329 80 344 80 c 0
 355.323 80 373.031 83.677 377 85 c 1
 396 6 l 1
 381.697 2.42423 346.666 -4 328 -4 c 0
 274.729 -4 231.046 15.0356 218 52 c 0
 207.945 77.1383 206 102.228 206 144 c 2
 206 450 l 1
 42 450 l 1
 42 518 l 1
 494 518 l 1
 494 450 l 1
EndSplineSet
MinimumDistance: x0,-1 x10,12 x10,11 x1,13 x1,0 
EndChar
